<svg width="100" height="100" viewBox="0 0 26 31" fill="none" xmlns="http://www.w3.org/2000/svg">
<path d="M25.7188 28.625C25.8854 28.9167 25.9688 29.1667 25.9688 29.375C25.9688 29.5625 25.8646 29.7188 25.6562 29.8438C25.4688 29.9688 25.1667 30.0521 24.75 30.0938C24.3542 30.1562 23.8333 30.1875 23.1875 30.1875C22.5625 30.1875 22.0625 30.1667 21.6875 30.125C21.3333 30.1042 21.0417 30.0625 20.8125 30C20.6042 29.9167 20.4375 29.8229 20.3125 29.7188C20.2083 29.5938 20.1146 29.4583 20.0312 29.3125L13.2812 18.1562L6.5625 29.3125C6.47917 29.4583 6.375 29.5938 6.25 29.7188C6.14583 29.8229 5.97917 29.9167 5.75 30C5.54167 30.0625 5.26042 30.1042 4.90625 30.125C4.55208 30.1667 4.08333 30.1875 3.5 30.1875C2.89583 30.1875 2.39583 30.1562 2 30.0938C1.625 30.0521 1.34375 29.9688 1.15625 29.8438C0.989583 29.7188 0.90625 29.5625 0.90625 29.375C0.927083 29.1667 1.03125 28.9167 1.21875 28.625L9.96875 14.9062L1.6875 1.6875C1.52083 1.39583 1.42708 1.15625 1.40625 0.96875C1.40625 0.760417 1.5 0.59375 1.6875 0.46875C1.89583 0.322917 2.19792 0.229167 2.59375 0.1875C3.01042 0.145833 3.55208 0.125 4.21875 0.125C4.82292 0.125 5.30208 0.145833 5.65625 0.1875C6.03125 0.208333 6.32292 0.25 6.53125 0.3125C6.73958 0.375 6.89583 0.458333 7 0.5625C7.10417 0.666667 7.19792 0.791667 7.28125 0.9375L13.6875 11.4062L20.1875 0.9375C20.2708 0.8125 20.3646 0.697917 20.4688 0.59375C20.5729 0.489583 20.7083 0.40625 20.875 0.34375C21.0625 0.260417 21.3125 0.208333 21.625 0.1875C21.9583 0.145833 22.4062 0.125 22.9688 0.125C23.5729 0.125 24.0625 0.145833 24.4375 0.1875C24.8333 0.229167 25.125 0.3125 25.3125 0.4375C25.5 0.541667 25.5833 0.697917 25.5625 0.90625C25.5417 1.11458 25.4375 1.375 25.25 1.6875L17.0312 14.75L25.7188 28.625Z" fill="black"/>
</svg>
