<svg width="100" height="100" viewBox="0 0 68 67" fill="none" xmlns="http://www.w3.org/2000/svg">
<g id="vuesax/outline/undo">
<g id="undo">
<path id="Vector" d="M42.7861 53.2092H20.6063C19.4696 53.2092 18.5269 52.26 18.5269 51.1154C18.5269 49.9708 19.4696 49.0217 20.6063 49.0217H42.7861C49.2737 49.0217 54.5691 43.6896 54.5691 37.1571C54.5691 30.6246 49.2737 25.2925 42.7861 25.2925H12.2888C11.1521 25.2925 10.2095 24.3433 10.2095 23.1987C10.2095 22.0542 11.1521 21.105 12.2888 21.105H42.7861C51.5749 21.105 58.7279 28.3075 58.7279 37.1571C58.7279 46.0067 51.5749 53.2092 42.7861 53.2092Z" fill="#171717"/>
<path id="Vector_2" d="M18.6656 32.2717C18.1388 32.2717 17.612 32.0763 17.1962 31.6575L10.0986 24.5108C9.2946 23.7013 9.2946 22.3612 10.0986 21.5517L17.1962 14.405C18.0002 13.5954 19.331 13.5954 20.135 14.405C20.939 15.2146 20.939 16.5546 20.135 17.3642L14.5069 23.0313L20.135 28.6983C20.939 29.5079 20.939 30.8479 20.135 31.6575C19.7469 32.0763 19.1924 32.2717 18.6656 32.2717Z" fill="#171717"/>
</g>
</g>
</svg>
