<svg width="109" height="109" viewBox="0 0 109 109" fill="none" xmlns="http://www.w3.org/2000/svg">
<g clip-path="url(#clip0_293_263)">
<path d="M54.5 0C24.4007 0 0 24.4007 0 54.5C0 80.0583 17.597 101.505 41.335 107.396V71.1552H30.0971V54.5H41.335V47.3234C41.335 28.7738 49.7302 20.1759 67.9419 20.1759C71.395 20.1759 77.3529 20.8539 79.7902 21.5297V36.6262C78.504 36.491 76.2695 36.4234 73.4943 36.4234C64.5585 36.4234 61.1054 39.809 61.1054 48.6096V54.5H78.9073L75.8487 71.1552H61.1054V108.601C88.0916 105.342 109.002 82.3648 109.002 54.5C109 24.4007 84.5993 0 54.5 0Z" fill="white"/>
</g>
<defs>
<clipPath id="clip0_293_263">
<rect width="109" height="109" fill="white"/>
</clipPath>
</defs>
</svg>
