<svg width="109" height="118" viewBox="0 0 109 118" fill="none" xmlns="http://www.w3.org/2000/svg">
<g clip-path="url(#clip0_293_264)">
<path d="M54.5 10.5916C69.0617 10.5916 70.7861 10.6606 76.5129 10.9363C81.8352 11.189 84.7092 12.1539 86.6252 12.9581C89.1586 14.0149 90.9895 15.3016 92.8842 17.3464C94.8002 19.4142 95.9711 21.3671 96.9504 24.1011C97.6955 26.1689 98.5897 29.2935 98.8238 35.0144C99.0793 41.2177 99.1432 43.0787 99.1432 58.7709C99.1432 74.486 99.0793 76.347 98.8238 82.5274C98.5897 88.2712 97.6955 91.3729 96.9504 93.4407C95.9711 96.1747 94.7789 98.1506 92.8842 100.195C90.9682 102.263 89.1586 103.527 86.6252 104.584C84.7092 105.388 81.8139 106.353 76.5129 106.606C70.7649 106.881 69.0404 106.95 54.5 106.95C39.9383 106.95 38.2139 106.881 32.4871 106.606C27.1648 106.353 24.2908 105.388 22.3748 104.584C19.8414 103.527 18.0105 102.24 16.1158 100.195C14.1998 98.1276 13.0289 96.1747 12.0496 93.4407C11.3045 91.3729 10.4104 88.2482 10.1762 82.5274C9.9207 76.324 9.85684 74.463 9.85684 58.7709C9.85684 43.0558 9.9207 41.1948 10.1762 35.0144C10.4104 29.2706 11.3045 26.1689 12.0496 24.1011C13.0289 21.3671 14.2211 19.3912 16.1158 17.3464C18.0318 15.2786 19.8414 14.0149 22.3748 12.9581C24.2908 12.1539 27.1861 11.189 32.4871 10.9363C38.2139 10.6606 39.9383 10.5916 54.5 10.5916ZM54.5 0C39.7041 0 37.852 0.068926 32.04 0.34463C26.2494 0.620334 22.2684 1.63125 18.8195 3.07869C15.2217 4.59507 12.1773 6.59392 9.1543 9.87939C6.10996 13.1419 4.25781 16.4274 2.85273 20.2872C1.51152 24.0322 0.574805 28.3056 0.319336 34.5549C0.0638672 40.8501 0 42.849 0 58.8168C0 74.7847 0.0638672 76.7835 0.319336 83.0558C0.574805 89.3051 1.51152 93.6015 2.85273 97.3235C4.25781 101.206 6.10996 104.492 9.1543 107.754C12.1773 111.017 15.2217 113.039 18.7982 114.532C22.2684 115.979 26.2281 116.99 32.0188 117.266C37.8307 117.542 39.6828 117.611 54.4787 117.611C69.2746 117.611 71.1268 117.542 76.9387 117.266C82.7293 116.99 86.7104 115.979 90.1592 114.532C93.7358 113.039 96.7801 111.017 99.8031 107.754C102.826 104.492 104.7 101.206 106.083 97.3465C107.425 93.6015 108.361 89.3281 108.617 83.0788C108.872 76.8065 108.936 74.8077 108.936 58.8398C108.936 42.872 108.872 40.8731 108.617 34.6008C108.361 28.3516 107.425 24.0552 106.083 20.3332C104.742 16.4274 102.89 13.1419 99.8457 9.87939C96.8227 6.61689 93.7783 4.59507 90.2018 3.10167C86.7317 1.65422 82.7719 0.643309 76.9813 0.367605C71.1481 0.068926 69.2959 0 54.5 0Z" fill="white"/>
<path d="M54.499 28.6042C39.0432 28.6042 26.5039 42.1367 26.5039 58.8168C26.5039 75.4969 39.0432 89.0294 54.499 89.0294C69.9549 89.0294 82.4941 75.4969 82.4941 58.8168C82.4941 42.1367 69.9549 28.6042 54.499 28.6042ZM54.499 78.4148C44.4719 78.4148 36.3395 69.6382 36.3395 58.8168C36.3395 47.9954 44.4719 39.2188 54.499 39.2188C64.5262 39.2188 72.6586 47.9954 72.6586 58.8168C72.6586 69.6382 64.5262 78.4148 54.499 78.4148Z" fill="white"/>
<path d="M90.1379 27.4094C90.1379 31.3152 87.2 34.4628 83.6021 34.4628C79.983 34.4628 77.0664 31.2922 77.0664 27.4094C77.0664 23.5036 80.0043 20.356 83.6021 20.356C87.2 20.356 90.1379 23.5266 90.1379 27.4094Z" fill="white"/>
</g>
<defs>
<clipPath id="clip0_293_264">
<rect width="109" height="117.634" fill="white"/>
</clipPath>
</defs>
</svg>
