<svg width="50" height="50" viewBox="0 0 50 50" fill="none" xmlns="http://www.w3.org/2000/svg">
<path d="M31.5366 47.2883C33.8243 48.7643 36.5504 49.4076 39.2566 49.1097C41.9627 48.8122 44.4838 47.5918 46.396 45.654L48.0677 44.0193C48.8006 43.2697 49.2109 42.2629 49.2109 41.2147C49.2109 40.1661 48.8006 39.1593 48.0677 38.4097L40.9723 31.3888C40.229 30.6582 39.2285 30.2489 38.1862 30.2489C37.144 30.2489 36.1434 30.6582 35.4001 31.3888C34.6504 32.1217 33.6437 32.532 32.5953 32.532C31.547 32.532 30.5403 32.1217 29.7906 31.3888L18.6461 20.2442C18.2743 19.8779 17.9791 19.4412 17.7776 18.9597C17.5761 18.4782 17.4723 17.9615 17.4723 17.4395C17.4723 16.9176 17.5761 16.4008 17.7776 15.9193C17.9791 15.4378 18.2743 15.0012 18.6461 14.6348C19.3766 13.8914 19.786 12.8909 19.786 11.8487C19.786 10.8064 19.3766 9.80587 18.6461 9.06252L11.588 2.00432C10.8383 1.27143 9.83156 0.861084 8.78298 0.861084C7.73477 0.861084 6.72798 1.27143 5.97834 2.00432L4.34406 3.67602C2.4062 5.58819 1.18584 8.1093 0.887985 10.8154C0.590486 13.5216 1.23334 16.2477 2.70941 18.5354C10.3994 29.8684 20.1838 39.6275 31.5366 47.2883Z" fill="white"/>
</svg>
