<svg width="109" height="118" viewBox="0 0 109 118" fill="none" xmlns="http://www.w3.org/2000/svg">
<g clip-path="url(#clip0_293_261)">
<path fill-rule="evenodd" clip-rule="evenodd" d="M109 58.6923C109 91.1072 84.5995 117.385 54.5 117.385C24.4005 117.385 0 91.1072 0 58.6923C0 26.2774 24.4005 0 54.5 0C84.5995 0 109 26.2774 109 58.6923ZM56.453 43.3292C51.1521 45.7037 40.5577 50.6182 24.6698 58.0727C22.0899 59.1776 20.7384 60.2585 20.6154 61.3154C20.4075 63.1015 22.4845 63.8049 25.3128 64.7627C25.6976 64.8929 26.0962 65.0279 26.5049 65.171C29.2876 66.1451 33.0308 67.2847 34.9767 67.33C36.7418 67.3711 38.7119 66.5874 40.887 64.9789C55.7315 54.1877 63.3943 48.7332 63.8754 48.6157C64.2148 48.5327 64.6851 48.4284 65.0038 48.7334C65.3225 49.0385 65.2912 49.6161 65.2574 49.7711C65.0516 50.7157 56.8986 58.8786 52.6793 63.1029C51.364 64.4198 50.431 65.354 50.2403 65.5673C49.813 66.0452 49.3776 66.4973 48.9591 66.9317C46.3739 69.6156 44.4353 71.6282 49.0664 74.9148C51.292 76.4942 53.0728 77.8003 54.8495 79.1033C56.7898 80.5263 58.7251 81.9455 61.229 83.7132C61.8669 84.1635 62.4762 84.6313 63.0696 85.0869C65.3277 86.8205 67.3563 88.378 69.8626 88.1296C71.3189 87.9853 72.8232 86.5106 73.5871 82.1123C75.3926 71.7178 78.9416 49.1962 79.7617 39.9155C79.8336 39.1024 79.7432 38.0618 79.6706 37.605C79.598 37.1482 79.4463 36.4974 78.895 36.0156C78.242 35.445 77.2339 35.3246 76.7831 35.3332C74.7332 35.3721 71.5883 36.5497 56.453 43.3292Z" fill="white"/>
</g>
<defs>
<clipPath id="clip0_293_261">
<rect width="109" height="117.385" fill="white"/>
</clipPath>
</defs>
</svg>
