<svg width="119" height="473" viewBox="0 0 719 473" fill="none" xmlns="http://www.w3.org/2000/svg">
<path d="M605.872 166.162C609.64 168.014 611.353 167.377 612.085 165.912C612.817 164.448 612.29 162.71 608.522 160.859C601.658 157.486 597.017 158.508 597.017 158.508C597.017 158.508 598.909 162.74 605.872 166.162Z" fill="#B2C9C6"/>
<path d="M607.982 193.105C610.942 196.066 612.772 196.014 613.942 194.863C615.112 193.712 615.18 191.898 612.219 188.937C606.825 183.543 602.1 183.02 602.1 183.02C602.1 183.02 602.51 187.633 607.982 193.105Z" fill="#B2C9C6"/>
<path d="M614.812 264.775L615.599 264.651C615.579 264.532 613.57 250.785 616.419 232.656C619.05 215.929 626.35 190.507 646.198 164.39L645.562 163.915C625.606 190.176 618.269 215.745 615.628 232.57C612.765 250.812 614.793 264.654 614.812 264.775Z" fill="#B2C9C6"/>
<path d="M626.509 196.469L627.147 195.997C609.878 173.015 617.155 143.121 617.231 142.822L616.459 142.63C616.382 142.933 609.01 173.181 626.509 196.469Z" fill="#B2C9C6"/>
<path d="M637.548 182.853C645.611 182.286 651.418 177.853 651.484 177.802L650.994 177.18C650.92 177.238 643.477 182.906 633.836 182.032L633.763 182.818C635.068 182.936 636.334 182.939 637.548 182.853Z" fill="#B2C9C6"/>
<path d="M614.742 245.306C630.915 242.319 643.564 233.504 652.338 219.106C652.643 218.608 652.93 218.137 653.019 218.05C653.018 218.051 652.992 218.076 652.941 218.097L652.637 217.368C652.42 217.456 652.294 217.656 651.658 218.698C643.006 232.895 630.537 241.586 614.597 244.529L614.742 245.306Z" fill="#B2C9C6"/>
<path d="M637.19 235.205L637.942 234.945C634.387 224.829 640.237 209.175 640.296 209.018L639.551 208.74C639.536 208.78 638.027 212.787 636.988 218.011C636.025 222.851 635.278 229.764 637.19 235.205Z" fill="#B2C9C6"/>
<path d="M646.414 159.964C642.483 164.017 642.276 166.141 643.464 167.275C644.652 168.408 646.784 168.121 650.715 164.068C657.876 156.685 659.186 151.065 659.186 151.065C659.186 151.065 653.679 152.474 646.414 159.964Z" fill="#B2C9C6"/>
<path d="M649.174 175.406C644.193 178.095 643.351 180.059 644.139 181.494C644.926 182.93 647.046 183.294 652.026 180.605C661.098 175.707 664.056 170.74 664.056 170.74C664.056 170.74 658.377 170.437 649.174 175.406Z" fill="#B2C9C6"/>
<path d="M637.747 206.624C636.09 210.457 636.825 212.119 638.34 212.763C639.855 213.407 641.575 212.789 643.232 208.956C646.249 201.974 644.966 197.433 644.966 197.433C644.966 197.433 640.809 199.54 637.747 206.624Z" fill="#B2C9C6"/>
<path d="M628.532 170.883C627.866 175.001 628.986 176.435 630.613 176.695C632.24 176.954 633.758 175.939 634.424 171.822C635.639 164.322 633.28 160.227 633.28 160.227C633.28 160.227 629.765 163.273 628.532 170.883Z" fill="#B2C9C6"/>
<path d="M626.392 231.774C626.919 235.911 628.401 236.975 630.036 236.771C631.671 236.566 632.84 235.169 632.312 231.032C631.353 223.496 627.928 220.224 627.928 220.224C627.928 220.224 625.418 224.127 626.392 231.774Z" fill="#B2C9C6"/>
<path d="M648.703 218.655C646.257 222.047 646.616 223.827 647.957 224.778C649.297 225.728 651.112 225.49 653.557 222.098C658.013 215.919 657.738 211.211 657.738 211.211C657.738 211.211 653.223 212.385 648.703 218.655Z" fill="#B2C9C6"/>
<path d="M614.556 139.558C613.629 145.106 614.671 146.973 616.297 147.241C617.923 147.508 619.516 146.075 620.444 140.527C622.135 130.42 620.008 125.051 620.008 125.051C620.008 125.051 616.271 129.304 614.556 139.558Z" fill="#B2C9C6"/>
<path d="M246.669 430.991C246.669 430.991 208.671 52.0375 72.2119 89.5003C-24.6256 116.085 196.463 331.526 215.904 428.934L246.669 430.991Z" fill="#B2C9C6"/>
<path d="M551.766 353.042C551.766 353.042 628.263 190.893 680.315 212.926C732.366 234.959 600.147 310.428 579.674 358.324L551.766 353.042Z" fill="#9BBCB6"/>
<path d="M567.351 356.134C580.884 322.801 607.028 291.482 626.576 271.078C647.77 248.957 665.981 234.553 666.163 234.41L665.263 233.286C665.081 233.43 646.789 247.895 625.526 270.089C605.891 290.583 579.626 322.055 566.009 355.597L567.351 356.134Z" fill="#74A1BD"/>
<path d="M684.246 358.959C659.474 372.712 676.18 411.203 643.667 412.996C611.146 414.772 613.061 412.091 602.54 429.533C602.54 429.533 600.765 443.841 589.387 449.585C544.495 472.251 458.147 422.365 495.801 368.986C498.52 365.132 503.394 362.486 508.877 359.841C538.627 345.517 552.754 356.785 566.092 312.791C579.435 268.785 629.01 311.009 649.394 302.803C669.777 294.596 686.318 282.756 709.443 299.819C732.575 316.899 709.025 345.225 684.246 358.959Z" fill="#CFD3A3"/>
<path d="M526.545 415.022L525.096 413.856C525.613 413.222 578.534 349.893 715.134 304.93L715.722 306.688C579.635 351.483 527.061 414.392 526.545 415.022Z" fill="#C4C695"/>
<path d="M595.883 336.335C572.736 325.646 565.573 313.755 565.28 313.255L566.894 312.323C566.963 312.441 574.116 324.24 596.673 334.656L595.883 336.335Z" fill="#C4C695"/>
<path d="M604.922 354.485C597.074 347.12 593.592 334.13 594.855 316.92C595.8 304.031 599.093 293.15 599.125 293.042L600.912 293.578C600.782 294.003 588.159 336.206 606.206 353.141L604.922 354.485Z" fill="#C4C695"/>
<path d="M640.182 340.411C637.469 339.274 635.942 338.463 635.873 338.426L636.767 336.801C637.087 336.974 669.264 354.014 705.252 341.9L705.852 343.653C676.853 353.414 650.29 344.648 640.182 340.411Z" fill="#C4C695"/>
<path d="M670.662 375.942C659.542 369.286 654.347 360.837 651.948 354.923C649.337 348.484 649.373 343.666 649.376 343.464L651.243 343.489C651.241 343.674 651.267 362.17 671.627 374.357L670.662 375.942Z" fill="#C4C695"/>
<g opacity="0.6">
<path d="M230.982 421.495C230.982 421.495 230.982 254.637 157.461 230.739C152.65 229.175 147.329 229.745 143.126 232.545C110.722 254.126 198.744 364.228 203.555 418.914L230.982 421.495Z" fill="#B2C9C6"/>
</g>
<path d="M211.349 415.783C211.349 415.783 123.027 187.783 50.0444 212.783C-22.9392 237.783 149.654 353.156 172.853 420.299L211.349 415.783Z" fill="#CFD3A3"/>
<path d="M189.837 418.499C174.665 371.84 142.134 326.712 117.517 297.071C90.8277 264.937 67.4442 243.59 67.2106 243.378L68.5456 241.935C68.7792 242.147 92.2655 263.587 119.041 295.826C143.768 325.599 176.449 370.945 191.716 417.898L189.837 418.499Z" fill="#C4C695"/>
<path d="M32.5188 360.154C54.1896 370.17 42.5819 403.533 70.003 403.026C97.4286 402.503 95.6519 400.371 105.585 414.368C105.585 414.368 107.977 426.276 117.894 430.396C157.026 446.652 226.409 399.408 191.423 356.907C188.896 353.837 184.637 351.917 179.865 350.036C153.976 339.847 142.82 350.185 128.849 314.062C114.872 277.928 75.8932 316.461 58.2561 310.831C40.6198 305.201 25.982 296.28 7.63353 312.043C-10.7194 327.821 10.8427 350.153 32.5188 360.154Z" fill="#B5CCC9"/>
<g opacity="0.5">
<path d="M168.499 397.474L169.643 396.405C169.168 395.905 120.734 345.993 3.17552 316.688L2.79181 318.2C119.91 347.397 168.026 396.977 168.499 397.474Z" fill="#74A1BD"/>
<path d="M105.31 335.681C124.078 325.269 129.345 314.839 129.56 314.401L128.146 313.718C128.095 313.821 122.83 324.174 104.541 334.319L105.31 335.681Z" fill="#74A1BD"/>
<path d="M98.8603 351.483C104.989 344.812 107.095 333.686 104.951 319.31C103.346 308.544 99.8956 299.607 99.8617 299.519L98.395 300.08C98.5304 300.428 111.789 335.093 97.6976 350.434L98.8603 351.483Z" fill="#74A1BD"/>
<path d="M68.3603 341.848C70.5669 340.725 71.7989 339.949 71.855 339.913L71.0014 338.604C70.7437 338.769 44.7913 355.073 13.8022 347.127L13.4094 348.636C38.3797 355.04 60.1378 346.031 68.3603 341.848Z" fill="#74A1BD"/>
<path d="M44.997 373.577C53.9181 367.298 57.7491 359.881 59.3911 354.764C61.1794 349.195 60.8458 345.15 60.8307 344.98L59.2639 345.117C59.2767 345.273 60.4196 360.809 44.0859 372.306L44.997 373.577Z" fill="#74A1BD"/>
</g>
<path d="M664.193 441.908C664.193 458.597 522.104 472.126 346.828 472.126C171.551 472.126 29.4624 458.597 29.4624 441.908C29.4624 425.219 171.551 411.689 346.828 411.689C522.104 411.689 664.193 425.219 664.193 441.908Z" fill="#BED5DC"/>
<path d="M110.605 453.706C110.565 453.334 110.676 453.014 110.936 452.754C111.496 452.194 112.677 452.033 113.637 452.002C112.482 451.599 110.977 450.924 110.666 450.069C110.542 449.729 110.602 449.391 110.845 449.065C112.238 447.196 116.912 450.198 117.111 450.327L116.899 450.647C115.633 449.826 112.132 447.982 111.156 449.293C110.992 449.512 110.95 449.724 111.029 449.939C111.393 450.94 114.098 451.799 115.109 452.046L115.044 452.422C115.015 452.419 112.089 452.146 111.211 453.024C111.034 453.2 110.962 453.41 110.989 453.665L110.605 453.706Z" fill="#42428E"/>
<path d="M174.088 430.991L173.704 430.95C173.731 430.696 173.659 430.486 173.482 430.309C172.604 429.432 169.679 429.705 169.649 429.707L169.584 429.331C170.595 429.085 173.3 428.224 173.664 427.225C173.742 427.009 173.701 426.798 173.538 426.578C172.56 425.266 169.061 427.112 167.794 427.933L167.583 427.613C167.781 427.484 172.456 424.483 173.848 426.351C174.091 426.677 174.151 427.015 174.028 427.355C173.716 428.21 172.212 428.885 171.057 429.288C172.016 429.319 173.197 429.48 173.757 430.04C174.016 430.3 174.128 430.62 174.088 430.991Z" fill="#42428E"/>
<path d="M635.51 442.396L635.127 442.356C635.154 442.102 635.081 441.892 634.905 441.715C634.028 440.837 631.101 441.111 631.072 441.113L631.007 440.737C632.019 440.49 634.723 439.63 635.087 438.63C635.165 438.415 635.124 438.203 634.96 437.984C633.983 436.673 630.482 438.517 629.216 439.338L629.005 439.018C629.204 438.89 633.878 435.888 635.271 437.756C635.514 438.082 635.574 438.42 635.45 438.76C635.139 439.616 633.634 440.29 632.479 440.693C633.439 440.724 634.619 440.885 635.179 441.445C635.439 441.706 635.55 442.025 635.51 442.396Z" fill="#42428E"/>
<path d="M466.76 459.583C466.598 459.487 462.797 457.197 462.797 455.188C462.797 454.569 463.146 454.046 463.835 453.635C464.593 453.183 465.381 453.074 466.178 453.312C468.103 453.888 469.494 456.312 469.864 457.017C471.824 455.862 473.283 455.582 474.203 456.184C475.517 457.046 475.19 459.35 475.175 459.447L474.794 459.392C474.797 459.37 475.099 457.23 473.989 456.503C473.178 455.973 471.797 456.291 469.886 457.451L469.702 457.562L469.61 457.37C469.596 457.339 468.113 454.29 466.066 453.679C465.379 453.473 464.695 453.569 464.034 453.963C463.461 454.305 463.182 454.706 463.182 455.189C463.182 456.983 466.921 459.233 466.958 459.256L466.76 459.583Z" fill="#42428E"/>
<path d="M517.126 426.229C517.111 426.214 515.602 424.681 514.367 422.744C512.683 420.101 512.282 418.002 513.175 416.507C513.509 415.95 513.911 415.695 514.365 415.744C515.91 415.919 517.602 419.906 518.478 422.281C518.188 419.314 517.857 413.449 519.495 411.466C519.851 411.034 520.286 410.799 520.788 410.769C521.277 410.737 521.677 410.913 521.98 411.285C523.457 413.098 522.122 419.503 521.388 422.5C521.935 421.621 522.712 420.641 523.504 420.529C523.881 420.476 524.179 420.615 524.346 420.92C524.824 421.792 524.164 424.012 522.23 426.221L521.939 425.97C523.84 423.799 524.362 421.748 524.007 421.103C523.917 420.939 523.774 420.878 523.559 420.908C522.539 421.052 521.348 423.247 520.975 424.081L520.613 423.952C520.642 423.85 523.463 413.715 521.68 411.526C521.457 411.252 521.172 411.131 520.811 411.152C520.416 411.175 520.083 411.357 519.793 411.708C517.72 414.22 519.047 423.88 519.061 423.977L518.686 424.061C517.998 421.913 515.873 416.301 514.321 416.125C514.025 416.092 513.758 416.281 513.506 416.703C511.547 419.982 517.342 425.902 517.401 425.962L517.126 426.229Z" fill="#42428E"/>
<path d="M223.457 418.862C223.457 418.862 216.477 411.803 218.879 407.783C221.281 403.763 225.334 416.419 225.334 416.419C225.334 416.419 223.232 401.454 227.585 401.195C231.939 400.935 227.585 416.419 227.585 416.419C227.585 416.419 229.199 412.808 230.775 412.585C232.352 412.362 231.901 415.646 229.087 418.861H223.457V418.862Z" fill="#BED5DC"/>
<path d="M223.957 419.039C223.628 418.707 215.934 410.841 218.726 406.168C219.167 405.429 219.696 405.087 220.302 405.157C221.506 405.294 222.92 407.179 224.505 410.762C224.988 411.853 225.415 412.944 225.751 413.846C225.366 409.929 224.92 402.126 227.094 399.492C227.566 398.921 228.142 398.61 228.806 398.57C229.451 398.535 229.984 398.762 230.384 399.254C232.339 401.654 230.572 410.134 229.601 414.102C230.325 412.938 231.353 411.641 232.402 411.492C232.899 411.421 233.295 411.606 233.517 412.01C234.151 413.164 233.276 416.104 230.716 419.028L230.331 418.696C232.847 415.821 233.538 413.107 233.069 412.252C232.949 412.035 232.761 411.953 232.475 411.993C231.123 412.185 229.548 415.09 229.054 416.194L228.575 416.023C228.584 415.989 229.539 412.578 230.179 408.843C231.016 403.96 230.95 400.754 229.987 399.572C229.692 399.209 229.32 399.045 228.836 399.076C228.313 399.107 227.873 399.348 227.489 399.813C224.743 403.138 226.502 415.927 226.52 416.056L226.023 416.168C225.112 413.324 222.299 405.893 220.244 405.66C219.853 405.617 219.499 405.866 219.165 406.425C216.571 410.767 224.243 418.605 224.321 418.684L223.957 419.039Z" fill="#42428E"/>
<path d="M77.8831 434.341C77.8831 434.341 70.0929 426.464 72.7735 421.978C75.4542 417.491 79.9777 431.615 79.9777 431.615C79.9777 431.615 77.6326 414.914 82.4909 414.624C87.3493 414.334 82.4909 431.615 82.4909 431.615C82.4909 431.615 84.2921 427.586 86.0507 427.337C87.8097 427.087 87.3075 430.754 84.1661 434.342L77.8831 434.341Z" fill="#BED5DC"/>
<path d="M78.4411 434.539C78.0743 434.168 69.4873 425.389 72.6035 420.173C73.096 419.349 73.6862 418.969 74.3622 419.045C75.7063 419.197 77.2843 421.302 79.0539 425.3C79.5925 426.518 80.0695 427.735 80.4438 428.742C80.0146 424.37 79.5166 415.661 81.9429 412.722C82.4696 412.084 83.1124 411.738 83.8531 411.694C84.5773 411.652 85.1682 411.907 85.6151 412.456C87.797 415.135 85.8247 424.6 84.7409 429.028C85.5493 427.729 86.6963 426.281 87.8681 426.115C88.4222 426.037 88.8638 426.242 89.1117 426.693C89.8186 427.981 88.8427 431.262 85.9853 434.526L85.555 434.155C88.3635 430.947 89.1347 427.917 88.6106 426.964C88.4775 426.721 88.2668 426.628 87.9482 426.675C86.4405 426.889 84.6811 430.132 84.1304 431.363L83.5951 431.172C83.606 431.134 84.6706 427.328 85.3849 423.16C86.3193 417.709 86.2456 414.131 85.1709 412.812C84.8417 412.408 84.4212 412.224 83.8866 412.259C83.3028 412.293 82.8111 412.562 82.3827 413.081C79.3187 416.792 81.2812 431.066 81.3011 431.21L80.7474 431.334C79.731 428.16 76.5903 419.867 74.2963 419.607C73.8566 419.556 73.4657 419.838 73.093 420.462C70.1979 425.308 78.7601 434.055 78.847 434.143L78.4411 434.539Z" fill="#42428E"/>
<path d="M278.641 464.008C278.624 463.991 276.924 462.263 275.533 460.08C273.635 457.101 273.182 454.737 274.189 453.052C274.565 452.423 275.015 452.133 275.531 452.192C276.556 452.308 277.759 453.913 279.108 456.963C279.52 457.891 279.883 458.82 280.169 459.588C279.842 456.253 279.462 449.611 281.312 447.37C281.714 446.883 282.204 446.619 282.769 446.585C283.32 446.555 283.772 446.748 284.113 447.166C285.777 449.21 284.273 456.428 283.446 459.805C284.063 458.814 284.938 457.71 285.831 457.584C286.254 457.524 286.591 457.681 286.78 458.025C287.319 459.006 286.575 461.509 284.396 463.998L284.067 463.715C286.209 461.268 286.797 458.958 286.398 458.23C286.296 458.046 286.136 457.975 285.892 458.01C284.742 458.173 283.401 460.646 282.981 461.586L282.573 461.44C282.581 461.412 283.393 458.508 283.938 455.329C284.65 451.172 284.594 448.443 283.774 447.437C283.523 447.129 283.201 446.991 282.795 447.015C282.35 447.042 281.974 447.247 281.648 447.643C279.311 450.473 280.808 461.359 280.823 461.468L280.401 461.563C279.625 459.143 277.23 452.818 275.481 452.62C275.147 452.58 274.847 452.795 274.563 453.271C272.354 456.967 278.885 463.639 278.951 463.705L278.641 464.008Z" fill="#42428E"/>
<g opacity="0.6">
<path d="M666.732 36.1979C666.732 36.1979 662.143 27.4445 650.532 28.5414C638.921 29.638 640.304 38.4123 634.775 37.5899C629.246 36.7669 621.505 37.59 619.846 43.0735C618.187 48.5574 610.723 45.5416 610.447 50.2028C610.171 54.8643 619.017 58.1544 629.246 54.0416C639.474 49.9289 644.45 57.2365 658.826 55.9131C673.201 54.5897 674.982 52.9443 683.491 53.767C692 54.5897 691.798 48.8114 687.927 44.9726C684.056 41.1337 668.39 41.4993 666.732 36.1979Z" fill="#EAE9FF"/>
</g>
<g opacity="0.4">
<path d="M504.867 18.0254C504.867 18.0254 494.332 -2.07225 467.672 0.445836C441.013 2.96392 444.186 23.1101 431.492 21.2214C418.797 19.3328 401.024 21.2214 397.215 33.8126C393.407 46.4038 376.269 39.4786 375.634 50.1811C374.999 60.8836 395.311 68.4386 418.796 58.995C442.282 49.5517 453.708 66.3313 486.714 63.2928C519.721 60.2542 523.81 56.4765 543.347 58.3652C562.884 60.2542 562.42 46.9866 553.533 38.1723C544.646 29.3585 508.676 30.1976 504.867 18.0254Z" fill="#EAE9FF"/>
</g>
<g opacity="0.6">
<path d="M152.073 21.2646C152.073 21.2646 144.335 10.0275 124.755 11.4356C105.176 12.844 107.507 24.1081 98.1834 23.0518C88.8595 21.9959 75.8069 23.0518 73.0096 30.0919C70.2128 37.1317 57.6262 33.26 57.1598 39.2438C56.6941 45.228 71.6114 49.452 88.8595 44.1721C106.108 38.892 114.499 48.2741 138.741 46.5749C162.983 44.8758 165.986 42.7644 180.334 43.8199C194.683 44.8758 194.342 37.4578 187.815 32.5298C181.289 27.6014 154.869 28.0704 152.073 21.2646Z" fill="#EAE9FF"/>
</g>
<path d="M316.469 399.288C316.469 423.857 296.388 443.773 271.617 443.773C270.618 443.773 255.685 443.837 254.701 443.773C231.317 442.255 226.765 422.865 226.765 399.288C226.765 375.6 232.274 356.16 255.814 354.803C256.689 354.752 270.729 354.803 271.617 354.803C296.388 354.803 316.469 374.719 316.469 399.288Z" fill="#402645"/>
<path d="M286.409 430.741C303.925 413.369 303.925 385.202 286.409 367.83C268.894 350.458 240.495 350.458 222.98 367.83C205.464 385.203 205.464 413.369 222.98 430.741C240.495 448.114 268.894 448.114 286.409 430.741Z" fill="#56335B"/>
<path d="M276.035 420.452C287.821 408.762 287.821 389.809 276.035 378.119C264.249 366.43 245.14 366.43 233.354 378.119C221.568 389.809 221.568 408.762 233.354 420.452C245.14 432.142 264.249 432.142 276.035 420.452Z" fill="#436E8E"/>
<path d="M274.133 95.8506C274.133 95.8506 309.862 122.365 309.968 126.797C310.074 131.23 282.067 139.333 282.067 139.333L268.606 115.568L274.133 95.8506Z" fill="#F7B686"/>
<path d="M239.226 372.748C239.226 372.748 239.397 379.524 244.019 381.435C248.642 383.346 262.036 385.071 257.031 389.427C254.16 391.927 240.625 390.312 236.804 390.312C232.983 390.312 229.395 391.964 226.556 389.427C223.432 386.637 226.556 372.748 226.556 372.748C226.556 372.748 229.853 374.452 232.819 374.375C237.091 374.265 239.226 372.748 239.226 372.748Z" fill="#2F1A31"/>
<path d="M278.122 168.265C278.122 168.265 279.045 198.843 269.206 257.504C262.102 299.853 253.717 342.527 249.603 362.985C248.131 370.303 241.926 375.654 234.572 375.947L230.619 376.104C222.667 376.421 216.214 369.646 216.794 361.591L226.774 223.181L229.233 177.626L278.122 168.265Z" fill="#E28569"/>
<path d="M194.459 372.748C194.459 372.748 194.631 379.524 199.253 381.435C203.876 383.346 217.27 385.071 212.265 389.427C209.394 391.927 195.859 390.312 192.039 390.312C188.217 390.312 184.63 391.964 181.79 389.427C178.666 386.637 181.79 372.748 181.79 372.748C181.79 372.748 185.087 374.452 188.053 374.375C192.327 374.265 194.459 372.748 194.459 372.748Z" fill="#2F1A31"/>
<path d="M234.341 168.265C234.341 168.265 235.263 198.843 225.425 257.504C218.322 299.853 209.937 342.527 205.823 362.985C204.351 370.303 198.145 375.654 190.791 375.947L186.839 376.104C178.887 376.421 172.433 369.646 173.014 361.591L182.993 223.181L185.453 177.626L234.341 168.265Z" fill="#E28569"/>
<path d="M180.62 201.777C180.715 205.467 203.207 206.932 231.026 206.071C258.845 205.21 281.075 201.395 280.98 197.705C280.885 194.016 258.5 191.85 230.681 192.711C202.863 193.572 180.524 198.088 180.62 201.777Z" fill="#2F1A31"/>
<path d="M187.429 97.3297C187.429 97.3297 192.348 77.9924 228.643 77.7962C280.984 77.513 276.137 125.213 280.98 197.705C280.98 197.705 229.424 190.473 180.594 200.869C180.594 200.869 176.064 126.877 187.429 97.3297Z" fill="#E28569"/>
<path d="M174.032 94.5571L197.738 107.565C197.738 107.565 249.642 112.241 263.42 109.989C277.199 107.737 280.98 97.702 280.98 97.702C280.98 97.702 266.305 82.6413 241.361 78.6211C239.017 78.2401 236.587 77.9603 234.066 77.7976C229.836 77.5275 225.599 77.5838 221.457 78.0465C189.843 81.5805 174.032 94.5571 174.032 94.5571Z" fill="#E28569"/>
<path d="M223.654 73.3704L226.394 64.6002L227.191 62.0474L231.88 47.0352L232.496 61.9683L232.866 70.9314L232.982 73.7681C233.062 75.6941 234.246 76.0997 235.686 77.7734C236.269 78.451 240.004 82.5629 235.766 84.4199C230.486 86.7339 220.614 83.2301 216.861 78.6405C216.89 78.6342 222.768 76.2045 223.654 73.3704Z" fill="#F7B686"/>
<path d="M276.6 200.691C276.6 200.691 246.457 191.894 184.031 203.968L183.55 212.875L275.062 216.083L276.6 200.691Z" fill="#E28569"/>
<path d="M173.539 95.0998C171.529 97.9201 174.489 103.492 180.152 107.544C185.813 111.597 192.032 112.595 194.041 109.776C196.051 106.955 193.091 101.384 187.429 97.3314C181.767 93.2787 175.549 92.2795 173.539 95.0998Z" fill="#2F1A31"/>
<path d="M243.945 41.3975C243.945 41.3975 244.902 45.0319 243.945 49.5875C242.989 54.1435 238.317 42.9444 238.317 42.9444L243.945 41.3975Z" fill="#56335B"/>
<path d="M244.501 50.9026C243.335 42.0935 236.419 35.7299 229.053 36.6895C221.687 37.6487 216.662 45.5671 217.828 54.3758C218.994 63.1852 225.909 69.5485 233.275 68.5892C240.641 67.63 245.667 59.7112 244.501 50.9026Z" fill="#F7B686"/>
<path d="M231.872 51.965C231.942 51.9214 231.991 51.8467 231.998 51.7587C232.01 51.6101 231.9 51.4795 231.75 51.4672C231.662 51.4597 229.63 51.0992 228.606 53.2415C228.542 53.377 228.594 53.5378 228.73 53.605C228.864 53.6718 229.001 53.5994 229.095 53.4833C230.046 52.32 231.631 52.0013 231.705 52.0065C231.766 52.011 231.824 51.9953 231.872 51.965Z" fill="#060633"/>
<path d="M230.69 55.4351C230.861 56.058 231.369 56.4622 231.825 56.3394C232.28 56.2155 232.511 55.6105 232.34 54.988C232.168 54.3659 231.66 53.9609 231.205 54.0841C230.749 54.2076 230.518 54.8122 230.69 55.4351Z" fill="#060633"/>
<path d="M241.959 51.1634C242.022 51.1522 242.078 51.1052 242.107 51.0283C242.155 50.8992 242.108 50.7361 242.001 50.6629C241.937 50.62 240.538 49.46 239.221 50.9757C239.138 51.0716 239.134 51.2384 239.216 51.3545C239.297 51.4702 239.416 51.4609 239.517 51.3944C240.522 50.7334 241.773 51.0966 241.826 51.1317C241.869 51.1615 241.916 51.1709 241.959 51.1634Z" fill="#060633"/>
<path d="M239.473 53.9346C239.392 54.5746 239.707 55.1416 240.174 55.1994C240.644 55.2576 241.089 54.7851 241.169 54.1451C241.25 53.5046 240.936 52.9381 240.468 52.8799C239.999 52.8216 239.554 53.2938 239.473 53.9346Z" fill="#060633"/>
<path d="M208.868 50.1972C208.868 50.1972 213.363 59.8207 219.74 60.5266C219.74 60.5266 214.585 53.1929 225.451 48.7227C225.451 48.7227 215.474 47.1661 208.868 50.1972Z" fill="#56335B"/>
<path d="M217.857 55.5079C219.22 56.3687 220.954 56.0858 221.73 54.8777C222.505 53.6689 222.028 51.9914 220.665 51.131C219.301 50.2703 217.567 50.5531 216.791 51.7616C216.016 52.97 216.493 54.6475 217.857 55.5079Z" fill="#F7B686"/>
<path d="M225.451 48.7231C225.451 48.7231 224.581 56.7994 226.238 58.3261C227.895 59.8529 238.838 60.5092 243.945 58.5522C244.031 63.7391 240.345 68.3175 235.187 69.1771C233.48 69.4611 231.715 69.4633 229.962 69.1592C226.386 68.5395 222.911 67.0728 221.437 63.7835C220.988 62.7829 222.294 56.6255 222.294 56.6255C222.294 56.6255 222.783 53.0112 220.664 51.1312C220.664 51.1312 223.111 48.9496 225.451 48.7231Z" fill="#56335B"/>
<path d="M241.25 61.4648C241.25 61.4648 237.057 62.5901 232.476 62.1502C232.476 62.1502 233.148 66.3574 237.784 65.5194C240.479 65.0317 241.25 61.4648 241.25 61.4648Z" fill="white"/>
<path d="M221.062 48.2644C221.062 48.2644 248.455 52.0608 257.18 46.0385C265.905 40.0155 243.947 37.4541 243.947 37.4541C243.947 37.4541 222.943 48.4614 221.062 48.2644Z" fill="#E28569"/>
<path d="M243.947 37.4544C243.947 37.4544 238.653 26.225 225.451 26.619C212.249 27.0134 204.097 35.753 208.868 50.1974C208.868 50.1974 219.334 50.8511 230.341 45.0392C241.347 39.2274 243.947 37.4544 243.947 37.4544Z" fill="#D16B54"/>
<path d="M271.643 108.232C270.145 102.856 265.091 96.0948 265.04 96.0266L265.52 95.6729C265.571 95.7415 270.691 102.59 272.219 108.075L271.643 108.232Z" fill="#2F1A31"/>
<path d="M223.765 269.451L223.176 269.357C223.217 269.106 227.269 244.172 230.056 235.253C232.87 226.25 244.89 218.74 245.011 218.666L245.327 219.168C245.207 219.242 233.374 226.638 230.626 235.429C227.852 244.308 223.806 269.2 223.765 269.451Z" fill="#2F1A31"/>
<path d="M214.061 197.184L211.12 129.772C210.903 124.81 214.162 120.649 218.242 120.675L337.768 121.455C341.553 121.479 344.655 125.118 344.818 129.722L347.167 196.355C347.34 201.266 344.116 205.363 340.079 205.363H221.146C217.373 205.363 214.261 201.77 214.061 197.184Z" fill="#B9C470"/>
<path d="M251.302 197.184L249.184 129.772C249.028 124.81 251.375 120.649 254.314 120.675L340.399 121.455C343.125 121.479 345.36 125.118 345.477 129.722L347.169 196.355C347.294 201.266 344.972 205.363 342.064 205.363H256.405C253.688 205.363 251.446 201.77 251.302 197.184Z" fill="#CED891"/>
<path d="M274.133 120.676L277.829 205.364H284.152L284.526 121.126L274.133 120.676Z" fill="#56335B"/>
<path d="M335.156 197.097L311.243 198.229C310.547 198.262 309.968 197.584 309.968 196.737V185.761C309.968 184.91 310.551 184.231 311.249 184.269L335.163 185.563C335.819 185.598 336.335 186.256 336.335 187.055V195.605C336.335 196.406 335.814 197.065 335.156 197.097Z" fill="#DEEBE9"/>
<path d="M242.291 162.204L244.526 155.347C244.558 153.401 238.648 148.003 236.76 148.535C222.925 152.431 209.369 149.496 200.077 140.567C193.486 134.233 191.759 118.487 193.236 110.482C193.991 106.385 192.628 103.645 187.638 101.019C187.638 101.019 183.345 98.677 178.053 97.7831C175.933 97.4249 173.828 98.2696 173.281 100.333C172.425 103.562 171.316 108.585 170.788 114.495C169.532 128.534 172.262 140.746 178.683 149.81C186.563 160.936 212.795 172.547 241.021 170.824C243.134 170.695 242.257 164.303 242.291 162.204Z" fill="#F7B686"/>
<g opacity="0.5">
<path d="M183.838 146.101C183.456 146.101 183.052 146.039 182.637 145.914C181.53 145.581 180.459 144.828 179.62 143.796C178.782 142.764 178.27 141.565 178.177 140.421C178.078 139.209 178.457 138.196 179.243 137.569C180.028 136.941 181.107 136.791 182.28 137.144C183.387 137.478 184.458 138.23 185.295 139.263C186.134 140.295 186.647 141.494 186.74 142.638C186.838 143.849 186.46 144.862 185.674 145.49C185.166 145.895 184.536 146.101 183.838 146.101ZM181.084 137.912C180.602 137.912 180.179 138.047 179.847 138.312C179.317 138.736 179.064 139.457 179.137 140.344C179.214 141.299 179.653 142.312 180.371 143.197C181.089 144.081 181.993 144.722 182.918 145.001C183.776 145.26 184.54 145.169 185.071 144.746C185.601 144.322 185.852 143.601 185.78 142.714C185.702 141.759 185.264 140.746 184.546 139.861C183.828 138.977 182.923 138.336 182 138.057C181.679 137.961 181.37 137.912 181.084 137.912Z" fill="#E08B65"/>
</g>
<path d="M236.76 148.535C236.76 148.535 240.254 138.046 246.238 135.477C252.222 132.909 261.823 134.115 258.455 136.489C255.086 138.862 249.938 140.715 249.938 140.715C249.938 140.715 261.124 137.268 260.804 140.213C260.484 143.157 250.726 146.061 250.726 146.061C250.726 146.061 264.367 143.012 263.157 145.696C261.946 148.38 251.566 150.623 251.566 150.623C251.566 150.623 264.373 148.29 262.893 151.374C261.413 154.459 252.297 153.235 251.977 156.178C251.656 159.122 249.381 170.708 241.021 170.824L236.76 148.535Z" fill="#F7B686"/>
<path d="M245.95 143.153L245.515 142.948C246.436 141.026 249.76 140.5 249.902 140.479L249.975 140.95C249.943 140.955 246.761 141.46 245.95 143.153Z" fill="#DD8964"/>
<path d="M245.897 148.993L245.512 148.707C247.328 146.298 250.558 145.843 250.694 145.824L250.758 146.297C250.727 146.302 247.589 146.748 245.897 148.993Z" fill="#DD8964"/>
<path d="M247.076 153.326L246.625 153.158C247.432 151.027 251.363 150.411 251.53 150.386L251.603 150.859C251.565 150.864 247.783 151.457 247.076 153.326Z" fill="#DD8964"/>
<path d="M352.929 147.692C352.929 147.692 354.175 154.103 348.268 155.191C340.741 156.576 330.023 151.145 334.78 150.201C338.998 149.366 345.276 149.602 345.276 149.602C345.276 149.602 329.323 148.781 330.627 145.554C331.932 142.327 345.64 143.218 345.64 143.218C345.64 143.218 330.184 140.965 332.412 138.312C334.64 135.66 347.091 136.392 347.091 136.392C347.091 136.392 331.868 134.997 334.528 131.976C337.188 128.955 344.913 131.259 348.411 131.493C351.716 131.714 352.642 133.899 352.198 137.046C352.198 137.046 353.593 140.434 352.779 142.417C352.468 143.177 353.16 143.999 353.19 144.577C353.247 145.682 352.929 147.692 352.929 147.692Z" fill="#F7B686"/>
<path d="M220.556 119.195L219.396 86.288C219.311 83.8658 220.596 81.835 222.205 81.8477L269.35 82.2283C270.843 82.2395 272.067 84.0158 272.132 86.2638L273.058 118.79C273.127 121.188 271.855 123.188 270.262 123.188H223.35C221.863 123.188 220.635 121.433 220.556 119.195Z" fill="#8B9FD8"/>
<path d="M237.502 119.195L236.343 86.288C236.257 83.8658 237.542 81.835 239.152 81.8477L286.297 82.2283C287.79 82.2395 289.014 84.0158 289.078 86.2638L290.004 118.79C290.073 121.188 288.801 123.188 287.209 123.188H240.297C238.809 123.188 237.581 121.433 237.502 119.195Z" fill="#96A7E2"/>
<path d="M261.197 81.8477L262.655 123.189H266.997L265.149 82.2502L261.197 81.8477Z" fill="#E28569"/>
<path d="M255.672 92.6106L242.083 93.134C241.456 93.1587 240.934 92.6609 240.934 92.0386V87.4468C240.934 86.8222 241.46 86.3234 242.089 86.3517L255.678 86.9506C256.268 86.9763 256.734 87.4587 256.734 88.0456V91.5144C256.734 92.1031 256.265 92.5874 255.672 92.6106Z" fill="#DEEBE9"/>
<path d="M256.754 409.082H195.98C190.528 409.082 186.109 404.698 186.109 399.291C186.109 393.883 190.528 389.5 195.98 389.5H256.754C262.206 389.5 266.626 393.883 266.626 399.291C266.626 404.698 262.206 409.082 256.754 409.082Z" fill="#436E8E"/>
<path d="M256.754 409.547H231.136V408.615H256.754C261.939 408.615 266.156 404.432 266.156 399.29C266.156 394.149 261.938 389.966 256.754 389.966V389.033C262.457 389.033 267.096 393.635 267.096 399.29C267.096 404.946 262.457 409.547 256.754 409.547Z" fill="#2F1A31"/>
<path d="M203.024 399.287C203.024 423.856 182.944 443.772 158.173 443.772C157.173 443.772 142.24 443.836 141.257 443.772C117.873 442.254 113.321 422.864 113.321 399.287C113.321 375.599 118.83 356.159 142.37 354.802C143.245 354.751 157.285 354.802 158.172 354.802C182.944 354.802 203.024 374.718 203.024 399.287Z" fill="#402645"/>
<path d="M172.966 430.741C190.481 413.368 190.481 385.202 172.966 367.83C155.45 350.457 127.052 350.457 109.537 367.83C92.0211 385.202 92.0211 413.368 109.537 430.741C127.052 448.113 155.45 448.113 172.966 430.741Z" fill="#56335B"/>
<path d="M162.592 420.451C174.378 408.762 174.378 389.809 162.592 378.119C150.806 366.429 131.697 366.429 119.911 378.119C108.125 389.809 108.125 408.762 119.911 420.451C131.697 432.141 150.806 432.141 162.592 420.451Z" fill="#436E8E"/>
<path d="M145.206 408.715C150.452 406.56 152.943 400.595 150.77 395.393C148.597 390.19 142.583 387.719 137.337 389.874C132.091 392.029 129.6 397.994 131.773 403.197C133.946 408.4 139.96 410.871 145.206 408.715Z" fill="#DEEBE9"/>
<path d="M262.359 227.233H250.237C247.161 286.264 232.5 340.657 208.626 391.365H220.748C244.894 341.696 258.385 286.799 262.359 227.233Z" fill="#436E8E"/>
<path d="M294.424 232.901H216.412C213.127 232.901 210.464 230.26 210.464 227.001C210.464 223.743 213.127 221.101 216.412 221.101H294.424C297.709 221.101 300.373 223.743 300.373 227.001C300.372 230.259 297.709 232.901 294.424 232.901Z" fill="#436E8E"/>
<path d="M232.628 234.516H205.046C202.994 234.516 201.33 232.865 201.33 230.83V223.637C201.33 221.601 202.994 219.951 205.046 219.951H232.628C234.68 219.951 236.344 221.601 236.344 223.637V230.83C236.344 232.865 234.68 234.516 232.628 234.516Z" fill="#56335B"/>
<path d="M305.606 234.516H278.024C275.972 234.516 274.308 232.865 274.308 230.83V223.637C274.308 221.601 275.972 219.951 278.024 219.951H305.606C307.658 219.951 309.322 221.601 309.322 223.637V230.83C309.322 232.865 307.658 234.516 305.606 234.516Z" fill="#56335B"/>
<path d="M402.546 178.426C399.148 175.105 409.258 162.693 409.258 162.693C410.557 161.79 432.206 182.139 457.008 174.34C465.84 171.563 478.055 156.227 478.936 153.95C479.053 153.647 498.495 160.619 498.495 160.619C496.9 164.743 495.057 177.792 485.549 186.472C465.88 204.428 420.732 202.678 402.546 178.426Z" fill="#F7B686"/>
<path d="M398.369 170.268C397.767 171.262 396.455 171.588 395.453 170.991L379.897 161.729C378.895 161.133 378.568 159.831 379.169 158.837C379.771 157.843 381.083 157.517 382.085 158.115L397.64 167.376C398.642 167.973 398.97 169.274 398.369 170.268Z" fill="#F7B686"/>
<path d="M401.168 165.641C400.567 166.635 399.255 166.961 398.253 166.364L380.856 156.005C379.854 155.409 379.527 154.107 380.128 153.114C380.73 152.12 382.042 151.794 383.044 152.392L400.441 162.749C401.443 163.346 401.77 164.647 401.168 165.641Z" fill="#F7B686"/>
<path d="M410.976 169.788L410.268 170.052C408.944 170.543 407.456 169.871 406.96 168.559L402.135 155.769C401.64 154.456 402.318 152.98 403.642 152.489L404.35 152.226C405.673 151.734 407.161 152.406 407.657 153.719L412.482 166.509C412.977 167.821 412.299 169.298 410.976 169.788Z" fill="#F7B686"/>
<path d="M403.969 161.017C403.368 162.011 402.055 162.335 401.053 161.739L387.108 153.436C386.106 152.839 385.777 151.537 386.38 150.543C386.981 149.549 388.293 149.225 389.295 149.821L403.24 158.124C404.243 158.72 404.571 160.023 403.969 161.017Z" fill="#F7B686"/>
<path d="M405.328 178.684C405.328 178.684 393.183 178.567 387.924 171.781C386.104 169.432 394.724 156.037 398.058 156.324C401.392 156.611 410.259 163.13 410.259 163.13L405.328 178.684Z" fill="#F7B686"/>
<path d="M395.601 174.873C395.001 175.864 393.692 176.189 392.691 175.594L378.775 167.307C377.775 166.712 377.448 165.414 378.049 164.421C378.649 163.429 379.958 163.105 380.959 163.701L394.875 171.986C395.875 172.582 396.202 173.88 395.601 174.873Z" fill="#F7B686"/>
<path d="M518.01 426.023C518.01 426.023 517.841 432.681 513.3 434.56C508.757 436.438 495.596 438.132 500.514 442.413C503.335 444.87 516.634 443.282 520.389 443.282C524.144 443.282 527.669 444.906 530.459 442.413C533.528 439.67 530.459 426.023 530.459 426.023C530.459 426.023 527.219 427.697 524.305 427.623C520.106 427.514 518.01 426.023 518.01 426.023Z" fill="#2F1A31"/>
<path d="M478.821 225.096C478.821 225.096 477.915 255.143 487.583 312.783C494.562 354.395 502.802 396.327 506.844 416.43C508.29 423.621 514.388 428.879 521.614 429.166L525.498 429.321C533.312 429.632 539.654 422.975 539.082 415.06L529.276 279.058L526.859 234.294L478.821 225.096Z" fill="#436E8E"/>
<path d="M561.028 426.023C561.028 426.023 560.861 432.681 556.318 434.56C551.776 436.438 538.615 438.132 543.533 442.413C546.355 444.87 559.653 443.282 563.407 443.282C567.163 443.282 570.688 444.906 573.477 442.413C576.548 439.67 573.477 426.023 573.477 426.023C573.477 426.023 570.238 427.697 567.324 427.623C563.126 427.514 561.028 426.023 561.028 426.023Z" fill="#2F1A31"/>
<path d="M521.84 225.096C521.84 225.096 520.934 255.143 530.602 312.783C537.581 354.395 545.821 396.327 549.863 416.43C551.309 423.621 557.407 428.879 564.634 429.166L568.517 429.321C576.331 429.632 582.673 422.975 582.102 415.06L572.296 279.058L569.879 234.294L521.84 225.096Z" fill="#436E8E"/>
<path d="M574.628 258.026C574.535 261.651 552.433 263.091 525.098 262.245C497.763 261.399 475.918 257.65 476.013 254.025C476.106 250.399 498.101 248.271 525.437 249.118C552.772 249.963 574.722 254.401 574.628 258.026Z" fill="#2F1A31"/>
<path d="M567.936 155.395C567.936 155.395 563.103 136.395 527.44 136.201C476.01 135.923 480.771 182.794 476.013 254.026C476.013 254.026 526.671 246.92 574.653 257.135C574.653 257.135 579.104 184.429 567.936 155.395Z" fill="#96A7E2"/>
<path d="M581.695 159.281L557.808 165.453C557.808 165.453 506.806 170.046 493.266 167.834C479.727 165.622 476.013 155.762 476.013 155.762C476.013 155.762 490.433 140.962 514.943 137.011C517.245 136.637 519.634 136.363 522.11 136.203C526.267 135.937 530.409 136.26 534.5 136.447C576.192 138.356 581.695 159.281 581.695 159.281Z" fill="#96A7E2"/>
<path d="M532.342 131.852L529.65 123.235L528.867 120.726L524.26 105.975L523.654 120.648L523.291 129.456L523.176 132.244C523.098 134.135 521.935 134.534 520.52 136.179C519.945 136.845 516.276 140.885 520.441 142.71C525.629 144.984 535.329 141.541 539.016 137.031C538.988 137.024 533.213 134.638 532.342 131.852Z" fill="#F7B686"/>
<path d="M480.317 256.956C480.317 256.956 509.935 248.314 571.276 260.178L571.749 268.93L481.827 272.082L480.317 256.956Z" fill="#436E8E"/>
<path d="M582.647 161.545C582.837 165.238 576.942 168.597 569.481 169.048C562.02 169.499 555.818 166.871 555.627 163.179C555.438 159.487 561.332 156.127 568.793 155.676C576.254 155.225 582.456 157.853 582.647 161.545Z" fill="#2F1A31"/>
<path d="M512.403 100.437C512.403 100.437 511.464 104.007 512.403 108.484C513.343 112.961 517.934 101.957 517.934 101.957L512.403 100.437Z" fill="#56335B"/>
<path d="M511.858 109.774C513.003 101.119 519.798 94.8659 527.036 95.8083C534.274 96.7508 539.212 104.532 538.066 113.188C536.921 121.843 530.125 128.096 522.888 127.154C515.651 126.211 510.711 118.43 511.858 109.774Z" fill="#F7B686"/>
<path d="M538.396 108.662L531.999 108.003C530.592 107.859 529.306 107.109 528.544 105.927C527.234 103.892 525.657 102.848 519.688 103.07C512.131 103.351 507.142 98.8829 506.325 94.9605C505.492 90.9574 509.36 88.2442 513.155 90.1526C516.95 92.0614 515.321 87.3812 518.971 86.8842C525.791 85.9559 527.069 91.1708 532.654 91.0011C539.976 90.7787 553.092 96.2969 546.871 109.081L538.396 108.662Z" fill="#2F1A31"/>
<path d="M524.266 110.819C524.197 110.776 524.15 110.702 524.143 110.615C524.131 110.47 524.24 110.341 524.387 110.329C524.473 110.322 526.47 109.968 527.475 112.073C527.539 112.205 527.487 112.364 527.355 112.43C527.222 112.495 527.089 112.424 526.995 112.311C526.062 111.167 524.504 110.854 524.432 110.859C524.371 110.863 524.314 110.848 524.266 110.819Z" fill="#060633"/>
<path d="M525.428 114.228C525.259 114.84 524.761 115.237 524.313 115.116C523.866 114.995 523.639 114.401 523.807 113.789C523.976 113.177 524.475 112.779 524.922 112.901C525.37 113.022 525.597 113.616 525.428 114.228Z" fill="#060633"/>
<path d="M514.355 110.03C514.293 110.019 514.238 109.973 514.21 109.898C514.162 109.771 514.209 109.61 514.314 109.538C514.376 109.496 515.751 108.356 517.046 109.846C517.127 109.94 517.132 110.104 517.051 110.218C516.971 110.331 516.853 110.322 516.755 110.258C515.767 109.608 514.538 109.965 514.486 109.999C514.444 110.027 514.398 110.037 514.355 110.03Z" fill="#060633"/>
<path d="M516.798 112.754C516.878 113.383 516.569 113.94 516.108 113.997C515.649 114.054 515.211 113.59 515.131 112.961C515.052 112.332 515.36 111.775 515.821 111.718C516.281 111.66 516.719 112.124 516.798 112.754Z" fill="#060633"/>
<path d="M546.871 109.082C546.871 109.082 542.454 118.538 536.188 119.232C536.188 119.232 541.254 112.025 530.577 107.633C530.577 107.633 540.38 106.103 546.871 109.082Z" fill="#56335B"/>
<path d="M538.039 114.3C536.699 115.145 534.995 114.868 534.233 113.681C533.471 112.493 533.94 110.845 535.28 109.999C536.619 109.154 538.323 109.431 539.085 110.618C539.848 111.806 539.379 113.455 538.039 114.3Z" fill="#F7B686"/>
<path d="M515.651 118.781C515.651 118.781 519.771 119.887 524.272 119.454C524.272 119.454 523.612 123.588 519.057 122.765C516.408 122.286 515.651 118.781 515.651 118.781Z" fill="white"/>
<path d="M513.967 89.53C513.931 89.53 513.894 89.5296 513.857 89.5281L513.868 89.1706C515.62 89.2356 515.764 87.8416 515.769 87.7822L516.129 87.8158C516.128 87.833 515.948 89.53 513.967 89.53Z" fill="#2F1A31"/>
<path d="M517.547 100.969C517.526 100.963 515.469 100.364 513.398 99.2564C510.639 97.7811 509.106 96.0734 508.963 94.3179C508.864 93.096 509.08 92.2767 509.623 91.8118C510.489 91.0723 511.987 91.4193 513.309 91.7249C513.506 91.77 513.697 91.8144 513.882 91.8536L513.843 92.0282C513.658 91.9883 513.465 91.9439 513.269 91.8983C511.988 91.6025 510.538 91.2663 509.741 91.9472C509.244 92.3718 509.048 93.1423 509.144 94.3034C509.475 98.4086 517.515 100.773 517.597 100.797L517.547 100.969Z" fill="white"/>
<path d="M533.381 92.6423C530.463 92.6423 528.283 91.8889 526.87 91.1718C524.938 90.1913 524.004 89.094 523.965 89.0481L524.103 88.9336C524.112 88.9444 525.058 90.0529 526.96 91.0166C528.717 91.9061 531.671 92.8493 535.77 92.2997L535.794 92.4766C534.941 92.5919 534.136 92.6423 533.381 92.6423Z" fill="white"/>
<path d="M485.188 166.108L484.622 165.953C486.123 160.564 491.155 153.834 491.205 153.767L491.676 154.114C491.626 154.181 486.66 160.825 485.188 166.108Z" fill="#2F1A31"/>
<path d="M532.233 324.523C532.193 324.277 528.217 299.817 525.491 291.092C522.79 282.45 511.164 275.187 511.047 275.115L511.356 274.62C511.476 274.694 523.287 282.074 526.052 290.921C528.79 299.683 532.773 324.184 532.812 324.43L532.233 324.523Z" fill="#2F1A31"/>
<path d="M499.883 217.15C495.409 215.507 499.488 200.072 499.488 200.072C500.297 198.719 528.463 208.453 547.846 191.239C554.749 185.109 556.601 170.621 557.338 164.686C556.633 158.141 580.215 154.273 581.468 162.432C581.722 166.842 582.629 180.859 577.554 192.646C567.058 217.031 526.507 231.853 499.883 217.15Z" fill="#F7B686"/>
<path d="M492.696 211.415C492.559 212.566 491.497 213.398 490.337 213.262L472.318 211.154C471.157 211.019 470.32 209.966 470.457 208.814C470.593 207.663 471.655 206.832 472.816 206.968L490.834 209.075C491.995 209.211 492.832 210.263 492.696 211.415Z" fill="#F7B686"/>
<path d="M493.332 206.057C493.196 207.208 492.134 208.039 490.973 207.903L470.822 205.547C469.661 205.411 468.824 204.358 468.96 203.206C469.097 202.055 470.159 201.224 471.32 201.36L491.471 203.716C492.632 203.852 493.469 204.905 493.332 206.057Z" fill="#F7B686"/>
<path d="M503.992 205.841L503.455 206.37C502.452 207.358 500.816 207.351 499.821 206.356L490.125 196.661C489.131 195.666 489.137 194.043 490.141 193.056L490.678 192.528C491.681 191.541 493.316 191.548 494.312 192.542L504.007 202.238C505.002 203.232 504.995 204.855 503.992 205.841Z" fill="#F7B686"/>
<path d="M493.97 200.699C493.833 201.85 492.771 202.68 491.61 202.545L475.457 200.656C474.296 200.52 473.458 199.467 473.595 198.315C473.732 197.164 474.794 196.334 475.955 196.469L492.107 198.358C493.268 198.493 494.107 199.547 493.97 200.699Z" fill="#F7B686"/>
<path d="M502.526 216.252C502.526 216.252 491.404 221.094 483.799 217.049C481.167 215.649 483.479 199.924 486.638 198.828C489.796 197.731 500.581 200.062 500.581 200.062L502.526 216.252Z" fill="#F7B686"/>
<path d="M492.079 216.739C491.942 217.888 490.883 218.717 489.724 218.582L473.605 216.697C472.447 216.561 471.611 215.511 471.747 214.361C471.883 213.212 472.943 212.383 474.102 212.519L490.221 214.403C491.38 214.539 492.215 215.59 492.079 216.739Z" fill="#F7B686"/>
</svg>
