<svg width="82" height="279" viewBox="0 0 482 479" fill="none" xmlns="http://www.w3.org/2000/svg">
<path d="M448.579 460.922C451.945 459.873 454.009 457.981 454.884 455.143C457.72 445.957 446.917 430.356 446.807 430.199L448.337 429.073C448.807 429.745 459.826 445.657 456.7 455.792C455.641 459.223 453.11 461.584 449.179 462.81C447.58 463.309 445.971 463.564 444.354 463.641L444.692 461.624C446.023 461.541 447.322 461.316 448.579 460.922Z" fill="#514146"/>
<path d="M398.154 388.905C398.702 389.601 399.287 390.324 400.211 390.627C401.134 390.93 402.503 390.648 403.136 389.772C403.407 389.397 403.507 388.974 403.601 388.566C404.335 385.366 405.068 382.166 405.801 378.967C407.469 380.972 409.27 383.063 412.086 383.774C413.294 378.194 414.503 372.613 415.711 367.032C419.077 368.367 420.939 371.486 421.525 374.856C422.111 378.227 421.576 381.873 421.041 385.465C423.169 383.132 425.295 380.799 427.423 378.468C430.063 381.991 426.068 387.609 425.906 392.273C427.929 389.079 430.162 385.959 432.587 382.938C433.448 381.865 434.916 380.619 435.995 381.123C436.552 381.382 436.691 382.021 436.753 382.613C437.259 387.412 435.38 392.822 431.665 397.262C432.536 397.002 433.41 396.741 434.281 396.481C432.534 398.767 430.604 400.966 428.517 403.049C431.705 402.264 434.944 402.259 437.749 403.036C432.42 407.162 426.195 410.305 419.803 412.097L407.787 413.151C407.627 413.704 407.467 414.257 407.307 414.809C405.798 410.113 403.654 405.683 400.926 401.625C399.682 399.775 398.305 397.98 397.565 395.862C396.827 393.743 396.791 391.201 398.154 388.905Z" fill="#9B9B37"/>
<path d="M339.829 200.23C348.496 207.071 350.809 216.683 340.923 229.345L300.206 205.046C313.582 187.49 320.913 185.299 339.829 200.23Z" fill="#AF274E"/>
<path d="M339.829 200.23C341.649 201.667 343.168 203.233 344.375 204.918C338.527 209.982 327.96 212.984 315.929 212.258C314.435 212.168 312.975 212.004 311.536 211.808L300.206 205.046C313.582 187.49 320.913 185.299 339.829 200.23Z" fill="#D3375D"/>
<path d="M295.262 209.29C297.213 207.764 304.105 203.711 306.847 203.196C310.197 202.565 313.92 204.368 317.254 206.156C324.392 209.986 331.414 214.091 337.585 219.283C343.704 224.433 348.996 230.751 351.851 237.83C353.271 241.352 354.067 245.207 353.001 248.464C351.681 252.498 347.8 254.872 343.918 256.622C344.98 256.895 345.133 258.458 344.528 259.225C343.922 259.991 342.909 260.395 342.419 261.246C342.15 261.715 342.063 262.278 341.872 262.791C341.137 264.765 338.666 265.761 336.439 264.977C336.213 264.897 335.988 264.715 335.826 264.514C335.677 266.124 334.568 267.487 333.117 268.186C331.432 268.997 329.366 269.045 327.351 268.812C321.494 268.133 315.567 265.096 311.285 260.557L308.256 258.532C307.802 260.553 306.013 262.062 303.83 262.262C301.643 262.462 299.164 261.339 297.705 259.481C297.095 258.705 296.581 257.759 295.673 257.365C294.329 256.783 293.1 257.765 291.761 257.965C288.978 258.38 286.426 255.478 284.7 252.977C282.731 250.123 280.731 247.207 279.609 244.049C277.772 238.877 278.487 233.533 280.327 228.946C281.436 226.174 293.084 210.994 295.262 209.29Z" fill="#7C2D38"/>
<path d="M273.205 337.151C277.409 331.103 287.05 298.458 301.208 269.784L310.693 300.699C308.029 309.659 285.885 345.055 281.5 349.535C277.115 354.014 269 343.2 273.205 337.151Z" fill="#EDE0BC"/>
<path d="M293.977 308.615C298.893 298.119 302.456 288.154 304.393 280.163L310.693 300.7C308.029 309.661 285.885 345.057 281.5 349.536C278.573 352.527 273.086 348.487 271 343.673C277.435 338.231 286.298 325.012 293.977 308.615Z" fill="#DDCDA6"/>
<path d="M299.71 290.078C296.922 290.16 294.649 290.528 292.19 290.344C295.145 283.69 297.926 276.433 301.208 269.785L299.71 290.078Z" fill="#DDCDA6"/>
<path d="M365.653 441.579C384.858 443.493 459.773 477.947 459.773 477.947H324.889L365.653 441.579Z" fill="#4C7D93"/>
<path d="M310.12 303.282C318.065 337.737 328.677 351.135 325.36 376.976C324.735 381.852 294.281 413.905 276.092 458.54C272.26 467.943 278.899 477.946 288.995 477.946H328.167C340.338 477.946 346.685 470.938 352.208 459.98C366.641 431.34 397.727 377.322 395.858 365.19C393.322 348.743 367.809 334.386 363.876 322.902C359.942 311.418 350.971 274.512 334.875 266.377C318.778 258.242 310.12 303.282 310.12 303.282Z" fill="#6193AF"/>
<path d="M342.728 457.851C364.804 421.357 364.606 376.199 356.706 359.996C346.479 339.02 325.922 335.778 325.735 373.343C327.655 349.807 317.685 336.081 310.121 303.282C310.121 303.282 318.779 258.24 334.875 266.375C350.971 274.51 359.944 311.416 363.876 322.901C367.81 334.385 393.323 348.742 395.858 365.188C397.729 377.321 371.597 431.339 357.164 459.978C351.641 470.938 340.339 477.945 328.168 477.945H321.516C328.662 470.24 336.426 468.269 342.728 457.851Z" fill="#4C7D93"/>
<path d="M454.002 467.152C459.702 467.72 481.936 477.946 481.936 477.946H447.426L454.002 467.152Z" fill="#EDE0BC"/>
<path d="M408.101 408.11C409.011 408.637 409.971 409.178 411.073 409.227C412.175 409.277 413.448 408.651 413.669 407.645C413.764 407.215 413.658 406.783 413.554 406.367C412.732 403.103 411.909 399.84 411.087 396.578C413.797 398.069 416.687 399.606 419.943 399.557C418.436 393.885 416.929 388.212 415.422 382.541C419.552 382.946 423.012 385.455 425.279 388.538C427.546 391.622 428.794 395.261 430.014 398.849C431.057 396.056 432.1 393.262 433.143 390.469C437.606 393.164 436.256 399.598 438.391 404.117C438.902 400.524 439.667 396.947 440.678 393.415C441.037 392.161 441.936 390.584 443.297 390.786C444 390.889 444.458 391.467 444.814 392.018C447.703 396.493 448.434 402.176 446.794 407.407C447.565 406.93 448.337 406.452 449.108 405.976C448.433 408.626 447.528 411.239 446.402 413.782C449.302 412.198 452.642 411.35 455.918 411.364C452.457 416.714 447.587 421.352 441.877 424.737L430.003 428.878C430.112 429.45 430.219 430.023 430.327 430.595C426.454 426.48 422.056 422.785 417.239 419.601C415.041 418.149 412.737 416.786 410.929 414.943C409.119 413.1 407.83 410.67 408.101 408.11Z" fill="#B2B543"/>
<path d="M379.509 404.522C380.383 405.013 381.306 405.517 382.325 405.527C383.343 405.538 384.472 404.87 384.605 403.861C384.661 403.43 384.534 403.005 384.408 402.594C383.42 399.379 382.433 396.164 381.445 392.949C384.046 394.336 386.817 395.76 389.814 395.595C388.025 390.009 386.237 384.424 384.448 378.838C388.283 379.094 391.648 381.466 393.954 384.45C396.259 387.435 397.665 391.009 399.043 394.533C399.808 391.719 400.572 388.904 401.336 386.091C405.638 388.612 404.848 395.057 407.132 399.473C407.35 395.884 407.802 392.299 408.484 388.751C408.727 387.492 409.444 385.892 410.713 386.044C411.367 386.123 411.831 386.68 412.197 387.216C415.175 391.562 416.249 397.187 415.106 402.445C415.782 401.943 416.459 401.442 417.137 400.94C416.702 403.598 416.052 406.229 415.194 408.797C417.754 407.119 420.772 406.157 423.793 406.056C420.981 411.498 416.821 416.282 411.798 419.851L401.149 424.389C401.289 424.954 401.429 425.519 401.568 426.085C397.71 422.131 393.397 418.614 388.734 415.619C386.608 414.254 384.388 412.98 382.592 411.214C380.798 409.447 379.439 407.076 379.509 404.522Z" fill="#A5A53D"/>
<path d="M381.836 410.633L452.298 416.376L436.326 477.947H390.073L381.836 410.633Z" fill="#725D62"/>
<path d="M300.708 269.97C297.098 280.792 295.461 327.448 297.642 329.362C299.823 331.276 342.707 328.883 344.702 326.97C346.696 325.056 339.404 271.415 335.952 267.392C332.5 263.369 320.299 260.374 316.477 259.417C312.657 258.46 301.671 267.083 300.708 269.97Z" fill="#6193AF"/>
<path d="M321.122 287.232C312.76 289.133 304.772 290.064 297.795 290.112C298.494 281.38 299.488 273.626 300.708 269.968C301.67 267.082 312.655 258.458 316.477 259.416C320.298 260.373 332.499 263.368 335.951 267.391C336.973 268.583 338.333 274.142 339.688 281.405C334.152 283.694 327.869 285.699 321.122 287.232Z" fill="#4C7D93"/>
<path d="M333.106 325.124C332.647 322.643 322.194 282.304 331.28 264.244C333.276 265.197 334.971 266.252 335.952 267.393C339.404 271.416 349.541 327.975 347.547 329.888C345.552 331.802 299.823 331.277 297.642 329.363C297.573 329.302 297.508 329.196 297.446 329.049C310.977 328.764 333.501 327.255 333.106 325.124Z" fill="#4C7D93"/>
<path d="M354.264 321.263C357.811 318.734 354.438 290.378 343.428 275.837C341.219 272.919 338.36 273.437 335.565 271.662C331.471 269.065 331.431 302.473 339.883 318.338C341.917 322.159 351.097 323.523 354.264 321.263Z" fill="#366575"/>
<path d="M352.259 318.067C355.212 315.903 352.473 291.704 343.357 279.31C341.528 276.822 339.152 277.269 336.833 275.758C333.438 273.547 333.328 302.062 340.317 315.593C341.997 318.848 349.621 319.999 352.259 318.067Z" fill="#D3BE8C"/>
<path d="M305.686 264.65C309.411 261.666 315.047 257.73 317.319 258.3C319.964 258.963 325.781 261.719 330.775 264.001C324.608 279.65 330.266 303.464 328.677 305.356C326.666 307.748 303.855 307.907 302.465 306.313C301.36 305.043 301.426 279.241 305.686 264.65Z" fill="#EDE0BC"/>
<path d="M317.319 258.3C319.965 258.963 325.78 261.719 330.775 264.001C328.244 270.424 327.706 278.221 327.84 285.314C327.805 285.389 327.77 285.464 327.736 285.539C325.59 286.151 323.382 286.719 321.122 287.233C314.428 288.754 307.977 289.651 302.089 289.976C302.518 281.646 303.597 271.804 305.686 264.652C309.411 261.666 315.048 257.73 317.319 258.3Z" fill="#DDCDA6"/>
<path d="M301.182 345.413C305.785 338.791 318.59 303.569 334.09 272.178C338.695 266.558 351.031 278.641 344.961 300.27C342.198 310.117 318.471 355.083 313.671 359.988C308.872 364.894 296.578 352.035 301.182 345.413Z" fill="#EDE0BC"/>
<path d="M305.55 351.97C310.35 347.065 334.077 302.099 336.84 292.251C339.362 283.265 338.686 275.963 336.728 270.858C342.113 270.62 350.082 282.024 344.961 300.269C342.198 310.117 318.471 355.083 313.671 359.988C310.374 363.357 303.544 358.345 301.08 352.731C302.778 353.29 304.386 353.159 305.55 351.97Z" fill="#DDCDA6"/>
<path d="M324.997 261.359C324.7 239.717 315.598 224.962 315.598 224.962L306.386 231.183L308.989 262.287C309.307 271.539 317.958 273.252 324.997 261.359Z" fill="#D27558"/>
<path d="M298.588 258.935C319.064 249.412 325.211 241.327 327.178 229.163C329.144 217.001 320.163 198.347 310.746 198.24C301.329 198.133 294.08 205.508 290.856 223.815C288.362 237.971 298.588 258.935 298.588 258.935Z" fill="#EDB984"/>
<path d="M310.64 221.09C305.521 216.347 299.758 213.226 294.138 211.755C297.98 202.207 303.764 198.161 310.746 198.24C320.163 198.347 329.144 217 327.178 229.163C326.458 233.62 325.166 237.526 322.822 241.16C321.096 234.129 316.944 226.929 310.64 221.09Z" fill="#E79B69"/>
<path d="M241.145 372.244C255.037 368.34 279.392 352.757 283.53 347.183C287.667 341.608 281.571 330.979 275.931 335.297C269.987 339.85 241.429 369.228 240.302 370.825C239.174 372.421 241.145 372.244 241.145 372.244Z" fill="#EDB984"/>
<path d="M240.302 370.825C241.07 369.736 254.57 355.754 264.978 345.512C265.12 348.603 266.013 350.752 267.675 351.343C271.417 352.675 277.642 345.603 281.666 335.507C284.618 337.959 286.188 343.604 283.531 347.183C279.394 352.757 255.039 368.34 241.147 372.244C241.147 372.244 239.174 372.421 240.302 370.825Z" fill="#E79B69"/>
<path d="M263.566 387.397C278.835 383.81 306.028 368.002 310.79 362.131C315.551 356.259 309.448 344.394 303.116 348.826C296.442 353.499 264.021 384.126 262.72 385.81C261.418 387.497 263.566 387.397 263.566 387.397Z" fill="#EDB984"/>
<path d="M262.72 385.81C263.63 384.63 279.785 369.276 291.687 358.562C291.674 362.073 292.636 364.637 294.56 365.32C298.156 366.597 303.718 360.85 306.985 352.485C307.51 351.142 307.933 349.815 308.278 348.525C312.062 350.739 314.179 357.95 310.79 362.129C306.028 368.001 278.836 383.809 263.566 387.396C263.566 387.396 261.418 387.496 262.72 385.81Z" fill="#E79B69"/>
<path d="M262.588 366.831L257.892 342.602L226.157 377.354L227.874 378.728L262.588 366.831Z" fill="#513F43"/>
<path d="M289.365 382.888L286.797 356.89L249.343 392.986L251.513 394.627L289.365 382.888Z" fill="#513F43"/>
<path d="M303.85 335.503C317.962 331.515 322.286 350.178 322.286 350.178C322.286 350.178 317.989 362.779 308.648 364.91C309.99 356.74 305.442 350.055 298.522 352.533C299.357 342.951 303.85 335.503 303.85 335.503Z" fill="#AF274E"/>
<path d="M277.288 320.418C289.656 316.785 294.683 334.733 294.683 334.733C294.683 334.733 290.903 346.213 282.718 348.153C283.903 340.71 280.164 332.958 272.091 337.749C272.225 329.735 274.748 321.728 277.288 320.418Z" fill="#AF274E"/>
<path d="M312.301 202.953C313.589 201.391 315.781 201.604 317.538 202.286C321.363 203.769 324.579 206.843 327.363 210.226C329.349 212.638 331.205 215.322 332.086 218.505C333.776 224.603 331.62 231.174 329.495 237.116C329.495 237.116 320.245 234.518 318.586 227.423C315.96 216.194 310.639 208.298 311.269 205.396C311.461 204.508 311.755 203.616 312.301 202.953Z" fill="#7C2D38"/>
<path d="M329.939 213.732C310.023 197.918 299.089 203.292 295.112 209.518C295.112 209.518 272.14 181.41 288.658 177.525C313.103 171.775 329.939 213.732 329.939 213.732Z" fill="#EDE0BC"/>
<path d="M254.653 390.191C250.077 393.292 244.087 394.943 243.696 396.999C243.305 399.056 249.098 404.714 252.906 400.486C256.714 396.256 259.98 388.975 259.98 388.975L254.653 390.191Z" fill="#513F43"/>
<path d="M253.526 389.956C247.948 392.208 237.067 390.973 236.76 392.264C236.47 393.491 249.174 395.834 250.885 394.949C252.662 394.032 255.775 389.048 253.526 389.956Z" fill="#513F43"/>
<path d="M250.03 391.335C243.691 399.025 234.693 399.884 234.248 400.832C233.804 401.779 241.049 402.13 245.822 398.63C250.597 395.132 250.03 391.335 250.03 391.335Z" fill="#513F43"/>
<path d="M252.334 392.836C246.846 401.093 236.782 403.767 236.383 404.956C235.989 406.13 244.006 404.597 248.278 400.443C252.152 396.676 252.334 392.836 252.334 392.836Z" fill="#513F43"/>
<path d="M255.719 394.349C249.477 403.099 241.766 405.448 241.589 406.208C241.417 406.937 247.042 405.934 250.909 402.445C255.411 398.382 255.719 394.349 255.719 394.349Z" fill="#513F43"/>
<path d="M231.669 372.352C227.093 375.453 221.103 377.104 220.712 379.161C220.321 381.217 226.114 386.875 229.922 382.647C233.73 378.417 236.996 371.136 236.996 371.136L231.669 372.352Z" fill="#513F43"/>
<path d="M230.543 372.118C224.965 374.371 214.084 373.136 213.778 374.427C213.487 375.654 226.191 377.996 227.903 377.112C229.679 376.194 232.791 371.209 230.543 372.118Z" fill="#513F43"/>
<path d="M227.047 373.499C220.708 381.188 211.71 382.047 211.266 382.995C210.821 383.944 218.067 384.293 222.841 380.793C227.615 377.295 227.047 373.499 227.047 373.499Z" fill="#513F43"/>
<path d="M229.352 374.999C223.863 383.256 213.799 385.93 213.4 387.119C213.007 388.293 221.023 386.76 225.296 382.606C229.169 378.84 229.352 374.999 229.352 374.999Z" fill="#513F43"/>
<path d="M232.736 376.51C226.493 385.26 218.783 387.609 218.605 388.367C218.434 389.096 224.059 388.094 227.926 384.605C232.428 380.543 232.736 376.51 232.736 376.51Z" fill="#513F43"/>
<path d="M384.957 414.421L435.725 418.594C434.249 447.838 411.401 470.93 394.792 472.921C393.873 473.031 392.96 473.054 392.05 473.025L384.957 414.421Z" fill="#89767C"/>
<path d="M393.871 460.157L388.781 418.103L397.229 418.797C397.647 421.614 397.979 424.573 398.185 427.654C399.156 442.114 397.311 454.728 393.871 460.157Z" fill="#BCA6AE"/>
<path d="M442.366 441.471C446.11 432.962 448.701 424.429 450.214 416.204L452.298 416.373L436.326 477.945H416.824C426.794 468.839 435.828 456.325 442.366 441.471Z" fill="#826C72"/>
<path d="M390.484 418.707C390.558 416.608 392.331 414.906 394.444 414.906C396.557 414.906 398.21 416.608 398.137 418.707C398.063 420.805 396.29 422.507 394.177 422.507C392.064 422.507 390.411 420.805 390.484 418.707Z" fill="#514146"/>
<path d="M393.124 417.588L394.728 416.58C412.739 446.446 430.672 462.508 444.691 461.626L444.354 463.642C444.234 463.648 444.117 463.673 443.999 463.677C424.416 464.245 404.043 435.694 393.124 417.588Z" fill="#514146"/>
<path d="M392.206 418.707C392.247 417.552 393.221 416.617 394.384 416.617C395.546 416.617 396.455 417.552 396.415 418.707C396.375 419.861 395.4 420.797 394.238 420.797C393.075 420.797 392.166 419.861 392.206 418.707Z" fill="#89767C"/>
<path d="M327.597 262.543L324.827 257.158L314.064 269.916L319.325 277.279L327.597 262.543Z" fill="#AF274E"/>
<path d="M307.1 275.888L315.411 269.096L308.552 260.343L306.795 263.452L307.1 275.888Z" fill="#AF274E"/>
<path d="M334.09 272.177C336.804 268.866 342.18 271.74 344.915 279.054C339.931 281.496 334.112 283.719 327.737 285.538C327.771 285.463 327.805 285.388 327.84 285.313C329.863 280.919 331.95 276.512 334.09 272.177Z" fill="#DDCDA6"/>
<path d="M279.771 337.023C284.229 334.587 287.426 329.494 287.632 323.589C287.642 323.323 287.628 323.064 287.626 322.801C292.542 327.104 294.682 334.733 294.682 334.733C294.682 334.733 290.902 346.213 282.717 348.153C283.439 343.615 282.413 339.794 279.771 337.023Z" fill="#931F46"/>
<path d="M304.642 352.502C308.467 349.704 311.902 345.253 314.063 339.756C314.357 339.005 314.616 338.254 314.85 337.506C320.349 341.843 322.287 350.179 322.287 350.179C322.287 350.179 319.704 363.928 307.459 365.205C308.351 359.771 308.211 355.338 304.642 352.502Z" fill="#931F46"/>
<path d="M330.274 401.681C319.598 418.757 301.009 452.766 304.37 477.946H296.861C297.713 444.265 317.203 415.137 328.839 400.676C329.532 399.813 330.862 400.743 330.274 401.681Z" fill="#4C7D93"/>
<path d="M327.283 404.313L346.064 394.567L331.153 397.61L318.056 395.062L327.283 404.313Z" fill="#4C7D93"/>
<path d="M309.678 225.142C310.024 222.849 311.017 221.16 311.897 221.379C312.775 221.598 313.201 223.637 312.848 225.926C312.497 228.202 311.509 229.868 310.637 229.653C309.764 229.44 309.334 227.424 309.678 225.142Z" fill="#5A4949"/>
<path d="M293.129 221.048C293.437 218.732 294.409 217.025 295.3 217.247C296.189 217.468 296.652 219.53 296.338 221.842C296.024 224.143 295.056 225.825 294.174 225.609C293.29 225.391 292.821 223.353 293.129 221.048Z" fill="#5A4949"/>
<path d="M308.61 211.884L315.484 215.266C316.324 215.679 316.808 216.791 316.564 217.748L316.083 219.639C315.842 220.591 314.969 221.03 314.133 220.622L307.29 217.281C306.447 216.869 305.949 215.756 306.183 214.795L306.646 212.881C306.882 211.914 307.762 211.467 308.61 211.884Z" fill="#7C2D38"/>
<path d="M293.629 210.287L299.032 209.193C299.696 209.059 300.281 209.769 300.338 210.777L300.451 212.772C300.507 213.775 300.017 214.694 299.357 214.828L293.985 215.914C293.325 216.047 292.738 215.347 292.674 214.346L292.545 212.356C292.48 211.349 292.965 210.423 293.629 210.287Z" fill="#7C2D38"/>
<path d="M291.466 217.98L301.031 220.286L299.686 229.92C299.351 232.318 297.287 233.83 295.069 233.306L293.677 232.977C291.453 232.452 289.901 230.08 290.211 227.669L291.466 217.98Z" fill="#FAF0DB"/>
<path d="M303.67 221.535L314.931 224.285L313.451 233.898C313.091 236.232 311.191 237.732 309.203 237.257L305.312 236.326C303.315 235.849 301.963 233.565 302.296 231.213L303.67 221.535Z" fill="#FAF0DB"/>
<path d="M331.958 227.968L332.154 230.502L291.303 220.426L291.62 217.975L331.958 227.968Z" fill="#FAF0DB"/>
<path d="M292.093 220.194L299.004 221.854L298.046 228.824C297.808 230.565 296.311 231.662 294.703 231.282L293.692 231.043C292.08 230.662 290.956 228.941 291.184 227.193L292.093 220.194Z" fill="#EDB984"/>
<path d="M305.227 223.479L312.981 225.347L311.93 232.255C311.667 233.98 309.994 235.027 308.187 234.6L307.053 234.331C305.244 233.903 303.978 232.154 304.227 230.421L305.227 223.479Z" fill="#EDB984"/>
<path d="M310.433 229.276C309.56 229.061 309.129 227.045 309.47 224.762C309.489 224.638 309.527 224.54 309.549 224.419L312.669 225.175C312.654 225.303 312.661 225.417 312.641 225.546C312.294 227.824 311.306 229.49 310.433 229.276Z" fill="#5A4949"/>
<path d="M293.959 225.228C293.076 225.01 292.606 222.973 292.911 220.665C292.924 220.57 292.952 220.494 292.967 220.402L296.138 221.17C296.127 221.269 296.135 221.359 296.122 221.46C295.809 223.761 294.842 225.444 293.959 225.228Z" fill="#5A4949"/>
<path d="M301.764 225.789C301.764 225.789 301.888 226.264 302.033 226.993C300.038 229.627 297.427 234.343 301.874 235.025C301.819 235.15 301.791 235.296 301.727 235.413C293.915 235.551 300.207 227.33 301.764 225.789Z" fill="#D27558"/>
<path d="M296.708 239.627L307.993 241.49C307.993 241.49 305.528 249.087 300.963 247.684C296.399 246.281 296.708 239.627 296.708 239.627Z" fill="#2D171A"/>
<path d="M305.848 243.99C306.573 242.759 306.95 241.603 306.95 241.603L297.541 240.05C297.541 240.05 297.462 241.773 298.05 243.501L305.848 243.99Z" fill="#FAF0DB"/>
<path d="M323.544 229.902C326.553 225.898 330.749 224.057 332.917 225.79C335.085 227.525 334.402 232.177 331.393 236.182C328.385 240.186 324.188 242.026 322.021 240.293C319.853 238.558 320.536 233.906 323.544 229.902Z" fill="#EDB984"/>
<path d="M325.194 231.222C326.939 228.901 329.37 227.833 330.626 228.839C331.882 229.844 331.487 232.541 329.743 234.862C327.998 237.183 325.566 238.25 324.31 237.245C323.054 236.239 323.449 233.543 325.194 231.222Z" fill="#D27558"/>
<path d="M323.722 234.568C324.863 233.05 326.566 232.44 327.525 233.208C328.484 233.976 328.336 235.83 327.195 237.348C326.055 238.866 324.351 239.476 323.393 238.708C322.434 237.94 322.581 236.087 323.722 234.568Z" fill="#EDB984"/>
<path d="M175.279 252.202C172.357 250.905 171.667 252.328 171.357 254.369C171.051 256.39 171.235 258.268 174.094 259.631C177.023 261.026 180.446 260.083 180.804 258.008C181.167 255.914 178.272 253.531 175.279 252.202Z" fill="#EDB984"/>
<path d="M179.683 246.604C175.791 244.426 174.467 245.616 173.548 247.53C172.638 249.427 172.462 251.334 176.247 253.564C180.131 255.85 184.157 256.19 185.158 254.25C186.168 252.293 183.679 248.837 179.683 246.604Z" fill="#EDB984"/>
<path d="M183.537 238.351C179.746 236.324 178.394 237.613 177.42 239.624C176.456 241.616 176.222 243.579 179.904 245.661C183.679 247.794 187.656 247.927 188.711 245.891C189.775 243.836 187.423 240.431 183.537 238.351Z" fill="#EDB984"/>
<path d="M187.499 226.26C186.812 225.711 182.478 226.021 176.033 224.284C171.511 223.065 166.975 227.82 168.137 232.999C171.522 234.811 186.133 234.273 187.939 232.686C189.913 230.953 188.996 227.456 187.499 226.26Z" fill="#EDB984"/>
<path d="M214.908 184.748C212.754 182.334 210.835 182.529 201.094 178.876C197.485 177.523 193.487 178.978 191.466 182.322L189.075 186.281C187.322 189.182 186.558 195.635 189.25 199.383C192.077 203.316 196.405 203.906 200.257 205.147C210.353 208.398 217.569 187.731 214.908 184.748Z" fill="#E79B69"/>
<path d="M202.287 171.562C199.648 168.753 193.31 170.645 188.284 175.562C183.453 180.287 176.542 184.322 178.785 186.998C181.06 189.713 192.159 190.339 197.302 185.688C202.662 180.842 204.969 174.416 202.287 171.562Z" fill="#EDB984"/>
<path d="M214.393 304.732H206.581L181.532 443.315H189.343L214.393 304.732Z" fill="#665252"/>
<path d="M184.545 426.642L181.532 443.314H189.343L191.828 429.564L184.545 426.642Z" fill="#564141"/>
<path d="M210.115 328.397L214.393 304.732H206.581L202.832 325.475L210.115 328.397Z" fill="#473535"/>
<path d="M157.104 437.668L213.414 441.105L203.45 476.152L153.081 472.024L157.104 437.668Z" fill="#97B9BA"/>
<path d="M177.87 438.936C176.875 448.322 178.73 455.971 182.368 456.555C186.189 457.17 190.572 449.77 192.42 439.823L177.87 438.936Z" fill="#A8CCCC"/>
<path d="M106.173 134.117C136.037 162.64 141.219 168.029 153.166 172.989C165.112 177.949 155.853 209.571 146.595 210.502C137.338 211.432 109.022 201.439 99.0853 184.83C89.15 168.221 106.173 134.117 106.173 134.117Z" fill="#D3375D"/>
<path d="M152.543 188.319C114.024 178.866 112.597 151.99 102.342 143.019C98.0008 154.283 92.3489 173.571 99.0853 184.831C109.021 201.441 137.338 211.433 146.595 210.503C153.032 209.856 159.459 194.384 158.772 183.34C156.876 186.187 154.66 188.838 152.543 188.319Z" fill="#B72757"/>
<path d="M66.5959 87.3646C62.6218 74.2522 65.5876 67.7739 70.9677 64.9978C76.3477 62.2218 85.963 58.0564 91.0766 60.525C96.1902 62.9937 101.495 79.2768 101.495 79.2768L66.5959 87.3646Z" fill="#E5CF9A"/>
<path d="M91.0769 60.5228C86.2779 58.2071 77.5169 61.7309 72.0096 64.468C71.9548 70.9088 77.9789 78.2047 87.1831 82.0574C87.4737 82.1795 87.7642 82.2774 88.0561 82.3889L101.494 79.2745C101.494 79.2745 96.1918 62.9914 91.0769 60.5228Z" fill="#F4E2BA"/>
<path d="M112.052 85.2199C113.153 79.4598 110.95 74.1976 107.134 73.4646C103.318 72.7317 99.3319 76.8072 98.2326 82.5674C97.132 88.3275 99.3347 93.5897 103.151 94.3227C106.967 95.0556 110.953 90.9801 112.052 85.2199Z" fill="#C65638"/>
<path d="M84.0913 79.0291C82.052 78.8989 80.0623 79.5943 78.0993 80.1366C74.8121 81.0467 71.3856 81.5528 67.9565 81.636C64.6518 81.7166 60.6175 81.7353 58.9558 84.2644C57.4668 86.5303 58.9464 89.2755 59.7404 91.7616C59.8784 92.1939 59.9935 92.661 59.8208 93.0879C59.3374 94.2772 57.1375 94.2477 56.5148 95.3874C55.8172 96.6654 57.7025 97.8869 57.8096 99.2884C57.8498 99.8133 57.6315 100.33 57.5873 100.856C57.4614 102.344 58.7777 103.669 60.3349 104.243C61.8922 104.818 63.6503 104.804 65.3521 104.783C63.989 107.79 65.0709 111.303 67.3405 113.794C69.6088 116.286 72.896 117.903 76.2555 119.148L80.6836 108.779C82.8621 105.153 85.0419 101.526 87.2205 97.9004C89.2571 94.5108 91.3473 90.9428 91.3312 87.1425C91.3178 83.3422 88.4149 79.3056 84.0913 79.0291Z" fill="#C65638"/>
<path d="M113.184 145.355C112.237 135.42 101.124 129.311 89.5266 125.591C77.9296 121.871 58.6789 129.311 50.7936 135.589C31.717 150.777 9.81514 197.454 14.9167 259.305L103.23 255.581C95.5963 219.085 115.617 170.909 113.184 145.355Z" fill="#664956"/>
<path d="M64.853 211.703C76.2974 173.522 72.6111 139.022 62.2821 129.177C57.6224 131.117 53.5211 133.419 50.7936 135.59C31.717 150.778 9.81514 197.455 14.9167 259.306L49.1493 261.557C55.5738 245.813 59.3779 229.968 64.853 211.703Z" fill="#563B49"/>
<path d="M89.5259 125.591C77.9289 121.871 58.6782 129.311 50.7929 135.589C47.3437 138.336 43.8033 142.125 40.3447 146.834C43.1379 147.568 46.3515 148.107 50.0926 148.395C53.882 148.669 57.7316 148.867 61.6481 148.958C80.4649 149.398 98.07 147.605 112.988 144.144C111.284 134.926 100.64 129.156 89.5259 125.591Z" fill="#593D4B"/>
<path d="M102.547 475.768C112.787 438.447 135.387 359.256 134.985 350.831C134.584 342.406 100.196 247.126 100.196 247.126L28.6318 244.765C28.6318 244.765 64.0281 310.699 92.4535 353.153C96.4718 387.565 92.653 434.963 102.547 475.768Z" fill="#664956"/>
<path d="M28.6318 244.765C28.6318 244.765 61.8067 311.335 90.2321 353.788C94.1781 387.579 92.8699 433.645 102.061 473.573C108.503 425.21 112.097 354.211 111.17 346.473C110.15 337.944 83.584 265.995 75.9544 246.326L28.6318 244.765Z" fill="#563B49"/>
<path d="M328.262 478.559H196.524C196.524 478.559 266.174 458.696 277.391 456.392C288.608 454.088 328.262 478.559 328.262 478.559Z" fill="#894434"/>
<path d="M4.17505 475.768C26.4411 444.145 71.2813 376.404 73.7544 368.343C76.2289 360.282 79.6299 299.052 79.6299 299.052L92.4521 286.124L85.1961 248.207L15.2017 233.813C12.7567 259.058 16.0037 318.838 30.6161 366.482C22.7482 400.219 8.67941 434.019 4.17505 475.768Z" fill="#664956"/>
<path d="M5.33065 474.12C14.2403 436.137 41.2196 398.704 48.3564 368.101C48.959 337.963 48.2359 278.507 55.3352 243.426C61.6137 212.404 15.1642 212.953 14.3019 233.634C11.8569 258.879 13.4409 319.183 28.0533 366.827C20.1867 400.564 8.67941 434.017 4.17505 475.765C4.54863 475.237 4.94502 474.671 5.33065 474.12Z" fill="#563B49"/>
<path d="M19.9456 224.879C18.7084 235.164 45.4588 246.968 51.2566 236.738C57.0545 226.506 70.2756 175.817 68.6514 158.378C68.0422 151.83 61.3205 140.428 55.8949 140.707C33.2432 141.868 23.8889 192.092 19.9456 224.879Z" fill="#A52053"/>
<path d="M77.0014 159.54C77.9293 169.77 72.2078 188.218 77.4647 189.768C82.7216 191.318 99.6531 188.528 102.745 184.188C104.437 181.812 108.136 167.754 109.382 154.322C110.635 140.81 102.442 128.194 89.553 124.049C89.466 124.02 89.3804 123.992 89.292 123.965C80.5953 121.175 66.805 125.733 59.0857 130.594C70.3466 138.316 76.2998 151.807 77.0014 159.54Z" fill="#D3375D"/>
<path d="M108.798 145.299C106.626 135.495 99.499 127.247 89.5543 124.048C89.4673 124.02 89.3816 123.993 89.2932 123.965C80.5965 121.175 66.8062 125.733 59.0869 130.594C66.138 135.43 71.1071 142.53 74.01 149.061C75.9234 149.155 77.8663 149.208 79.8413 149.208C90.6951 149.207 100.715 147.753 108.798 145.299Z" fill="#B72757"/>
<path d="M71.0791 125.026C73.7544 113.036 78.0138 95.5864 78.0138 95.5864L102.282 101.642L99.1163 131.638C89.6148 138.803 80.2498 137.707 71.0791 125.026Z" fill="#D27558"/>
<path d="M67.1173 147.401C93.3187 183.134 106.597 199.223 118.837 206.97C131.077 214.717 114.342 243.225 103.881 241.868C93.4191 240.511 59.3794 217.992 49.2553 200.345C23.4984 155.454 53.1477 128.35 67.1173 147.401Z" fill="#D3375D"/>
<path d="M114.002 218.465C103.54 217.108 69.5006 194.589 59.3764 176.942C52.0187 164.118 49.1948 152.755 49.2229 143.497C38.9742 150.245 30.1141 172.679 46.5797 201.376C56.7038 219.023 93.4176 240.51 103.88 241.868C112.145 242.941 124.309 225.384 123.029 214.138C120.018 217.057 116.788 218.826 114.002 218.465Z" fill="#B72757"/>
<path d="M27.136 478.559H0C0 478.559 1.43004 467.103 6.26246 466.468C11.0949 465.833 27.136 478.559 27.136 478.559Z" fill="#F4E8D3"/>
<path d="M124.084 478.559H96.9485C96.9485 478.559 98.3785 467.103 103.211 466.468C108.043 465.833 124.084 478.559 124.084 478.559Z" fill="#F4E8D3"/>
<path d="M242.757 478.559H111.019C111.019 478.559 156.787 446.316 166.682 443.836C176.578 441.355 242.757 478.559 242.757 478.559Z" fill="#A8604C"/>
<path d="M164.746 195.366C167.606 183.745 162.086 172.692 152.42 170.68C142.753 168.668 132.552 174.122 129.223 187.971C125.895 201.821 132.396 210.751 142.063 212.765C151.731 214.777 161.885 206.989 164.746 195.366Z" fill="#E5D2A3"/>
<path d="M132.78 179.337C135.226 183.244 139.107 185.803 143.729 186.765C150.712 188.218 157.934 184.543 162.492 178.018C160.206 174.278 156.729 171.577 152.419 170.679C145.108 169.158 137.497 171.915 132.78 179.337Z" fill="#EFE5C7"/>
<path d="M144.258 210.487C166.872 213.252 194.774 205.037 197.461 203.176C200.148 201.316 204.18 181.552 199.925 179.691C195.669 177.83 163.093 175.373 154.157 173.491C134.859 169.426 126.292 208.291 144.258 210.487Z" fill="#EDB984"/>
<path d="M183 203.355C160.324 203.355 141.943 191.718 141.943 177.363C141.943 177.321 141.952 177.282 141.952 177.241C132.235 186.554 130.779 208.839 144.258 210.488C166.872 213.253 194.774 205.038 197.461 203.177C197.841 202.914 198.247 202.265 198.654 201.388C193.828 202.649 188.546 203.355 183 203.355Z" fill="#E79B69"/>
<path d="M126.701 354.958C151.913 315.344 170.421 272.011 188.009 228.597C205.535 185.334 222.27 141.572 244.344 100.368C256.658 77.3846 270.673 55.2983 287.072 35.0149C287.733 34.1974 284.343 34.5437 283.629 35.427C254.305 71.697 231.011 113.193 212.533 155.835C193.89 198.859 177.906 243.006 158.397 285.657C147.474 309.54 135.416 332.931 121.31 355.095C120.719 356.023 125.845 356.301 126.701 354.958Z" fill="#894434"/>
<path d="M211.775 169.363C236.405 137.206 271.132 112.467 308.631 97.2911C319.206 93.0115 330.089 89.5549 341.192 86.9466C341.923 86.7748 343.385 86.3345 342.958 85.3572C342.57 84.4686 340.075 84.8565 339.466 85.0002C299.019 94.5016 261.287 114.966 231.245 143.74C222.745 151.881 214.897 160.685 207.739 170.031C207.052 170.929 209.485 171.152 209.832 171.153C210.942 171.156 211.056 170.302 211.775 169.363Z" fill="#894434"/>
<path d="M266.506 118.443C280.272 98.3786 298.537 81.6283 319.794 69.8193C322.98 68.0487 319.855 66.9184 317.756 68.085C295.819 80.2712 277.744 98.1773 263.525 118.901C261.918 121.242 265.324 120.167 266.506 118.443Z" fill="#894434"/>
<path d="M246.475 95.6907C264.377 70.2511 287.324 53.2458 312.167 37.0673C319.191 32.4924 326.511 27.9847 333.612 23.532C336.7 21.5963 333.947 20.6875 331.692 22.101C306.18 38.0982 280.496 54.2982 258.856 75.469C252.733 81.4587 241.811 96.5364 242.776 96.8169C244.093 97.2022 245.61 96.7351 246.475 95.6907Z" fill="#894434"/>
<path d="M263.039 67.4503C265.897 46.7278 268.307 27.0686 270.342 7.9033C270.651 4.993 266.849 0.799378 266.823 3.34857C266.629 23.0213 266.926 41.0992 259.634 68.2423C258.876 71.0626 262.687 69.9874 263.039 67.4503Z" fill="#894434"/>
<path d="M223.48 137.018C222.673 122.309 219.704 109.496 222.129 94.8614C224.436 80.9328 233.77 68.501 240.926 56.5188C241.579 55.4248 239.042 54.908 238.387 56.0034C231.078 68.2432 221.398 81.5504 219.237 95.8213C217.014 110.5 218.736 125.603 219.545 140.338C219.653 142.331 223.48 137.018 223.48 137.018Z" fill="#894434"/>
<path d="M223.066 88.262C222.094 76.2919 221.934 65.2763 218.178 53.8727C217.767 52.623 215.148 52.0041 215.553 53.2378C219.309 64.6414 219.842 77.8505 220.814 89.8192C221.01 92.2167 223.066 88.262 223.066 88.262Z" fill="#894434"/>
<path d="M300.768 100.596C311.72 102.17 325.567 101.799 335.244 107.692C336.273 108.318 338.951 107.724 337.888 107.077C327.601 100.815 314.961 99.9788 303.322 98.3062C302.242 98.1505 300.378 98.2982 299.59 99.1707C298.772 100.074 299.999 100.485 300.768 100.596Z" fill="#894434"/>
<path d="M298.174 115.676C297.644 114.119 297.099 112.49 295.929 111.337C294.224 109.658 291.592 109.377 289.208 109.554C286.82 109.732 284.273 110.384 282.764 112.249C282.548 112.514 282.353 112.814 282.301 113.152C282.26 113.406 282.303 113.663 282.353 113.916C282.722 115.783 283.574 117.64 285.103 118.77C286.097 119.506 287.311 119.887 288.528 120.096C291.39 120.588 294.4 120.17 297.02 118.918L299.053 117.63C298.646 117.04 298.406 116.354 298.174 115.676Z" fill="#1FB57A"/>
<path d="M231.545 94.2067C230.406 93.9543 229.218 93.6858 228.087 93.9731C226.44 94.3919 225.299 95.8914 224.526 97.4096C223.752 98.9305 223.207 100.723 223.78 102.331C223.862 102.56 223.972 102.79 224.157 102.947C224.296 103.065 224.467 103.135 224.639 103.197C225.908 103.661 227.346 103.826 228.595 103.313C229.408 102.979 230.087 102.38 230.663 101.716C232.017 100.153 232.875 98.1653 233.082 96.1075L233.052 94.3933C232.545 94.4228 232.042 94.3168 231.545 94.2067Z" fill="#1FB57A"/>
<path d="M323.281 74.6633C321.883 75.2472 320.424 75.8486 319.215 76.9816C317.455 78.6327 316.635 81.0249 316.247 83.1619C315.857 85.303 315.822 87.5569 317.015 88.7906C317.185 88.9664 317.388 89.1221 317.654 89.1476C317.854 89.1664 318.074 89.1101 318.293 89.0483C319.909 88.5879 321.624 87.6952 322.895 86.2401C323.721 85.2937 324.306 84.1741 324.751 83.0626C325.795 80.449 326.127 77.7629 325.685 75.4848L325.083 73.7397C324.507 74.1465 323.89 74.4096 323.281 74.6633Z" fill="#1FB57A"/>
<path d="M334.748 76.5783C333.666 76.7004 332.538 76.8226 331.476 77.3636C329.93 78.1502 328.887 79.6376 328.191 81.0377C327.494 82.4392 327.019 83.9882 327.597 85.0809C327.68 85.2367 327.788 85.3857 327.967 85.4555C328.101 85.5078 328.266 85.5146 328.428 85.5159C329.637 85.5226 330.998 85.2501 332.167 84.4997C332.926 84.0124 333.555 83.356 334.083 82.6768C335.327 81.0807 336.093 79.2926 336.243 77.6294L336.176 76.3018C335.697 76.4669 335.218 76.5246 334.748 76.5783Z" fill="#1FB57A"/>
<path d="M304.877 88.1455C304.003 87.52 303.095 86.8622 301.981 86.6058C300.36 86.2312 298.686 86.7937 297.323 87.5146C295.957 88.2368 294.666 89.2355 294.432 90.5551C294.398 90.743 294.389 90.9431 294.477 91.123C294.544 91.2585 294.662 91.3739 294.783 91.4853C295.672 92.3069 296.846 92.9942 298.165 93.1446C299.022 93.2426 299.884 93.1083 300.688 92.8868C302.576 92.3686 304.227 91.3618 305.346 90.049L306.101 88.8744C305.647 88.6918 305.258 88.418 304.877 88.1455Z" fill="#1FB57A"/>
<path d="M290.601 43.7773C289.727 43.1518 288.819 42.494 287.706 42.2376C286.085 41.8631 284.411 42.4255 283.048 43.1464C281.682 43.8686 280.393 44.8673 280.157 46.1869C280.124 46.3748 280.114 46.5748 280.203 46.7547C280.269 46.8903 280.387 47.0058 280.508 47.1172C281.397 47.9387 282.571 48.626 283.89 48.7764C284.747 48.8744 285.609 48.7401 286.413 48.5186C288.301 48.0005 289.952 46.995 291.071 45.6808L291.826 44.5062C291.371 44.325 290.983 44.0512 290.601 43.7773Z" fill="#1FB57A"/>
<path d="M266.012 92.5187C265.325 93.8718 264.604 95.2773 264.416 96.927C264.143 99.3286 265.067 101.682 266.153 103.562C267.241 105.446 268.671 107.184 270.379 107.348C270.622 107.371 270.877 107.359 271.095 107.204C271.258 107.089 271.391 106.902 271.517 106.713C272.45 105.312 273.177 103.517 273.204 101.584C273.221 100.326 272.941 99.0937 272.561 97.958C271.667 95.2893 270.182 93.0287 268.371 91.583L266.785 90.646C266.611 91.3293 266.311 91.9293 266.012 92.5187Z" fill="#1FB57A"/>
<path d="M275.98 86.524C275.235 87.32 274.456 88.1469 273.997 89.2477C273.329 90.8518 273.496 92.6627 273.871 94.1796C274.247 95.6992 274.887 97.1879 276.033 97.643C276.197 97.7074 276.375 97.7504 276.557 97.6886C276.693 97.6416 276.822 97.5396 276.947 97.4349C277.87 96.6549 278.731 95.561 279.137 94.2306C279.4 93.3661 279.454 92.4573 279.418 91.5968C279.333 89.5739 278.759 87.7147 277.798 86.3508L276.889 85.3843C276.632 85.8219 276.305 86.1776 275.98 86.524Z" fill="#1FB57A"/>
<path d="M211.113 80.7026C211.005 81.7886 210.886 82.9202 211.188 84.0746C211.629 85.7567 212.86 87.0923 214.077 88.0696C215.296 89.0482 216.706 89.8403 217.894 89.5047C218.064 89.4563 218.23 89.3825 218.337 89.2214C218.418 89.1019 218.458 88.9422 218.493 88.7824C218.754 87.5998 218.775 86.2064 218.29 84.9029C217.976 84.0559 217.468 83.3015 216.918 82.6397C215.624 81.0838 214.042 79.9562 212.452 79.4595L211.144 79.2461C211.206 79.7481 211.162 80.2301 211.113 80.7026Z" fill="#1FB57A"/>
<path d="M227.531 49.1953C226.768 50.3336 225.967 51.5176 225.619 52.9767C225.113 55.1017 225.685 57.3153 226.456 59.1222C227.227 60.9317 228.322 62.6486 229.835 62.9816C230.051 63.0299 230.281 63.046 230.494 62.9319C230.653 62.846 230.793 62.693 230.927 62.5372C231.916 61.3814 232.765 59.8511 232.999 58.1181C233.152 56.9918 233.036 55.8548 232.817 54.7943C232.304 52.3015 231.219 50.1107 229.752 48.614L228.429 47.5991C228.198 48.1925 227.863 48.6986 227.531 49.1953Z" fill="#1FB57A"/>
<path d="M237.13 44.9061C236.375 45.5397 235.585 46.1962 235.053 47.1345C234.279 48.501 234.233 50.1454 234.404 51.5469C234.575 52.9524 234.989 54.3579 235.968 54.8921C236.107 54.9687 236.262 55.0264 236.433 54.9901C236.56 54.9633 236.687 54.8854 236.81 54.8049C237.725 54.2048 238.616 53.3189 239.125 52.1684C239.456 51.4207 239.603 50.6126 239.663 49.8354C239.808 48.0097 239.495 46.278 238.781 44.9504L238.07 43.9839C237.79 44.3477 237.458 44.6296 237.13 44.9061Z" fill="#1FB57A"/>
<path d="M300.54 64.8645C299.666 65.9022 298.75 66.9815 298.249 68.2541C297.52 70.1079 297.838 71.9363 298.395 73.4021C298.954 74.8694 299.839 76.2292 301.288 76.3742C301.495 76.3957 301.717 76.3876 301.94 76.2708C302.106 76.1836 302.26 76.0399 302.407 75.8963C303.505 74.8237 304.505 73.4438 304.926 71.9497C305.199 70.9778 305.21 70.022 305.112 69.1401C304.883 67.0674 304.057 65.3035 302.782 64.1652L301.596 63.4229C301.305 63.9504 300.921 64.4122 300.54 64.8645Z" fill="#1FB57A"/>
<path d="M322.192 14.0564C321.318 15.0941 320.402 16.1734 319.901 17.446C319.171 19.2998 319.489 21.1282 320.047 22.594C320.605 24.0613 321.49 25.4211 322.939 25.5661C323.145 25.5875 323.369 25.5795 323.591 25.4627C323.757 25.3755 323.911 25.2318 324.059 25.0882C325.157 24.0156 326.157 22.6357 326.577 21.1416C326.85 20.1697 326.861 19.2139 326.763 18.332C326.534 16.2593 325.708 14.4967 324.433 13.3571L323.247 12.6147C322.957 13.1436 322.572 13.6041 322.192 14.0564Z" fill="#1FB57A"/>
<path d="M205.087 54.6903C205.438 56.0018 205.798 57.3724 206.554 58.512C207.655 60.1712 209.335 60.9539 210.854 61.3324C212.375 61.711 213.994 61.7579 214.939 60.6491C215.074 60.4907 215.196 60.3028 215.227 60.0545C215.25 59.8679 215.222 59.6598 215.187 59.4557C214.935 57.9388 214.377 56.328 213.394 55.1292C212.754 54.3493 211.977 53.7949 211.201 53.3707C209.373 52.376 207.457 52.0484 205.798 52.4471L204.512 53.0002C204.775 53.5399 204.934 54.1198 205.087 54.6903Z" fill="#1FB57A"/>
<path d="M238.568 72.1193C237.214 72.0669 235.801 72.0052 234.492 72.3918C232.584 72.9542 231.341 74.3302 230.531 75.6712C229.72 77.0149 229.195 78.5506 229.972 79.7856C230.083 79.9614 230.226 80.1347 230.454 80.238C230.625 80.3159 230.831 80.3494 231.036 80.3776C232.556 80.587 234.256 80.5293 235.69 79.9426C236.622 79.5614 237.382 78.9828 238.016 78.364C239.506 76.9089 240.385 75.1732 240.497 73.4657L240.351 72.0723C239.756 72.1622 239.157 72.1421 238.568 72.1193Z" fill="#1FB57A"/>
<path d="M309.392 63.0646C308.581 63.7156 307.732 64.3909 307.167 65.2728C306.344 66.5588 306.313 67.9804 306.515 69.1657C306.719 70.3524 307.184 71.5055 308.251 71.8304C308.403 71.8774 308.572 71.9042 308.757 71.8505C308.895 71.8102 309.031 71.7243 309.164 71.6384C310.148 70.9941 311.104 70.1067 311.641 69.0449C311.99 68.3549 312.139 67.6367 312.197 66.9602C312.331 65.3668 311.97 63.9183 311.18 62.874L310.398 62.1396C310.101 62.4914 309.745 62.7813 309.392 63.0646Z" fill="#1FB57A"/>
<path d="M276.248 27.3729C275.582 28.5556 274.883 29.7866 274.626 31.1303C274.252 33.0875 274.904 34.8259 275.723 36.1615C276.544 37.4999 277.666 38.6705 279.116 38.543C279.324 38.5242 279.542 38.4758 279.738 38.3201C279.885 38.2033 280.01 38.0342 280.127 37.865C281.007 36.6059 281.736 35.0648 281.871 33.5184C281.959 32.5129 281.793 31.5706 281.533 30.7235C280.924 28.7301 279.786 27.1515 278.322 26.2695L277.02 25.7607C276.83 26.3326 276.539 26.8575 276.248 27.3729Z" fill="#1FB57A"/>
<path d="M284.612 23.9552C283.935 24.7458 283.227 25.5673 282.836 26.5392C282.266 27.9554 282.499 29.3596 282.918 30.4859C283.337 31.6148 284.008 32.6605 285.116 32.7813C285.274 32.7988 285.446 32.7947 285.617 32.7061C285.744 32.6404 285.864 32.5316 285.977 32.4216C286.825 31.6054 287.6 30.5543 287.931 29.412C288.147 28.6696 288.16 27.9366 288.09 27.2601C287.927 25.6707 287.304 24.3136 286.335 23.4343L285.43 22.8584C285.202 23.2598 284.906 23.6115 284.612 23.9552Z" fill="#1FB57A"/>
<path d="M341.819 97.5113C340.67 96.7958 339.474 96.0453 338.122 95.695C336.151 95.1835 334.309 95.6386 332.862 96.2816C331.414 96.926 330.108 97.8616 330.1 99.2107C330.099 99.4027 330.128 99.6094 330.269 99.8027C330.375 99.9477 330.535 100.078 330.699 100.201C331.905 101.121 333.417 101.922 334.989 102.179C336.01 102.345 336.992 102.271 337.885 102.105C339.986 101.712 341.712 100.796 342.754 99.5208L343.398 98.361C342.83 98.1355 342.32 97.8227 341.819 97.5113Z" fill="#1FB57A"/>
<path d="M335.255 114.979C335.235 113.623 335.22 112.209 334.784 110.878C334.149 108.938 332.773 107.629 331.451 106.755C330.128 105.88 328.637 105.283 327.5 106.005C327.338 106.108 327.181 106.244 327.094 106.467C327.029 106.634 327.007 106.84 326.991 107.044C326.871 108.558 327.014 110.267 327.647 111.732C328.06 112.685 328.65 113.473 329.274 114.136C330.739 115.697 332.439 116.659 334.073 116.85L335.395 116.768C335.277 116.169 335.265 115.569 335.255 114.979Z" fill="#1FB57A"/>
<path d="M349.471 104.165C348.471 103.393 347.429 102.584 346.243 102.131C344.516 101.472 342.887 101.72 341.605 102.182C340.319 102.644 339.157 103.392 339.13 104.644C339.126 104.823 339.149 105.016 339.271 105.211C339.362 105.356 339.502 105.491 339.643 105.621C340.691 106.588 342.01 107.474 343.391 107.86C344.288 108.111 345.153 108.134 345.941 108.063C347.797 107.895 349.329 107.205 350.265 106.118L350.849 105.102C350.351 104.84 349.906 104.5 349.471 104.165Z" fill="#1FB57A"/>
<path d="M335.665 10.1244C334.374 10.5312 333.028 10.95 331.881 11.7487C330.209 12.9126 329.35 14.6093 328.892 16.1276C328.434 17.6485 328.29 19.2513 329.305 20.1373C329.449 20.2635 329.623 20.3763 329.863 20.3951C330.042 20.4098 330.245 20.3709 330.444 20.328C331.926 20.0098 333.518 19.3856 334.737 18.3573C335.53 17.6888 336.113 16.8955 336.57 16.1075C337.644 14.255 338.076 12.3461 337.791 10.7218L337.335 9.47607C336.796 9.76469 336.227 9.94725 335.665 10.1244Z" fill="#1FB57A"/>
<path d="M321.654 38.9488C320.469 38.2964 319.234 37.6118 317.864 37.3353C315.869 36.9312 314.052 37.4843 312.642 38.2051C311.23 38.926 309.976 39.9315 310.041 41.2792C310.05 41.4712 310.09 41.6752 310.241 41.8618C310.355 42.0014 310.523 42.1222 310.691 42.2363C311.946 43.0887 313.498 43.8083 315.082 43.9787C316.112 44.0902 317.088 43.964 317.97 43.7479C320.047 43.2418 321.722 42.2336 322.693 40.9047L323.274 39.7126C322.697 39.518 322.171 39.2334 321.654 38.9488Z" fill="#1FB57A"/>
<path d="M278.261 6.9769C276.954 7.32726 275.591 7.68702 274.409 8.43473C272.688 9.52475 271.757 11.1826 271.233 12.6793C270.709 14.1801 270.495 15.7749 271.47 16.7038C271.609 16.8367 271.778 16.9562 272.016 16.9857C272.194 17.0085 272.399 16.979 272.6 16.9441C274.094 16.6917 275.712 16.136 276.975 15.1628C277.795 14.5305 278.414 13.7627 278.904 12.9948C280.057 11.1907 280.574 9.30192 280.359 7.66689L279.958 6.40234C279.407 6.66545 278.83 6.82387 278.261 6.9769Z" fill="#1FB57A"/>
<path d="M256.865 2.35788C256.772 3.711 256.669 5.12322 256.993 6.48708C257.463 8.47516 258.725 9.89806 259.968 10.8807C261.213 11.866 262.648 12.5882 263.842 11.964C264.012 11.8754 264.18 11.7533 264.285 11.5371C264.364 11.376 264.403 11.172 264.435 10.9693C264.681 9.46986 264.682 7.7543 264.174 6.23875C263.843 5.25343 263.319 4.41712 262.754 3.70297C261.426 2.0223 259.811 0.918856 258.199 0.589971L256.876 0.559082C256.943 1.16987 256.906 1.76857 256.865 2.35788Z" fill="#1FB57A"/>
<path d="M258.009 19.8146C258.011 20.9503 258.008 22.1343 258.341 23.2323C258.827 24.8325 259.91 25.8755 260.955 26.5561C262.002 27.238 263.184 27.6797 264.099 27.0299C264.23 26.9373 264.356 26.8178 264.428 26.6259C264.482 26.4822 264.502 26.3091 264.517 26.1373C264.629 24.8634 264.533 23.4377 264.044 22.2349C263.725 21.4523 263.262 20.816 262.772 20.2844C261.62 19.0333 260.273 18.295 258.972 18.1997L257.917 18.3206C258.005 18.8186 258.008 19.3206 258.009 19.8146Z" fill="#1FB57A"/>
<path d="M339.963 25.28C338.801 24.7847 337.59 24.2625 336.33 24.1229C334.493 23.9189 332.979 24.5686 331.852 25.3378C330.724 26.1083 329.785 27.1231 330.073 28.3433C330.115 28.5178 330.184 28.6991 330.35 28.8562C330.475 28.9729 330.643 29.0696 330.813 29.1595C332.071 29.832 333.568 30.3583 335 30.3851C335.931 30.4026 336.775 30.2079 337.52 29.9408C339.274 29.3112 340.585 28.2588 341.219 26.9714L341.529 25.8411C340.984 25.7123 340.469 25.4962 339.963 25.28Z" fill="#1FB57A"/>
<path d="M282.326 125.828C282.972 124.679 283.651 123.481 283.775 122.228C283.959 120.402 282.926 118.884 281.747 117.749C280.566 116.614 279.042 115.662 277.3 115.929C277.051 115.967 276.792 116.034 276.577 116.198C276.415 116.32 276.287 116.486 276.167 116.654C275.274 117.896 274.604 119.379 274.653 120.805C274.685 121.732 275.017 122.574 275.449 123.322C276.464 125.079 278.064 126.401 279.962 127.052L281.614 127.38C281.764 126.839 282.045 126.329 282.326 125.828Z" fill="#1FB57A"/>
<path d="M177.688 357.248C166.15 342.846 148.637 334.74 131.38 328.265C120.875 324.324 110.214 320.799 99.4293 317.702C97.0834 320.382 94.6959 323.127 93.3435 326.425C91.9925 329.723 91.8413 333.734 93.8564 336.673C94.9865 338.321 96.7513 339.603 97.3017 341.527C98.2523 344.852 95.1432 347.988 94.8821 351.436C94.6745 354.19 96.2867 356.694 97.4462 359.198C99.053 362.669 99.8577 366.51 99.7801 370.336C97.1597 373.509 96.4675 377.966 97.1758 382.024C97.8841 386.082 99.8497 389.811 102.072 393.277C104.508 397.076 107.287 400.654 110.364 403.952L110.687 403.975C110.546 404.112 110.46 404.308 110.614 404.462C110.971 404.82 111.573 404.587 112.022 404.357C114.629 403.024 117.593 402.399 120.514 402.565C121.695 402.632 122.95 402.814 124.006 402.278C125.218 401.663 125.811 400.29 126.311 399.024C127.026 397.209 127.742 395.396 128.457 393.581C128.752 392.833 129.069 392.054 129.68 391.533C130.383 390.935 131.345 390.783 132.244 390.575C134.852 389.971 137.261 388.721 139.637 387.484C143.51 385.466 147.383 383.45 151.255 381.432C151.748 381.174 152.258 380.904 152.591 380.457C153.033 379.863 153.08 379.076 153.206 378.344C153.46 376.864 154.108 375.453 155.064 374.297C155.845 373.354 156.825 372.579 157.529 371.576C158.234 370.573 158.625 369.208 158.061 368.121C164.143 363.727 170.745 360.068 177.688 357.248Z" fill="#CC6952"/>
<path d="M139.6 337.887C124.696 330.982 109.932 325.629 95.9962 321.859C94.9451 323.285 94.0172 324.786 93.345 326.425C91.994 329.723 91.8427 333.734 93.8579 336.673C94.988 338.321 96.7527 339.603 97.3031 341.527C98.2538 344.852 95.1446 347.988 94.8835 351.436C94.676 354.189 96.2881 356.694 97.4476 359.198C99.0544 362.669 99.8592 366.51 99.7816 370.336C97.1612 373.509 96.4689 377.966 97.1772 382.025C97.8855 386.085 99.8512 389.812 102.074 393.278C104.51 397.077 107.288 400.655 110.365 403.953L110.689 403.976C110.547 404.113 110.461 404.309 110.615 404.463C110.973 404.822 111.574 404.588 112.024 404.358C114.631 403.026 117.594 402.4 120.516 402.566C121.697 402.633 122.951 402.815 124.008 402.279C125.22 401.664 125.813 400.291 126.312 399.025C127.027 397.21 127.744 395.397 128.459 393.582C128.753 392.834 129.071 392.056 129.681 391.535C130.384 390.936 131.347 390.784 132.245 390.576C134.854 389.972 137.263 388.722 139.638 387.485C143.512 385.467 147.384 383.451 151.256 381.433C151.749 381.175 152.259 380.906 152.593 380.459C153.035 379.864 153.081 379.077 153.207 378.346C153.462 376.865 154.11 375.454 155.066 374.298C155.846 373.355 156.827 372.58 157.531 371.577C158.235 370.575 158.626 369.209 158.062 368.122C163.617 364.107 169.626 360.739 175.918 358.03C165.031 350.842 152.818 344.01 139.6 337.887Z" fill="#A8604C"/>
<path d="M175.704 357.886C165.536 360.787 153.724 362.456 141.11 362.456C123.439 362.456 107.328 359.191 95.1343 353.831C95.6083 355.677 96.6339 357.438 97.448 359.197C99.0548 362.668 99.8596 366.509 99.7819 370.334C97.1615 373.508 96.4693 377.965 97.1776 382.024C97.8859 386.083 99.8515 389.811 102.074 393.277C104.51 397.076 107.288 400.654 110.365 403.952L110.689 403.975C110.547 404.112 110.462 404.308 110.616 404.462C110.973 404.82 111.574 404.587 112.024 404.357C114.631 403.024 117.594 402.399 120.516 402.565C121.697 402.632 122.952 402.813 124.008 402.278C125.22 401.663 125.813 400.29 126.313 399.024C127.028 397.209 127.744 395.395 128.459 393.581C128.754 392.833 129.071 392.054 129.682 391.533C130.384 390.935 131.347 390.783 132.246 390.575C134.854 389.971 137.263 388.721 139.638 387.483C143.512 385.466 147.384 383.45 151.257 381.432C151.749 381.174 152.26 380.904 152.593 380.457C153.035 379.863 153.082 379.076 153.208 378.344C153.462 376.864 154.11 375.453 155.066 374.297C155.847 373.353 156.827 372.579 157.531 371.576C158.236 370.573 158.627 369.208 158.063 368.121C163.617 364.106 169.626 360.738 175.918 358.029C175.851 357.98 175.776 357.933 175.704 357.886Z" fill="#934E3E"/>
<path d="M155.267 367.705C130.431 367.705 110.298 382.549 110.298 400.86C110.298 401.906 110.372 402.938 110.5 403.96L110.69 403.973C110.548 404.11 110.463 404.306 110.617 404.46C110.974 404.819 111.575 404.585 112.025 404.356C114.632 403.023 117.596 402.397 120.517 402.564C121.698 402.631 122.953 402.812 124.009 402.276C125.221 401.662 125.814 400.288 126.314 399.023C127.029 397.208 127.745 395.394 128.46 393.579C128.755 392.831 129.072 392.053 129.683 391.532C130.386 390.933 131.348 390.782 132.247 390.574C134.855 389.969 137.264 388.72 139.639 387.482C143.513 385.464 147.385 383.448 151.258 381.43C151.751 381.173 152.261 380.903 152.594 380.456C153.036 379.861 153.083 379.075 153.209 378.343C153.463 376.862 154.111 375.451 155.067 374.296C155.848 373.352 156.828 372.577 157.532 371.575C158.237 370.572 158.628 369.207 158.064 368.119C158.217 368.008 158.379 367.91 158.533 367.8C157.455 367.743 156.367 367.705 155.267 367.705Z" fill="#844336"/>
<path d="M127.717 234.859C134.283 224.862 132.762 212.597 124.32 207.464C115.878 202.33 104.445 204.057 96.6967 215.998C88.948 227.94 92.1013 238.533 100.544 243.666C108.985 248.8 121.151 244.856 127.717 234.859Z" fill="#E5D2A3"/>
<path d="M130.773 215.594C129.601 212.229 127.436 209.359 124.32 207.465C117.181 203.123 107.911 203.717 100.53 211.216C101.872 214.679 104.357 217.555 107.681 219.576C114.588 223.776 123.987 221.892 130.773 215.594Z" fill="#EFE5C7"/>
<path d="M104.902 243.542C125.312 255.382 158.156 253.317 161.407 252.526C164.658 251.736 175.342 234.607 171.839 231.343C168.337 228.08 133.157 214.871 124.511 210.421C111.04 203.489 90.9228 235.431 104.902 243.542Z" fill="#EDB984"/>
<path d="M144.778 249.141C122.827 242.495 108.117 226.867 111.922 214.235C112.131 213.543 112.411 212.886 112.719 212.241C102.547 219.289 94.7738 237.666 104.902 243.542C125.312 255.382 158.156 253.317 161.407 252.526C161.651 252.467 161.946 252.291 162.263 252.062C156.73 251.894 150.803 250.965 144.778 249.141Z" fill="#E79B69"/>
<path d="M67.5349 126.427L71.821 121.736C77.3002 127.556 83.963 132.424 92.5714 135.729L88.1701 145.628C80.3839 140.773 73.642 134.14 67.5349 126.427Z" fill="#E5D2A3"/>
<path d="M97.9244 143.364L91.8655 135.455C95.0121 133.906 97.5079 131.172 99.5419 127.603L102.087 130.484C101.983 135.59 100.774 139.997 97.9244 143.364Z" fill="#E5D2A3"/>
<path d="M78.8854 75.0075C76.5677 84.5801 74.8859 120.144 76.8837 122.005C78.8814 123.865 100.116 128.614 105.152 125.362C106.303 116.988 108.931 81.6443 106.076 74.8343C104.524 71.1294 80.1374 69.8434 78.8854 75.0075Z" fill="#EDB984"/>
<path d="M99.0761 88.6758C101.879 88.0354 104.649 87.7025 107.355 87.5951C107.312 81.7222 106.953 76.9285 106.076 74.8343C104.523 71.1294 80.1361 69.8434 78.8855 75.0075C77.6777 79.9945 76.644 92.0357 76.2129 102.692C81.0359 96.2173 89.1622 90.943 99.0761 88.6758Z" fill="#E79B69"/>
<path d="M86.3637 74.0212C85.4265 73.5406 83.9683 73.9125 82.5838 74.3984C80.9569 74.9689 79.2604 75.7354 77.7715 77.0563C76.0401 78.5906 74.8323 80.6808 74.2124 82.5655C73.6098 84.3952 73.4933 86.0838 73.4385 87.6826C73.2644 92.8454 73.6942 97.4337 74.6676 101.445C74.7305 101.705 74.8002 101.971 74.993 102.142C75.2635 102.38 75.7322 102.397 76.1673 102.43C77.8505 102.56 79.3447 103.05 80.503 103.856L80.9315 103.472C84.3365 95.8605 86.6489 87.2585 87.4175 78.2363C87.5661 76.5194 87.5943 74.6508 86.3637 74.0212Z" fill="#C65638"/>
<path d="M78.1637 96.3892C76.6038 92.4869 73.5068 90.0611 71.2479 90.9686C68.989 91.876 68.4226 95.7758 69.9838 99.6767C71.5451 103.579 74.6409 106.005 76.8998 105.097C79.1586 104.19 79.725 100.29 78.1637 96.3892Z" fill="#EDB984"/>
<path d="M76.973 97.5441C75.9969 95.1036 74.0607 93.5854 72.648 94.1532C71.2354 94.721 70.8819 97.1602 71.8581 99.6007C72.8342 102.041 74.7703 103.559 76.183 102.992C77.5956 102.422 77.9491 99.9845 76.973 97.5441Z" fill="#D27558"/>
<path d="M77.5466 100.63C76.932 99.0926 75.5193 98.2133 74.3919 98.6657C73.2645 99.1181 72.8481 100.732 73.464 102.269C74.0786 103.806 75.4913 104.685 76.6187 104.233C77.7461 103.78 78.1612 102.167 77.5466 100.63Z" fill="#EDB984"/>
<path d="M74.4951 80.9624C80.9236 68.3399 96.3193 50.7694 113.484 57.6867C128.222 63.6255 112.229 84.3318 112.229 84.3318C107.964 75.3123 86.5675 76.7889 74.4951 80.9624Z" fill="#664956"/>
<path d="M114.436 59.5943C116.676 60.4977 118.198 61.7448 119.183 63.2066C118.389 60.9206 116.648 58.962 113.484 57.6867C96.3193 50.7694 80.9236 68.3399 74.4951 80.9624C75.2624 80.6966 76.0684 80.4442 76.9026 80.2026C84.0073 67.9439 98.4523 53.1535 114.436 59.5943Z" fill="#543A47"/>
<path d="M81.7453 301.392L101.017 279.923L82.9357 289.703H66.5183L81.7453 301.392Z" fill="#563B49"/>
<path d="M222.227 301.883L200.301 300.154C198.591 300.019 197.082 301.264 196.884 302.972L196.439 306.814C196.232 308.613 197.555 310.226 199.355 310.368L221.281 312.097C222.991 312.232 224.5 310.987 224.699 309.28L225.143 305.438C225.352 303.639 224.028 302.025 222.227 301.883Z" fill="#B24B4B"/>
<path d="M211.337 306.639C216.596 306.639 221.391 305.771 225.068 304.348C224.762 303.032 223.65 301.996 222.227 301.883L200.301 300.154C198.591 300.019 197.082 301.264 196.884 302.972L196.765 304.007C200.534 305.634 205.668 306.639 211.337 306.639Z" fill="#CE6767"/>
<path d="M202.683 196.046C199.097 193.966 197.856 195.142 196.984 197.023C196.119 198.886 195.938 200.751 199.429 202.876C203.003 205.052 206.721 205.327 207.667 203.426C208.62 201.509 206.357 198.176 202.683 196.046Z" fill="#EDB984"/>
<path d="M206.837 188.552C202.911 186.438 201.605 187.649 200.716 189.578C199.837 191.489 199.692 193.4 203.512 195.568C207.431 197.792 211.463 198.066 212.433 196.111C213.411 194.137 210.867 190.723 206.837 188.552Z" fill="#EDB984"/>
<path d="M210.557 180.239C206.734 178.272 205.401 179.584 204.46 181.609C203.528 183.616 203.325 185.583 207.04 187.606C210.848 189.678 214.827 189.747 215.85 187.694C216.882 185.622 214.476 182.255 210.557 180.239Z" fill="#EDB984"/>
<path d="M211.093 169.389C210.33 168.949 206.096 169.934 199.46 169.207C194.803 168.697 191.062 174.144 193.014 179.127C196.64 180.406 210.99 177.591 212.527 175.728C214.206 173.693 212.758 170.348 211.093 169.389Z" fill="#EDB984"/>
<path d="M186.878 241.159C185.182 238.401 183.26 238.254 174.315 232.933C171.003 230.963 166.81 231.686 164.231 234.619L161.18 238.092C158.944 240.637 157.054 246.852 159.044 251.019C161.133 255.391 167.723 257.518 171.296 259.42C180.662 264.408 188.972 244.566 186.878 241.159Z" fill="#EDB984"/>
<path d="M176.78 225.944C174.678 222.712 168.108 223.452 162.293 227.402C156.705 231.199 149.192 233.945 150.927 236.976C152.688 240.052 163.502 242.634 169.384 238.967C175.514 235.145 178.916 229.228 176.78 225.944Z" fill="#EDB984"/>
<path d="M93.6021 96.089C93.7668 93.823 92.8456 91.8377 91.5454 91.6551C90.2439 91.4725 89.0548 93.1613 88.8901 95.4272C88.7255 97.6932 89.6467 99.6785 90.9469 99.8611C92.2484 100.044 93.4374 98.3549 93.6021 96.089Z" fill="#5A4949"/>
<path d="M94.2247 83.4364L85.86 85.0808C85.157 85.2191 84.6951 85.9171 84.8276 86.642L85.3284 89.3737C85.461 90.0986 86.1398 90.5752 86.8428 90.4369L95.2075 88.7925C95.9105 88.6542 96.3724 87.9548 96.2398 87.2313L95.739 84.4996C95.6065 83.7733 94.929 83.2968 94.2247 83.4364Z" fill="#C65638"/>
<path d="M105.788 96.6368C105.788 94.3615 104.726 92.4513 103.417 92.368C102.109 92.2848 101.047 94.0621 101.047 96.3374C101.047 98.6128 102.107 100.524 103.417 100.608C104.726 100.691 105.788 98.9135 105.788 96.6368Z" fill="#5A4949"/>
<path d="M110.103 86.2484L103.378 83.6562C102.813 83.4388 102.189 83.765 101.986 84.3865L101.217 86.7303C101.013 87.3518 101.307 88.0337 101.872 88.2512L108.596 90.8434C109.161 91.0609 109.785 90.7346 109.989 90.1131L110.757 87.768C110.961 87.1464 110.668 86.4658 110.103 86.2484Z" fill="#C65638"/>
<path d="M96.9014 97.7822C99.0599 102.263 99.7789 105.163 97.8668 106.373C96.6738 107.129 94.9438 107.05 93.5726 106.814L93.5405 106.905C93.5405 106.905 97.765 108.358 99.8485 107.215C101.911 106.082 100.327 102.879 96.9014 97.7822Z" fill="#D27558"/>
<path d="M88.5714 108.42L87.5137 110.288C87.681 110.466 91.6993 114.677 99.515 114.578L99.3838 113.573C92.2122 113.662 88.6076 108.462 88.5714 108.42Z" fill="#D27558"/>
<path d="M95.1632 118.262C94.8994 118.833 93.5765 118.771 92.2067 118.127C90.8369 117.482 89.9412 116.496 90.2036 115.927C90.4674 115.356 91.7903 115.417 93.1601 116.063C94.5299 116.707 95.427 117.693 95.1632 118.262Z" fill="#D27558"/>
</svg>
