<svg width="100" height="100" viewBox="0 0 495 452" fill="none" xmlns="http://www.w3.org/2000/svg">
<path d="M247.511 444.783C377.836 444.783 483.485 345.34 483.485 222.671C483.485 100.002 377.836 0.559082 247.511 0.559082C117.187 0.559082 11.5375 100.002 11.5375 222.671C11.5375 345.34 117.187 444.783 247.511 444.783Z" fill="#F3DFE1"/>
<path fill-rule="evenodd" clip-rule="evenodd" d="M111.317 196.691C111.317 196.691 40.1065 174.76 41.4725 147.503C42.9957 117.132 80.6428 114.26 96.0389 140.274C96.0389 140.274 103.637 105.065 128.464 110.483C153.293 115.901 143.438 150.945 111.317 196.691Z" fill="white"/>
<path fill-rule="evenodd" clip-rule="evenodd" d="M375.649 173.451C375.649 173.451 354.552 157.111 358.858 148.023C363.655 137.896 376.848 141.621 378.412 152.38C378.412 152.38 385.955 141.368 393.625 146.31C401.294 151.25 393.007 161.923 375.649 173.451Z" fill="white"/>
<path fill-rule="evenodd" clip-rule="evenodd" d="M244.624 88.9593C244.624 88.9593 227.21 75.4709 230.764 67.9702C234.724 59.6118 245.614 62.6867 246.905 71.5671C246.905 71.5671 253.131 62.4781 259.462 66.5563C265.791 70.6334 258.951 79.4432 244.624 88.9593Z" fill="#FF8888"/>
<path fill-rule="evenodd" clip-rule="evenodd" d="M228.54 98.4339C228.54 98.4339 220.8 95.3623 221.221 92.3293C221.69 88.9498 225.924 88.9575 227.388 91.9982C227.388 91.9982 228.585 88.1308 231.305 88.9531C234.025 89.7732 232.578 93.603 228.54 98.4339Z" fill="#FF8888"/>
<path fill-rule="evenodd" clip-rule="evenodd" d="M253.863 103.615C253.863 103.615 249.584 100.088 250.542 98.2226C251.609 96.1444 254.33 96.9997 254.582 99.248C254.582 99.248 256.227 97.0019 257.789 98.0769C259.351 99.1498 257.553 101.321 253.863 103.615Z" fill="#FF8888"/>
<path fill-rule="evenodd" clip-rule="evenodd" d="M412.874 128.866C412.874 128.866 380.293 108.968 380.293 92.8558C380.293 73.9968 403.241 75.4581 409.776 92.8735C409.776 92.8735 418.344 73.6911 432.924 79.4381C447.506 85.1862 446.906 107.542 412.874 128.866Z" fill="white"/>
<path fill-rule="evenodd" clip-rule="evenodd" d="M182.67 54.102C182.67 54.102 162.711 42.4446 162.502 32.7022C162.257 21.2987 176.153 21.9179 180.331 32.3733C180.331 32.3733 185.262 20.6762 194.153 23.983C203.044 27.2908 202.971 40.8156 182.67 54.102Z" fill="white"/>
<path d="M132.105 418.078C132.105 418.078 157.065 275.81 128.95 256.187C100.835 236.565 94.1333 312.781 94.1333 309.403C94.1333 306.024 83.7102 191.937 53.183 179.211C22.657 166.485 20.4233 245.065 33.8248 283.214C47.2263 321.362 54.6722 342.207 54.6722 342.207C54.6722 342.207 24.8908 295.616 4.78797 311.994C-15.3149 328.371 33.8248 376.726 42.7599 385.137C42.7599 385.137 8.51094 371.822 3.29879 385.137C-1.91337 398.452 46.4829 420.526 46.4829 420.526L132.105 418.078Z" fill="#1FB57A"/>
<path d="M8.26355 387.47C8.26355 387.47 48.4692 416.437 69.0681 423.444H113.493C113.493 423.444 130.369 299.869 122.924 264.596C122.924 264.596 117.464 375.808 109.025 418.899L104.31 419.91C104.31 419.91 54.1774 219.408 49.2138 188.273C49.2138 188.273 87.9925 380.754 98.4156 416.32L96.9264 419.299C96.9264 419.299 18.7488 331.523 9.25673 314.179C9.25673 314.179 51.1369 378.303 92.4589 419.474L69.937 420.524C69.937 420.524 16.019 394.186 8.26355 387.47Z" fill="#E7F0DC"/>
<path d="M307.815 424.38C307.815 424.38 265.625 393.371 259.976 364.725C254.326 336.079 298.241 355.634 298.241 355.634C298.241 355.634 285.782 292.488 312.704 283.213C339.625 273.939 350.333 311.993 350.333 311.993C350.333 311.993 345.906 188.616 390.578 177.9C435.25 167.184 398.768 299.178 398.768 299.178C398.768 299.178 430.783 227.915 468.011 238.547C505.238 249.179 413.659 361.446 413.659 361.446C413.659 361.446 468.011 313.772 488.113 326.677C508.216 339.582 474.358 369.017 443.441 390.04C412.524 411.065 387.6 427.976 387.6 427.976L307.815 424.38Z" fill="#1FB57A"/>
<path d="M362.362 417.583C446.325 290.492 460.132 247.147 460.132 247.147C438.319 292.431 377.602 387.741 362.223 411.697L387.791 188.273C387.791 188.273 354.44 358.97 358.645 417.255L361.493 418.899C361.596 418.743 361.696 418.59 361.8 418.435L363.593 420.524C449.215 373.572 484.954 330.744 484.954 330.744C439.947 372.705 370.863 412.72 362.362 417.583Z" fill="#E7F0DC"/>
<path d="M337.205 418.9L340.054 417.255C340.054 417.255 317.895 355.413 314.537 291.928C314.537 291.928 305.982 344.671 337.205 418.9Z" fill="#E7F0DC"/>
<path d="M323.409 426.131L326.76 425.232C326.76 425.232 297.143 395.996 271.819 361.446C271.819 361.446 278.715 379.878 323.409 426.131Z" fill="#E7F0DC"/>
<path d="M247.511 451.995C375.754 451.995 479.714 441.241 479.714 427.976C479.714 414.711 375.754 403.957 247.511 403.957C119.269 403.957 15.3085 414.711 15.3085 427.976C15.3085 441.241 119.269 451.995 247.511 451.995Z" fill="#BED5DC"/>
<path fill-rule="evenodd" clip-rule="evenodd" d="M287.148 427.369C287.148 427.369 287.77 418.458 286.975 416.602C286.18 414.745 273.088 413.072 273.088 413.072C273.088 413.072 269.614 414.955 265.44 416.215C261.266 417.474 258.109 418.015 256.776 418.837C254.789 420.063 250.923 422.63 250.744 425.1C260.003 426.571 278.323 429.157 287.148 427.369Z" fill="#4C4F89"/>
<path fill-rule="evenodd" clip-rule="evenodd" d="M286.457 409.719L273.66 407.612L272.122 413.669C274.308 415.89 284.952 419.146 287.058 417.733L286.457 409.719Z" fill="#EBB495"/>
<path fill-rule="evenodd" clip-rule="evenodd" d="M290.398 248.267C277.947 245.645 277.412 250.57 277.412 250.57L273.056 407.982C277.134 409.561 282.646 410.753 287.054 411.076L317.354 259.354C317.354 259.354 302.851 250.89 290.398 248.267Z" fill="#5E5F9D"/>
<path fill-rule="evenodd" clip-rule="evenodd" d="M297.937 250.412L277.348 252.867L276.959 266.919L292.259 272.156C296.827 273.72 299.677 278.01 299.169 282.561L284.863 410.849C285.612 410.943 286.349 411.023 287.051 411.075L317.351 259.353C317.351 259.353 308.042 253.922 297.937 250.412Z" fill="#4C4F89"/>
<path fill-rule="evenodd" clip-rule="evenodd" d="M359.915 429.992C370.338 428.838 382.952 427.519 382.689 423.231C382.426 418.944 376.322 409.4 376.322 409.4L360.112 408.558C360.112 408.558 354.644 415.313 343.019 418.078C334.659 420.065 332.304 424.673 332.735 427.054C333.32 430.289 339.755 430.577 346.074 430.798C349.046 430.9 356.111 430.414 359.915 429.992Z" fill="#4C4F89"/>
<path fill-rule="evenodd" clip-rule="evenodd" d="M376.821 410.286L371.215 400.31L359.916 402.866L360.179 410.45C363.866 415.249 375.818 414.182 376.821 410.286Z" fill="#EBB495"/>
<path fill-rule="evenodd" clip-rule="evenodd" d="M163.965 154.683C167.107 165.75 175.203 168.208 175.203 168.208C175.203 168.208 202.844 163.371 209.475 158.278C209.668 158.13 209.856 157.983 210.04 157.838C216.356 152.861 217.547 144.057 212.505 137.927C212.458 137.869 212.41 137.811 212.361 137.754C207.522 131.981 207.755 132.081 206.158 127.108C204.561 122.137 209.501 121.03 211.839 116.077C214.177 111.124 216.877 102.555 210.921 97.8281C207.389 95.0258 203.083 96.2697 203.083 96.2697C203.083 96.2697 176.815 84.6808 166.903 102.266C159.663 115.114 169.985 126.986 167.505 134.653C165.027 142.322 160.822 143.615 163.965 154.683Z" fill="#332B28"/>
<path fill-rule="evenodd" clip-rule="evenodd" d="M367.927 403.933C372.92 402.614 373.621 401.541 373.621 401.541C367.625 371.775 349.857 271.335 340.424 248.669C337.965 242.761 330.088 239.6 319.402 241.414C308.715 243.227 298.026 257.902 298.026 257.902L304.005 254.955C322.273 298.4 337.739 362.59 359.343 404.179C359.343 404.179 362.935 405.253 367.927 403.933Z" fill="#5E5F9D"/>
<path fill-rule="evenodd" clip-rule="evenodd" d="M304.632 250.413C303.911 251.116 303.233 251.811 302.608 252.477L303.534 255.187L304.003 254.956C305.783 259.189 307.536 263.626 309.272 268.214C314.655 268.219 335.447 268.589 339.507 273.937C343.863 279.678 367.854 388.277 371.08 402.941C373.235 402.116 373.619 401.541 373.619 401.541C367.763 372.476 350.685 276.039 341.103 250.411H304.632V250.413Z" fill="#4C4F89"/>
<path fill-rule="evenodd" clip-rule="evenodd" d="M278.995 182.789C278.995 182.789 290.418 159.327 289.367 150.587C288.317 141.847 285.838 137.531 285.838 137.531L230.819 197.877C230.819 197.877 228.179 208.939 234.661 209.269C241.141 209.599 278.995 182.789 278.995 182.789Z" fill="#5E5F9D"/>
<path fill-rule="evenodd" clip-rule="evenodd" d="M278.994 182.79C278.994 182.79 279.755 181.226 280.862 178.765L278.04 172.316L231.974 208.166C232.619 208.798 233.489 209.212 234.659 209.271C241.141 209.6 278.994 182.79 278.994 182.79Z" fill="#4C4F89"/>
<path fill-rule="evenodd" clip-rule="evenodd" d="M321.455 262.267C321.455 262.267 321.666 253.834 324.519 252.699C327.372 251.565 329.553 254.178 333.289 259.51C337.025 264.842 348.1 262.593 348.1 262.593L335.824 203.802C352.591 150.587 341.454 136.099 339.091 134.338C331.167 128.432 304.17 128.334 296.632 130.816C287.865 133.702 282.19 139.497 280.959 144.351C279.728 149.205 276.402 178.739 279.591 216.67L273.057 262.506C278.753 267.345 321.455 262.267 321.455 262.267Z" fill="#5E5F9D"/>
<path fill-rule="evenodd" clip-rule="evenodd" d="M298.908 132.676C298.908 132.676 290.088 160.142 294.193 185.994C294.193 185.994 310.612 138.823 320.154 129.539L298.908 132.676Z" fill="#E5E6F9"/>
<path fill-rule="evenodd" clip-rule="evenodd" d="M231.724 192.43C230.411 185.422 226.732 164.233 225.768 160.935C224.804 157.637 222.133 154.957 217.841 152.897C213.549 150.836 211.841 150.588 211.841 150.588C211.841 150.588 221.476 196.223 222.789 198.615C224.103 201.005 229.534 211.724 237.155 213.868C244.775 216.011 257.651 212.136 257.477 209.993C257.302 207.849 232.951 200.099 232.951 200.099C232.951 200.099 233.039 199.438 231.724 192.43Z" fill="#FFC3AE"/>
<path fill-rule="evenodd" clip-rule="evenodd" d="M257.366 210.4C249.444 209.142 236.113 206.58 231.624 203.034C225.084 197.867 222.251 166.097 222.251 166.097L217.374 176.208C219.774 187.069 222.179 197.504 222.789 198.615C224.102 201.005 229.534 211.724 237.154 213.868C244.313 215.88 256.106 212.584 257.366 210.4Z" fill="#F4AF9A"/>
<path fill-rule="evenodd" clip-rule="evenodd" d="M276.576 88.3972C278.24 97.1364 284.447 100.314 284.447 100.314C284.447 100.314 285.511 102.413 292.694 107.856C299.877 113.297 317.833 120.305 317.833 120.305C317.833 120.305 325.979 111.978 327.731 105.382C331.096 92.7094 325.964 72.5866 308.285 76.1957C308.022 70.0525 295.622 62.6787 288.839 66.3021C282.357 69.7645 285.686 78.6692 285.686 78.6692C285.686 78.6692 274.912 79.6581 276.576 88.3972Z" fill="#332B28"/>
<path fill-rule="evenodd" clip-rule="evenodd" d="M269.74 429.525C269.74 429.525 263.961 321.175 251.698 277.312C239.435 233.45 233.917 221.166 233.917 221.166C233.917 221.166 201.945 221.536 194.499 222.237C187.053 222.938 183.898 223.927 183.898 223.927C183.898 223.927 164.453 261.482 151.138 288.03C137.823 314.579 126.963 359.61 120.831 378.738C114.7 397.867 112.247 421.941 112.247 421.941C112.247 421.941 127.663 437.441 184.073 437.771C240.484 438.101 269.74 429.525 269.74 429.525Z" fill="white"/>
<path d="M187.408 223.16C178.832 239.53 153.819 290.984 136.395 364.665L137.122 364.818C154.696 290.495 180 238.816 188.318 223.007C187.997 223.059 187.693 223.109 187.408 223.16Z" fill="#ECECEC"/>
<path d="M229.915 270.678L230.654 270.602C230.619 270.292 227.376 242.55 221.749 221.347C221.495 221.351 221.241 221.356 220.984 221.36C226.625 242.53 229.879 270.368 229.915 270.678Z" fill="#ECECEC"/>
<path d="M247.058 273.923C246.952 273.54 238.217 241.744 229.993 221.216C229.74 221.219 229.476 221.224 229.203 221.227C237.433 241.69 246.231 273.714 246.337 274.098L247.058 273.923Z" fill="#ECECEC"/>
<path d="M188.893 250.516L188.182 250.31C176.163 286.971 158.941 395.263 152.741 435.706C152.983 435.739 153.233 435.771 153.478 435.804C159.675 395.374 176.888 287.132 188.893 250.516Z" fill="#ECECEC"/>
<path d="M226.396 436.222C226.426 401.066 225.613 277.36 213.08 230.622L212.358 230.794C224.879 277.485 225.683 401.232 225.651 436.284C225.901 436.264 226.148 436.243 226.396 436.222Z" fill="#ECECEC"/>
<path d="M251.27 433.282C251.644 412.266 251.967 345.422 242.707 289.495L241.97 289.603C251.241 345.595 250.899 412.551 250.523 433.4C250.777 433.359 251.023 433.321 251.27 433.282Z" fill="#ECECEC"/>
<path d="M186.197 437.777L189.615 364.757L188.872 364.725L185.453 437.773C185.701 437.776 185.951 437.777 186.197 437.777Z" fill="#ECECEC"/>
<path d="M203.634 221.778C201.136 237.678 192.251 296.918 190.622 344.648L191.365 344.67C192.998 296.842 201.923 237.441 204.39 221.752C204.136 221.762 203.884 221.77 203.634 221.778Z" fill="#ECECEC"/>
<path fill-rule="evenodd" clip-rule="evenodd" d="M318.185 123.355C317.571 119.48 316.827 114.203 316.827 114.203C316.827 114.203 315.25 113.255 313.454 113.915C311.659 114.575 298.057 120.689 298.125 124.066C298.224 128.927 299.223 134.71 299.223 134.71C304.002 138.084 314.36 134.766 320.156 129.539C320.156 129.539 318.798 127.231 318.185 123.355Z" fill="#FFC3AE"/>
<path fill-rule="evenodd" clip-rule="evenodd" d="M319.118 127.131C318.777 126.14 318.424 124.869 318.185 123.356C317.571 119.481 316.827 114.204 316.827 114.204C316.827 114.204 315.25 113.256 313.454 113.916C311.659 114.576 298.057 120.691 298.125 124.067C298.167 126.138 298.373 128.374 298.595 130.26C304.265 130.847 313.491 131.031 319.118 127.131Z" fill="#F4AF9A"/>
<path fill-rule="evenodd" clip-rule="evenodd" d="M226.337 171.488C222.834 162.419 215.17 152.443 213.374 150.917C211.579 149.392 206.275 147.826 206.275 147.826C206.275 147.826 191.681 146.236 181.241 148.722C170.8 151.206 165.719 154.175 164.493 158.957C163.266 163.739 165.193 178.827 167.733 185.092C170.274 191.358 177.193 202.406 178.858 207.766C180.522 213.125 182.274 216.67 182.274 216.67C182.274 216.67 205.224 209.497 214.421 207.107C223.619 204.715 227.472 202.077 227.472 202.077C227.472 202.077 226.511 199.274 226.948 196.059C227.387 192.843 229.841 180.558 226.337 171.488Z" fill="white"/>
<path fill-rule="evenodd" clip-rule="evenodd" d="M183.898 223.925C183.898 223.925 192 223.925 199.008 222.977C206.015 222.029 231.624 210.697 231.624 210.697L227.473 202.076L227.047 200.269C227.047 200.269 220.774 201.624 216.701 202.736C212.627 203.849 187.094 210.446 185.123 211.435C183.152 212.424 181.148 214.126 181.148 214.126L182.034 216.161C182.034 216.161 182.977 219.307 183.328 220.998C183.678 222.688 183.898 223.925 183.898 223.925Z" fill="#ECECEC"/>
<path fill-rule="evenodd" clip-rule="evenodd" d="M192.435 159.348C199.443 160.79 203.472 158.812 204.392 155.308C205.313 151.804 202.815 150.196 201.151 148.547C199.487 146.898 196.684 142.033 196.552 141.621C196.045 140.029 184.01 130.787 179.513 132.691C179.513 132.691 181.135 136.798 181.529 141.456C181.923 146.113 181.092 149.453 181.092 149.453C181.092 149.453 185.427 157.904 192.435 159.348Z" fill="#FFC3AE"/>
<path fill-rule="evenodd" clip-rule="evenodd" d="M197.561 143.448C196.997 142.501 196.599 141.769 196.552 141.62C196.045 140.027 184.01 130.786 179.513 132.69C179.513 132.69 181.135 136.797 181.529 141.454C181.562 141.846 181.584 142.225 181.601 142.597C186.014 143.985 192.404 145.274 197.561 143.448Z" fill="#F4AF9A"/>
<path fill-rule="evenodd" clip-rule="evenodd" d="M182.22 126.047L181.87 129.847C181.87 129.847 179.913 126.014 178.719 124.567C177.525 123.12 175.81 122.318 174.118 123.121C172.426 123.925 173.1 127.472 175.212 130.288C177.323 133.104 181.293 133.027 181.293 133.027C181.293 133.027 181.855 134.1 184.457 137.233C187.059 140.367 192.613 142.832 198.315 140.76C204.016 138.687 204.476 131.846 204.587 123.865C204.696 115.884 201.724 103.956 201.724 103.956C201.724 103.956 201.121 103.921 199.901 103.321C198.682 102.721 197.598 101.565 197.598 101.565C197.598 101.565 197.667 102.015 195.43 105.917C193.194 109.82 186.761 112.604 186.761 112.604C186.761 112.604 187.093 112.751 186.592 117.299C186.091 121.848 182.22 126.047 182.22 126.047Z" fill="#FFC3AE"/>
<path fill-rule="evenodd" clip-rule="evenodd" d="M192.264 220.009C193.796 221.905 198.571 222.729 201.724 223.019C204.877 223.308 220.95 224.338 234.966 222.277C248.981 220.215 255.725 217.33 255.725 217.33C255.725 217.33 262.995 218.402 266.411 216.258C269.827 214.115 268.345 209.274 268.345 209.274C268.345 209.274 263.258 205.789 261.594 205.706C259.93 205.623 254.937 209.086 251.52 209.581C248.105 210.075 234.002 209.581 222.439 208.096C210.876 206.612 203.519 204.716 203.519 204.716C200.749 197.342 180.324 148.566 168.83 153.346C165.548 154.711 162.989 160.292 164.159 165.231C165.329 170.17 174.483 187.979 177.11 193.75C179.738 199.521 190.73 218.113 192.264 220.009Z" fill="#FFC3AE"/>
<path fill-rule="evenodd" clip-rule="evenodd" d="M197.56 216.67C186.574 213.559 166.903 172.315 166.903 172.315C170.158 179.623 175.255 189.678 177.109 193.749C179.737 199.52 190.73 218.113 192.263 220.008C193.795 221.904 198.57 222.729 201.723 223.018C204.876 223.307 220.949 224.337 234.965 222.276C248.98 220.215 255.724 217.33 255.724 217.33C255.724 217.33 256.835 217.491 258.386 217.562C258.527 216.572 258.534 215.968 258.534 215.968C258.534 215.968 208.546 219.78 197.56 216.67Z" fill="#F4AF9A"/>
<path fill-rule="evenodd" clip-rule="evenodd" d="M289.759 89.5924C284.985 94.2092 284.37 98.5777 284.37 98.5777C284.37 98.5777 286.072 118.779 288.487 123.559C291.506 129.538 302.971 130.139 308.489 124.78C314.007 119.42 314.063 114.489 314.063 114.489C314.063 114.489 316.124 116.056 318.183 114.531C320.242 113.005 322.65 109.049 322.431 104.72C322.212 100.391 319.146 99.4838 317.175 102.204C315.204 104.925 315.598 110.532 315.598 110.532L313.452 110.862C313.452 110.862 312.884 104.679 313.19 102.7C313.497 100.721 313.54 100.433 313.54 100.433C313.54 100.433 306.84 97.506 304.65 90.5802C302.459 83.6545 303.029 82.9536 303.029 82.9536C303.029 82.9536 294.534 84.9756 289.759 89.5924Z" fill="#FFC3AE"/>
<path fill-rule="evenodd" clip-rule="evenodd" d="M263.976 222.778C268.619 221.129 274.399 218.037 275.056 216.388C275.713 214.739 274.837 209.38 273.173 207.484C271.004 205.012 267.276 205.377 264.721 206.948C262.575 208.267 255.725 217.33 255.725 217.33L248.606 219.573C248.606 219.573 248.954 221.624 252.064 223.19C255.174 224.757 259.334 224.427 263.976 222.778Z" fill="#FFC3AE"/>
<path d="M293.384 270.642L282.114 405.695L282.857 405.75L294.126 270.697L293.384 270.642Z" fill="#4C4F89"/>
<path fill-rule="evenodd" clip-rule="evenodd" d="M333.303 208.268C333.303 208.268 338.898 196.492 342.062 178.257C345.226 160.021 346.411 143.137 340.572 135.796C336.082 130.152 327.427 133.048 325.025 137.533C318.822 149.122 315.037 178.184 314.908 193.593C314.908 193.593 311.317 194.912 300.63 197.798C289.943 200.684 271.286 205.878 271.286 205.878L273.739 217.751C273.739 217.751 273.739 217.751 293.798 216.515C313.859 215.275 333.303 208.268 333.303 208.268Z" fill="#5E5F9D"/>
<path fill-rule="evenodd" clip-rule="evenodd" d="M342.063 178.256C345.046 161.066 346.267 145.083 341.508 137.156C341.695 149.092 334.438 199.741 325.805 204.975C318.148 209.617 284.316 214.055 273.256 215.405L273.74 217.749C273.74 217.749 273.74 217.749 293.8 216.513C313.859 215.276 333.303 208.269 333.303 208.269C333.303 208.269 338.899 196.491 342.063 178.256Z" fill="#4C4F89"/>
<path d="M280.974 203.554L280.759 202.883L314.537 193.331C314.538 191.546 314.598 180.939 315.781 169.303C317.521 152.197 320.734 141.128 325.329 136.403L325.878 136.877C315.155 147.902 315.279 193.135 315.281 193.591L315.282 193.852L280.974 203.554Z" fill="#4C4F89"/>
<path d="M310.28 145.09L304.356 137.668L297.066 143.659L296.576 143.131L304.47 136.644L310.874 144.669L310.28 145.09Z" fill="#B6BAD8"/>
<path fill-rule="evenodd" clip-rule="evenodd" d="M303.7 144.879L308.49 142.262L304.414 137.154L299.099 141.523L300.891 144.878L293.5 161.816C292.894 169.418 292.892 177.784 294.195 185.992C294.195 185.992 298.39 173.943 303.769 160.827L303.7 144.879Z" fill="#E16567"/>
<path d="M277.915 179.209C276.654 166.268 280.552 144.51 280.592 144.292L281.326 144.41C281.286 144.627 277.406 166.296 278.657 179.145L277.915 179.209Z" fill="#4C4F89"/>
<path d="M308.285 157.115L307.698 156.681L322.033 139.529L319.799 132.534L320.512 132.333L322.857 139.677L308.285 157.115Z" fill="#4C4F89"/>
<path d="M291.545 196.082L290.927 195.692L313.102 164.601L310.216 153.89L310.938 153.718L313.905 164.733L291.545 196.082Z" fill="#4C4F89"/>
<path d="M291.15 162.714L287.414 150.562L287.469 150.445L294.864 134.771L295.545 135.055L288.204 150.612L291.865 162.518L291.15 162.714Z" fill="#4C4F89"/>
<path d="M290.875 188.942L283.969 164.464L289.12 156.712L289.751 157.084L284.772 164.577L291.595 188.762L290.875 188.942Z" fill="#4C4F89"/>
<path d="M289.064 262.158C287.744 239.535 289.049 215.177 289.064 214.935L289.807 214.971C289.794 215.214 288.49 239.535 289.807 262.12L289.064 262.158Z" fill="#4C4F89"/>
<path d="M322.808 209.222L322.068 209.295L326.519 249.555L327.259 249.482L322.808 209.222Z" fill="#4C4F89"/>
<path d="M198.98 129.642C198.862 129.642 198.746 129.589 198.673 129.491C198.557 129.332 198.599 129.114 198.768 129.005C200.356 127.976 200.423 126.976 200.321 126.47C200.201 125.877 199.73 125.376 199.174 125.253C197.596 124.906 197.146 121.067 197.073 120.301C197.054 120.108 197.205 119.938 197.409 119.92C197.617 119.902 197.795 120.045 197.814 120.237C197.973 121.885 198.57 124.401 199.343 124.57C200.189 124.755 200.876 125.467 201.051 126.339C201.281 127.483 200.602 128.663 199.189 129.58C199.127 129.623 199.053 129.642 198.98 129.642Z" fill="#E8907C"/>
<path d="M198.397 134.77C196.712 134.77 195.256 133.926 195.183 133.883C195.009 133.78 194.956 133.564 195.065 133.4C195.174 133.237 195.404 133.187 195.578 133.289C195.597 133.3 197.507 134.403 199.284 133.967C200.171 133.749 200.891 133.176 201.424 132.265C201.524 132.095 201.749 132.035 201.93 132.127C202.11 132.221 202.176 132.434 202.076 132.603C201.44 133.692 200.561 134.378 199.467 134.646C199.107 134.734 198.746 134.77 198.397 134.77Z" fill="#E8907C"/>
<path fill-rule="evenodd" clip-rule="evenodd" d="M203.152 120.862C203.294 121.829 202.934 122.673 202.349 122.749C201.764 122.826 201.174 122.104 201.032 121.137C200.89 120.17 201.25 119.326 201.836 119.25C202.422 119.174 203.011 119.896 203.152 120.862Z" fill="#332B28"/>
<path fill-rule="evenodd" clip-rule="evenodd" d="M203.083 124.038C204.104 123.863 205.016 124.164 205.123 124.711C205.229 125.258 204.489 125.845 203.469 126.02C202.449 126.196 201.537 125.894 201.43 125.348C201.323 124.8 202.065 124.214 203.083 124.038Z" fill="#F9A19D"/>
<path fill-rule="evenodd" clip-rule="evenodd" d="M192.322 125.489C193.342 125.314 194.254 125.615 194.361 126.162C194.468 126.709 193.728 127.296 192.708 127.471C191.689 127.647 190.775 127.345 190.668 126.798C190.562 126.252 191.302 125.665 192.322 125.489Z" fill="#F9A19D"/>
<path fill-rule="evenodd" clip-rule="evenodd" d="M193.574 122.251C193.716 123.218 193.356 124.062 192.771 124.139C192.186 124.215 191.596 123.493 191.454 122.526C191.312 121.559 191.672 120.715 192.257 120.639C192.844 120.563 193.432 121.284 193.574 122.251Z" fill="#332B28"/>
<path d="M199.085 117.974C199.057 117.974 199.03 117.971 199.002 117.966C198.801 117.923 198.676 117.735 198.722 117.547C198.746 117.445 199.354 115.026 201.659 114.485C202.771 114.22 204.324 114.823 204.889 116.253C204.961 116.434 204.862 116.636 204.67 116.703C204.478 116.769 204.263 116.678 204.192 116.497C203.727 115.321 202.516 115.007 201.839 115.164C199.983 115.602 199.452 117.682 199.447 117.703C199.408 117.864 199.255 117.974 199.085 117.974Z" fill="#332B28"/>
<path d="M187.93 120.119C187.922 120.119 187.914 120.119 187.904 120.117C187.699 120.104 187.544 119.938 187.558 119.744C187.568 119.614 187.813 116.549 190.399 115.814C193.018 115.069 195.016 118.14 195.1 118.271C195.206 118.437 195.15 118.652 194.974 118.751C194.798 118.85 194.569 118.797 194.462 118.633C194.445 118.605 192.678 115.902 190.614 116.485C188.523 117.079 188.303 119.764 188.301 119.791C188.288 119.976 188.125 120.119 187.93 120.119Z" fill="#332B28"/>
<path d="M292.839 114.809C292.787 114.809 292.733 114.798 292.681 114.776C291.13 114.086 290.257 113.023 290.289 111.86C290.314 110.973 290.869 110.167 291.674 109.855C292.408 109.57 292.565 106.996 292.441 105.346C292.425 105.153 292.58 104.985 292.785 104.972C292.989 104.95 293.169 105.103 293.183 105.296C293.241 106.063 293.455 109.922 291.958 110.503C291.43 110.707 291.05 111.273 291.033 111.877C291.019 112.39 291.257 113.367 292.999 114.141C293.185 114.224 293.264 114.433 293.177 114.608C293.112 114.735 292.979 114.809 292.839 114.809Z" fill="#E8907C"/>
<path fill-rule="evenodd" clip-rule="evenodd" d="M297.058 117.773C297.058 117.773 293.754 121.302 290.604 118.376L297.058 117.773Z" fill="#E8907C"/>
<path d="M303.795 99.9434C303.803 99.9412 303.811 99.9379 303.819 99.9356C304.011 99.8639 304.103 99.6608 304.027 99.4809C303.977 99.3595 302.743 96.5142 300.041 96.5616C297.307 96.6102 296.406 100.109 296.369 100.258C296.322 100.447 296.446 100.634 296.646 100.678C296.845 100.721 297.047 100.606 297.093 100.418C297.1 100.387 297.901 97.3033 300.055 97.2614C302.239 97.2227 303.325 99.7138 303.335 99.7392C303.409 99.9114 303.611 99.9997 303.795 99.9434Z" fill="#332B28"/>
<path d="M292.588 100.875C292.596 100.872 292.605 100.869 292.612 100.867C292.803 100.795 292.895 100.592 292.82 100.412C292.769 100.291 291.536 97.4442 288.835 97.4928C286.1 97.5403 285.2 101.04 285.162 101.189C285.115 101.378 285.24 101.565 285.439 101.61C285.638 101.654 285.84 101.537 285.887 101.349C285.894 101.318 286.694 98.2345 288.849 98.1926C291.032 98.1539 292.118 100.645 292.129 100.67C292.202 100.843 292.404 100.93 292.588 100.875Z" fill="#332B28"/>
<path fill-rule="evenodd" clip-rule="evenodd" d="M173.164 121C173.164 121 170.539 95.5029 181.149 92.524L187.778 91.7559C189.243 91.7559 189.228 92.4368 188.876 92.6907C185.545 95.099 175.347 103.2 173.164 121Z" fill="#F7F0E4"/>
<path d="M299.842 105.419C299.842 106.451 299.245 107.287 298.509 107.287C297.772 107.287 297.176 106.451 297.176 105.419C297.176 104.387 297.772 103.55 298.509 103.55C299.245 103.55 299.842 104.387 299.842 105.419Z" fill="#332B28"/>
<path d="M288.999 106.295C288.999 107.327 288.402 108.164 287.666 108.164C286.929 108.164 286.332 107.327 286.332 106.295C286.332 105.263 286.929 104.427 287.666 104.427C288.402 104.427 288.999 105.263 288.999 106.295Z" fill="#332B28"/>
</svg>
