<svg width="324" height="142" viewBox="0 0 324 142" fill="none" xmlns="http://www.w3.org/2000/svg">
<path d="M62.4219 42.6562C66.0781 44.5312 68.8594 47.2188 70.7656 50.7188C72.7031 54.1875 73.6719 57.9375 73.6719 61.9688C73.6719 64.9062 73.1875 67.7188 72.2188 70.4062C71.2812 73.0938 69.9219 75.4531 68.1406 77.4844C66.3906 79.4844 64.2656 81.0781 61.7656 82.2656C59.2656 83.4531 56.4531 84.0469 53.3281 84.0469C50.6406 84.0469 48.0625 83.6562 45.5938 82.875C43.125 82.125 40.7656 81.1094 38.5156 79.8281C36.2969 78.5469 34.1719 77.0625 32.1406 75.375C30.1406 73.6562 28.2031 71.875 26.3281 70.0312L25.9531 69.6562C25.3906 69.0625 24.7031 68.4375 23.8906 67.7812C23.1094 67.0938 22.2812 66.4688 21.4062 65.9062C20.5312 65.3438 19.625 64.875 18.6875 64.5C17.7812 64.0938 16.875 63.8906 15.9688 63.8906C13.875 63.8906 12.2344 64.5469 11.0469 65.8594C9.85938 67.1719 9.26562 68.8438 9.26562 70.875C9.26562 72.6875 9.71875 74.2188 10.625 75.4688C11.5625 76.7188 13.0625 77.3438 15.125 77.3438C14.875 76.8125 14.75 76.2344 14.75 75.6094C14.75 74.0781 15.3125 72.7656 16.4375 71.6719C17.5938 70.5781 19.0156 70.0312 20.7031 70.0312C22.3594 70.0312 23.75 70.5781 24.875 71.6719C26.0312 72.7656 26.6094 74.0781 26.6094 75.6094C26.6094 75.9219 26.5781 76.25 26.5156 76.5938C26.4531 76.9062 26.3594 77.2188 26.2344 77.5312L26.1406 77.7188C25.7656 78.75 25.1562 79.6875 24.3125 80.5312C23.5 81.4062 22.5781 82.1562 21.5469 82.7812C20.5156 83.4375 19.4219 83.9375 18.2656 84.2812C17.1094 84.625 16.0312 84.7969 15.0312 84.7969C12.9688 84.7969 11.0781 84.4531 9.35938 83.7656C7.64062 83.1094 6.15625 82.1562 4.90625 80.9062C3.65625 79.6875 2.67188 78.2344 1.95312 76.5469C1.26562 74.8281 0.921875 72.9375 0.921875 70.875C0.921875 68.7188 1.29688 66.7656 2.04688 65.0156C2.82812 63.2344 3.89062 61.7188 5.23438 60.4688C6.57812 59.2188 8.17188 58.25 10.0156 57.5625C11.8906 56.8438 13.875 56.4844 15.9688 56.4844C17.625 56.4844 19.1562 56.7344 20.5625 57.2344C22 57.7031 23.3281 58.3281 24.5469 59.1094C25.7969 59.8594 27 60.75 28.1562 61.7812C29.3125 62.8125 30.4375 63.9062 31.5312 65.0625L31.9062 65.4375C32.2188 65.75 32.3594 65.8906 32.3281 65.8594C32.2969 65.8281 32.4844 65.9688 32.8906 66.2812V27.0469L31.25 25.2188L41.2344 22.0312V38.7188H41.1406C42.7344 39.4375 44.7188 39.7969 47.0938 39.7969H49.2031H49.3906C51.7656 39.6094 53.6875 39.0625 55.1562 38.1562C56.625 37.25 57.75 36.2344 58.5312 35.1094C59.3438 33.9531 59.8906 32.7344 60.1719 31.4531C60.4531 30.1719 60.5938 29.0156 60.5938 27.9844C60.5938 25.1094 59.9688 22.8437 58.7188 21.1875C57.5 19.5 56.0469 18.2656 54.3594 17.4844C52.7031 16.6719 51.0312 16.1563 49.3438 15.9375C47.6562 15.7187 46.3594 15.6094 45.4531 15.6094H43.1562C41.3438 15.6094 39.4844 15.875 37.5781 16.4062C35.6719 16.9063 33.8906 17.6875 32.2344 18.75C30.6094 19.7812 29.2344 21.0938 28.1094 22.6875C26.9844 24.25 26.2969 26.0469 26.0469 28.0781C27.4531 28.3281 28.6094 28.9375 29.5156 29.9062C30.4219 30.875 30.875 32 30.875 33.2812C30.875 34.75 30.2812 36 29.0938 37.0312C27.9062 38.0312 26.4844 38.5312 24.8281 38.5312C23.2031 38.5312 21.8125 38.0625 20.6562 37.125C19.5312 36.1562 18.9375 34.9375 18.875 33.4688C18.8125 32.9375 18.75 32.4531 18.6875 32.0156C18.6562 31.5781 18.6406 31.0938 18.6406 30.5625C18.6406 27.1875 19.2969 24.125 20.6094 21.375C21.9219 18.625 23.6875 16.2812 25.9062 14.3438C28.125 12.375 30.7188 10.8594 33.6875 9.79688C36.6562 8.73437 39.8125 8.20312 43.1562 8.20312H45.4531C49.0469 8.20312 52.2969 8.67188 55.2031 9.60938C58.1094 10.5156 60.5781 11.8438 62.6094 13.5938C64.6719 15.3125 66.2656 17.3906 67.3906 19.8281C68.5156 22.2656 69.0781 24.9844 69.0781 27.9844C69.0781 30.7969 68.5312 33.5 67.4375 36.0938C66.3438 38.6875 64.6719 40.875 62.4219 42.6562ZM52.3438 77.0625C54.4688 77.0625 56.3281 76.6406 57.9219 75.7969C59.5156 74.9531 60.8594 73.8438 61.9531 72.4688C63.0469 71.0938 63.875 69.5 64.4375 67.6875C65.0312 65.8438 65.3281 63.9375 65.3281 61.9688C65.3281 57.0312 63.8594 53.3594 60.9219 50.9531C58.0156 48.5156 54.2656 47.2656 49.6719 47.2031C49.3594 47.2031 49.0312 47.2188 48.6875 47.25C48.375 47.2812 48.0625 47.2969 47.75 47.2969H47.2812C45.2188 47.4219 43.2031 47.6094 41.2344 47.8594V73.3125L40.9531 73.125C42.6094 74.25 44.4062 75.1875 46.3438 75.9375C48.3125 76.6875 50.3125 77.0625 52.3438 77.0625ZM86.4219 78H76.8125L77.7031 75.375V17.3906H77.75L76.0625 15.4688L85.5312 12.5156L85.4844 75.375L86.4219 78ZM111.922 30.75C115.359 30.75 118.453 31.375 121.203 32.625C123.953 33.8438 126.281 35.5312 128.188 37.6875C130.094 39.8438 131.547 42.375 132.547 45.2812C133.578 48.1875 134.094 51.3125 134.094 54.6562C134.094 57.9688 133.578 61.0781 132.547 63.9844C131.547 66.8594 130.094 69.375 128.188 71.5312C126.281 73.6875 123.953 75.3906 121.203 76.6406C118.453 77.8594 115.359 78.4688 111.922 78.4688C108.453 78.4688 105.344 77.8594 102.594 76.6406C99.8438 75.3906 97.5156 73.6875 95.6094 71.5312C93.7031 69.375 92.25 66.8594 91.25 63.9844C90.25 61.0781 89.75 57.9688 89.75 54.6562C89.75 51.3125 90.25 48.1875 91.25 45.2812C92.25 42.375 93.7031 39.8438 95.6094 37.6875C97.5156 35.5312 99.8438 33.8438 102.594 32.625C105.344 31.375 108.453 30.75 111.922 30.75ZM105.5 70.125C107.312 71.0312 109.453 71.4844 111.922 71.4844C114.391 71.4844 116.516 71.0312 118.297 70.125C120.109 69.2188 121.594 68 122.75 66.4688C123.938 64.9062 124.812 63.1094 125.375 61.0781C125.938 59.0469 126.219 56.9062 126.219 54.6562C126.219 52.4062 125.938 50.2656 125.375 48.2344C124.812 46.2031 123.938 44.4219 122.75 42.8906C121.594 41.3594 120.109 40.1406 118.297 39.2344C116.516 38.3281 114.391 37.875 111.922 37.875C109.453 37.875 107.312 38.3281 105.5 39.2344C103.719 40.1406 102.234 41.3594 101.047 42.8906C99.8906 44.4219 99.0156 46.2031 98.4219 48.2344C97.8594 50.2656 97.5781 52.4062 97.5781 54.6562C97.5781 56.9062 97.8594 59.0625 98.4219 61.125C99.0156 63.1562 99.8906 64.9375 101.047 66.4688C102.234 68 103.719 69.2188 105.5 70.125ZM154.531 49.7344C156.25 50.4219 157.969 51.2188 159.688 52.125C161.438 53.0312 163 54.1094 164.375 55.3594C165.781 56.5781 166.922 58 167.797 59.625C168.672 61.25 169.109 63.125 169.109 65.25C169.109 67.3125 168.609 69.1562 167.609 70.7812C166.609 72.4062 165.312 73.7812 163.719 74.9062C162.156 76.0312 160.406 76.8906 158.469 77.4844C156.531 78.0781 154.625 78.375 152.75 78.375C150.812 78.375 148.875 78.0781 146.938 77.4844C145 76.8594 143.25 75.9844 141.688 74.8594C140.156 73.7031 138.906 72.2969 137.938 70.6406C137 68.9531 136.531 67.0469 136.531 64.9219C136.531 63.9844 136.656 63.0938 136.906 62.25C137.156 61.4062 137.531 60.6719 138.031 60.0469C138.562 59.4219 139.203 58.9219 139.953 58.5469C140.734 58.1719 141.656 57.9844 142.719 57.9844H142.906C143.656 58.0156 144.375 58.1875 145.062 58.5C145.75 58.7812 146.344 59.1719 146.844 59.6719C147.375 60.1719 147.781 60.7656 148.062 61.4531C148.375 62.1094 148.531 62.8281 148.531 63.6094C148.531 65.6406 147.625 67.1875 145.812 68.25C146.594 69.25 147.641 70 148.953 70.5C150.266 70.9688 151.531 71.2031 152.75 71.2031C153.594 71.2031 154.516 71.0781 155.516 70.8281C156.516 70.5469 157.438 70.1562 158.281 69.6562C159.125 69.1562 159.828 68.5469 160.391 67.8281C160.953 67.0781 161.234 66.2188 161.234 65.25C161.234 64.0312 160.891 62.9531 160.203 62.0156C159.547 61.0469 158.719 60.2188 157.719 59.5312C156.719 58.8125 155.641 58.2031 154.484 57.7031C153.359 57.2031 152.344 56.7812 151.438 56.4375C150 55.875 148.5 55.2188 146.938 54.4688C145.406 53.6875 143.984 52.7812 142.672 51.75C141.391 50.7188 140.328 49.5312 139.484 48.1875C138.641 46.8125 138.219 45.2344 138.219 43.4531C138.219 41.2656 138.656 39.375 139.531 37.7812C140.406 36.1875 141.547 34.875 142.953 33.8438C144.391 32.7812 146.031 32 147.875 31.5C149.719 31 151.625 30.75 153.594 30.75C155.25 30.75 156.906 31.0156 158.562 31.5469C160.219 32.0469 161.703 32.7812 163.016 33.75C164.328 34.7188 165.391 35.9219 166.203 37.3594C167.047 38.7656 167.469 40.3906 167.469 42.2344C167.469 43.0781 167.344 43.9688 167.094 44.9062C166.656 46 165.953 46.875 164.984 47.5312C164.016 48.1562 162.938 48.4688 161.75 48.4688H161.656C161 48.4688 160.344 48.3594 159.688 48.1406C159.031 47.8906 158.438 47.5469 157.906 47.1094C157.375 46.6719 156.938 46.1562 156.594 45.5625C156.281 44.9688 156.125 44.3281 156.125 43.6406C156.125 42.8906 156.344 42.0938 156.781 41.25C157.25 40.375 157.844 39.5781 158.562 38.8594C156.875 37.7656 154.969 37.2188 152.844 37.2188H152.75C150.594 37.2188 148.938 37.7031 147.781 38.6719C146.656 39.6094 146.094 41.2031 146.094 43.4531C146.094 44.1719 146.266 44.75 146.609 45.1875C146.953 45.625 147.281 45.9375 147.594 46.125C148.5 46.9062 149.531 47.5781 150.688 48.1406C151.875 48.7031 153.156 49.2344 154.531 49.7344ZM189.5 49.7344C191.219 50.4219 192.938 51.2188 194.656 52.125C196.406 53.0312 197.969 54.1094 199.344 55.3594C200.75 56.5781 201.891 58 202.766 59.625C203.641 61.25 204.078 63.125 204.078 65.25C204.078 67.3125 203.578 69.1562 202.578 70.7812C201.578 72.4062 200.281 73.7812 198.688 74.9062C197.125 76.0312 195.375 76.8906 193.438 77.4844C191.5 78.0781 189.594 78.375 187.719 78.375C185.781 78.375 183.844 78.0781 181.906 77.4844C179.969 76.8594 178.219 75.9844 176.656 74.8594C175.125 73.7031 173.875 72.2969 172.906 70.6406C171.969 68.9531 171.5 67.0469 171.5 64.9219C171.5 63.9844 171.625 63.0938 171.875 62.25C172.125 61.4062 172.5 60.6719 173 60.0469C173.531 59.4219 174.172 58.9219 174.922 58.5469C175.703 58.1719 176.625 57.9844 177.688 57.9844H177.875C178.625 58.0156 179.344 58.1875 180.031 58.5C180.719 58.7812 181.312 59.1719 181.812 59.6719C182.344 60.1719 182.75 60.7656 183.031 61.4531C183.344 62.1094 183.5 62.8281 183.5 63.6094C183.5 65.6406 182.594 67.1875 180.781 68.25C181.562 69.25 182.609 70 183.922 70.5C185.234 70.9688 186.5 71.2031 187.719 71.2031C188.562 71.2031 189.484 71.0781 190.484 70.8281C191.484 70.5469 192.406 70.1562 193.25 69.6562C194.094 69.1562 194.797 68.5469 195.359 67.8281C195.922 67.0781 196.203 66.2188 196.203 65.25C196.203 64.0312 195.859 62.9531 195.172 62.0156C194.516 61.0469 193.688 60.2188 192.688 59.5312C191.688 58.8125 190.609 58.2031 189.453 57.7031C188.328 57.2031 187.312 56.7812 186.406 56.4375C184.969 55.875 183.469 55.2188 181.906 54.4688C180.375 53.6875 178.953 52.7812 177.641 51.75C176.359 50.7188 175.297 49.5312 174.453 48.1875C173.609 46.8125 173.188 45.2344 173.188 43.4531C173.188 41.2656 173.625 39.375 174.5 37.7812C175.375 36.1875 176.516 34.875 177.922 33.8438C179.359 32.7812 181 32 182.844 31.5C184.688 31 186.594 30.75 188.562 30.75C190.219 30.75 191.875 31.0156 193.531 31.5469C195.188 32.0469 196.672 32.7812 197.984 33.75C199.297 34.7188 200.359 35.9219 201.172 37.3594C202.016 38.7656 202.438 40.3906 202.438 42.2344C202.438 43.0781 202.312 43.9688 202.062 44.9062C201.625 46 200.922 46.875 199.953 47.5312C198.984 48.1562 197.906 48.4688 196.719 48.4688H196.625C195.969 48.4688 195.312 48.3594 194.656 48.1406C194 47.8906 193.406 47.5469 192.875 47.1094C192.344 46.6719 191.906 46.1562 191.562 45.5625C191.25 44.9688 191.094 44.3281 191.094 43.6406C191.094 42.8906 191.312 42.0938 191.75 41.25C192.219 40.375 192.812 39.5781 193.531 38.8594C191.844 37.7656 189.938 37.2188 187.812 37.2188H187.719C185.562 37.2188 183.906 37.7031 182.75 38.6719C181.625 39.6094 181.062 41.2031 181.062 43.4531C181.062 44.1719 181.234 44.75 181.578 45.1875C181.922 45.625 182.25 45.9375 182.562 46.125C183.469 46.9062 184.5 47.5781 185.656 48.1406C186.844 48.7031 188.125 49.2344 189.5 49.7344ZM228.547 30.75C231.984 30.75 235.078 31.375 237.828 32.625C240.578 33.8438 242.906 35.5312 244.812 37.6875C246.719 39.8438 248.172 42.375 249.172 45.2812C250.203 48.1875 250.719 51.3125 250.719 54.6562C250.719 57.9688 250.203 61.0781 249.172 63.9844C248.172 66.8594 246.719 69.375 244.812 71.5312C242.906 73.6875 240.578 75.3906 237.828 76.6406C235.078 77.8594 231.984 78.4688 228.547 78.4688C225.078 78.4688 221.969 77.8594 219.219 76.6406C216.469 75.3906 214.141 73.6875 212.234 71.5312C210.328 69.375 208.875 66.8594 207.875 63.9844C206.875 61.0781 206.375 57.9688 206.375 54.6562C206.375 51.3125 206.875 48.1875 207.875 45.2812C208.875 42.375 210.328 39.8438 212.234 37.6875C214.141 35.5312 216.469 33.8438 219.219 32.625C221.969 31.375 225.078 30.75 228.547 30.75ZM222.125 70.125C223.938 71.0312 226.078 71.4844 228.547 71.4844C231.016 71.4844 233.141 71.0312 234.922 70.125C236.734 69.2188 238.219 68 239.375 66.4688C240.562 64.9062 241.438 63.1094 242 61.0781C242.562 59.0469 242.844 56.9062 242.844 54.6562C242.844 52.4062 242.562 50.2656 242 48.2344C241.438 46.2031 240.562 44.4219 239.375 42.8906C238.219 41.3594 236.734 40.1406 234.922 39.2344C233.141 38.3281 231.016 37.875 228.547 37.875C226.078 37.875 223.938 38.3281 222.125 39.2344C220.344 40.1406 218.859 41.3594 217.672 42.8906C216.516 44.4219 215.641 46.2031 215.047 48.2344C214.484 50.2656 214.203 52.4062 214.203 54.6562C214.203 56.9062 214.484 59.0625 215.047 61.125C215.641 63.1562 216.516 64.9375 217.672 66.4688C218.859 68 220.344 69.2188 222.125 70.125ZM321.453 78H311.75L312.594 75.375V46.0312C312.594 45 312.375 44.0156 311.938 43.0781C311.531 42.1094 310.969 41.2656 310.25 40.5469C309.562 39.7969 308.766 39.2031 307.859 38.7656C306.953 38.3281 306 38.0938 305 38.0625C303.062 38.1562 301.281 38.5312 299.656 39.1875C298.062 39.8438 296.688 40.8438 295.531 42.1875C294.406 43.5 293.516 45.1719 292.859 47.2031C292.234 49.2344 291.922 51.6875 291.922 54.5625V75.4688L292.812 78H283.109L284.094 75.375C284.062 70.4688 284.031 65.5938 284 60.75C284 55.875 284 50.9688 284 46.0312C283.969 44.9688 283.75 43.9688 283.344 43.0312C282.969 42.0938 282.438 41.2656 281.75 40.5469C281.062 39.7969 280.266 39.2031 279.359 38.7656C278.453 38.3281 277.453 38.0938 276.359 38.0625C274.391 38.125 272.594 38.5 270.969 39.1875C269.344 39.8438 267.938 40.7969 266.75 42.0469C264.312 44.5781 263.094 48.75 263.094 54.5625L263.047 75.375L263.984 78H254.375L255.266 75.375V35.4375L253.625 33.6094L263.094 30.6094V37.9688C264.594 35.5 266.453 33.6875 268.672 32.5312C270.922 31.3438 273.484 30.75 276.359 30.75C277.953 30.75 279.484 30.9688 280.953 31.4062C282.422 31.8438 283.766 32.4844 284.984 33.3281C286.234 34.1406 287.328 35.125 288.266 36.2812C289.234 37.4062 290.016 38.6719 290.609 40.0781C292.109 36.8594 294.062 34.5 296.469 33C298.906 31.5 301.75 30.75 305 30.75C307.125 30.75 309.125 31.1562 311 31.9688C312.875 32.7812 314.516 33.875 315.922 35.25C317.359 36.625 318.484 38.25 319.297 40.125C320.141 41.9688 320.562 43.9375 320.562 46.0312V75.375L321.453 78Z" fill="white"/>
<path d="M17.2603 113.736C14.7216 113.736 12.8976 115.389 11.7883 118.696C11.7669 118.76 11.7029 118.792 11.5963 118.792C11.4896 118.771 11.4363 118.728 11.4363 118.664C11.5216 117.811 11.6176 116.712 11.7243 115.368C11.8309 114.003 11.8843 112.979 11.8843 112.296C11.8843 112.189 11.9376 112.136 12.0443 112.136C12.1723 112.136 12.2363 112.189 12.2363 112.296C12.2363 112.765 12.8443 113 14.0603 113C15.8949 113.064 18.0389 113.096 20.4923 113.096C21.7509 113.096 23.0843 113.075 24.4923 113.032L26.6683 113C27.4789 113 28.0656 112.947 28.4283 112.84C28.8123 112.733 29.0576 112.52 29.1643 112.2C29.1856 112.115 29.2496 112.072 29.3563 112.072C29.4843 112.072 29.5483 112.115 29.5483 112.2C29.4843 112.84 29.4096 113.864 29.3243 115.272C29.2603 116.68 29.2283 117.811 29.2283 118.664C29.2283 118.728 29.1749 118.76 29.0683 118.76C28.9616 118.76 28.8976 118.728 28.8763 118.664C28.5563 117.021 27.9589 115.795 27.0843 114.984C26.2096 114.152 25.1323 113.736 23.8523 113.736C23.2336 113.736 22.8176 113.875 22.6043 114.152C22.4123 114.408 22.3163 114.909 22.3163 115.656V130.408C22.3163 131.069 22.3803 131.549 22.5083 131.848C22.6363 132.147 22.8816 132.349 23.2443 132.456C23.6069 132.563 24.1829 132.616 24.9723 132.616C25.0363 132.616 25.0683 132.68 25.0683 132.808C25.0683 132.936 25.0363 133 24.9723 133C24.2043 133 23.5963 132.989 23.1483 132.968L20.4923 132.936L17.9003 132.968C17.4523 132.989 16.8336 133 16.0443 133C15.9803 133 15.9483 132.936 15.9483 132.808C15.9483 132.68 15.9803 132.616 16.0443 132.616C16.8123 132.616 17.3776 132.563 17.7403 132.456C18.1243 132.349 18.3803 132.147 18.5083 131.848C18.6576 131.528 18.7323 131.048 18.7323 130.408V115.592C18.7323 114.867 18.6363 114.376 18.4443 114.12C18.2523 113.864 17.8576 113.736 17.2603 113.736ZM48.0948 115.656C48.0948 115.016 48.0308 114.547 47.9028 114.248C47.7748 113.928 47.5294 113.704 47.1667 113.576C46.8041 113.448 46.2281 113.384 45.4388 113.384C45.3748 113.384 45.3428 113.32 45.3428 113.192C45.3428 113.064 45.3748 113 45.4388 113L47.0068 113.032C48.0734 113.075 49.0334 113.096 49.8868 113.096C50.4628 113.096 51.2841 113.075 52.3508 113.032L54.1428 113C54.2068 113 54.2388 113.064 54.2388 113.192C54.2388 113.32 54.2068 113.384 54.1428 113.384C53.4174 113.384 52.8734 113.448 52.5108 113.576C52.1694 113.683 51.9348 113.885 51.8068 114.184C51.7001 114.483 51.6468 114.952 51.6468 115.592V130.408C51.6468 131.048 51.7001 131.528 51.8068 131.848C51.9348 132.147 52.1694 132.349 52.5108 132.456C52.8521 132.563 53.3961 132.616 54.1428 132.616C54.2068 132.616 54.2388 132.68 54.2388 132.808C54.2388 132.936 54.2068 133 54.1428 133C53.3961 133 52.7988 132.989 52.3508 132.968L49.8868 132.936L47.0068 132.968C46.6228 132.989 46.1001 133 45.4388 133C45.3748 133 45.3428 132.936 45.3428 132.808C45.3428 132.68 45.3748 132.616 45.4388 132.616C46.2281 132.616 46.8041 132.563 47.1667 132.456C47.5294 132.349 47.7748 132.147 47.9028 131.848C48.0308 131.549 48.0948 131.069 48.0948 130.408V115.656ZM35.8708 122.152H49.7268V123.048H35.8708V122.152ZM34.2068 115.592C34.2068 114.952 34.1428 114.483 34.0148 114.184C33.8868 113.885 33.6521 113.683 33.3108 113.576C32.9907 113.448 32.4681 113.384 31.7428 113.384C31.6788 113.384 31.6468 113.32 31.6468 113.192C31.6468 113.064 31.6788 113 31.7428 113L33.4708 113.032C34.4521 113.075 35.2414 113.096 35.8388 113.096C36.6494 113.096 37.5881 113.075 38.6548 113.032L40.4148 113C40.4574 113 40.4788 113.064 40.4788 113.192C40.4788 113.32 40.4574 113.384 40.4148 113.384C39.6468 113.384 39.0814 113.448 38.7188 113.576C38.3561 113.704 38.1001 113.928 37.9508 114.248C37.8228 114.547 37.7588 115.016 37.7588 115.656V130.408C37.7588 131.048 37.8228 131.528 37.9508 131.848C38.0788 132.147 38.3241 132.349 38.6868 132.456C39.0494 132.563 39.6254 132.616 40.4148 132.616C40.4574 132.616 40.4788 132.68 40.4788 132.808C40.4788 132.936 40.4574 133 40.4148 133C39.6681 133 39.0708 132.989 38.6228 132.968L35.8388 132.936L33.4388 132.968C33.0121 132.989 32.4254 133 31.6788 133C31.6361 133 31.6148 132.936 31.6148 132.808C31.6148 132.68 31.6361 132.616 31.6788 132.616C32.4254 132.616 32.9694 132.563 33.3108 132.456C33.6521 132.349 33.8868 132.147 34.0148 131.848C34.1428 131.528 34.2068 131.048 34.2068 130.408V115.592ZM56.4683 133C56.4043 133 56.3723 132.936 56.3723 132.808C56.3723 132.68 56.4043 132.616 56.4683 132.616C57.1509 132.616 57.6416 132.563 57.9403 132.456C58.2603 132.349 58.4736 132.147 58.5803 131.848C58.6869 131.528 58.7403 131.048 58.7403 130.408V115.592C58.7403 114.952 58.6869 114.483 58.5803 114.184C58.4736 113.885 58.2603 113.683 57.9403 113.576C57.6203 113.448 57.1296 113.384 56.4683 113.384C56.4043 113.384 56.3723 113.32 56.3723 113.192C56.3723 113.064 56.4043 113 56.4683 113H70.0363C70.2496 113 70.3563 113.096 70.3563 113.288L70.4203 117.544C70.4203 117.587 70.3563 117.619 70.2283 117.64C70.1216 117.661 70.0576 117.64 70.0363 117.576C69.6949 116.339 69.1189 115.421 68.3083 114.824C67.4976 114.227 66.4309 113.928 65.1083 113.928H64.1483C63.5083 113.928 63.0389 114.067 62.7403 114.344C62.4416 114.621 62.2923 115.048 62.2923 115.624V130.28C62.2923 130.899 62.4096 131.357 62.6443 131.656C62.8789 131.955 63.2523 132.104 63.7643 132.104H64.8203C66.4843 132.104 67.8176 131.763 68.8203 131.08C69.8229 130.397 70.5589 129.341 71.0283 127.912C71.0283 127.869 71.0709 127.848 71.1562 127.848C71.2203 127.848 71.2736 127.869 71.3162 127.912C71.3803 127.933 71.4123 127.955 71.4123 127.976C71.1989 129.64 71.0923 131.155 71.0923 132.52C71.0923 132.691 71.0603 132.819 70.9963 132.904C70.9323 132.968 70.8043 133 70.6123 133H56.4683ZM68.8203 125.864C68.8203 124.989 68.4789 124.307 67.7963 123.816C67.1349 123.304 66.1749 123.048 64.9163 123.048H60.5963V122.152H64.9483C66.1856 122.152 67.1349 121.939 67.7963 121.512C68.4576 121.085 68.7883 120.488 68.7883 119.72C68.7883 119.656 68.8416 119.624 68.9483 119.624C69.0763 119.624 69.1403 119.656 69.1403 119.72L69.1083 122.6L69.1403 124.136C69.1829 124.861 69.2043 125.437 69.2043 125.864C69.2043 125.907 69.1403 125.928 69.0123 125.928C68.8843 125.928 68.8203 125.907 68.8203 125.864ZM81.4005 133C81.3365 133 81.3045 132.936 81.3045 132.808C81.3045 132.68 81.3365 132.616 81.4005 132.616C82.1472 132.616 82.6912 132.563 83.0325 132.456C83.3738 132.349 83.5978 132.147 83.7045 131.848C83.8325 131.528 83.8965 131.048 83.8965 130.408V115.592C83.8965 114.952 83.8432 114.483 83.7365 114.184C83.6298 113.885 83.4165 113.683 83.0965 113.576C82.7765 113.448 82.2858 113.384 81.6245 113.384C81.5605 113.384 81.5285 113.32 81.5285 113.192C81.5285 113.064 81.5605 113 81.6245 113H95.1925C95.4058 113 95.5125 113.096 95.5125 113.288L95.5765 117.544C95.5765 117.587 95.5125 117.619 95.3845 117.64C95.2778 117.661 95.2138 117.64 95.1925 117.576C94.8512 116.339 94.2752 115.421 93.4645 114.824C92.6538 114.227 91.5872 113.928 90.2645 113.928H89.3045C88.6645 113.928 88.1952 114.067 87.8965 114.344C87.5978 114.621 87.4485 115.048 87.4485 115.624V130.28C87.4485 130.941 87.5338 131.432 87.7045 131.752C87.8752 132.072 88.1952 132.296 88.6645 132.424C89.1338 132.552 89.8698 132.616 90.8725 132.616C90.9152 132.616 90.9365 132.68 90.9365 132.808C90.9365 132.936 90.9152 133 90.8725 133C89.9978 133 89.3152 132.989 88.8245 132.968L85.5605 132.936L83.1605 132.968C82.7338 132.989 82.1472 133 81.4005 133ZM93.5925 126.216C93.5925 125.363 93.2512 124.691 92.5685 124.2C91.9072 123.688 90.9578 123.432 89.7205 123.432H85.7525V122.536H89.7525C90.9898 122.536 91.9285 122.323 92.5685 121.896C93.2298 121.448 93.5605 120.84 93.5605 120.072C93.5605 120.029 93.6245 120.008 93.7525 120.008C93.8805 120.008 93.9445 120.029 93.9445 120.072L93.9125 122.984C93.9125 123.667 93.9232 124.179 93.9445 124.52L93.9765 126.216C93.9765 126.28 93.9125 126.312 93.7845 126.312C93.6565 126.312 93.5925 126.28 93.5925 126.216ZM103.847 130.28C103.847 130.835 103.89 131.24 103.975 131.496C104.061 131.731 104.221 131.891 104.455 131.976C104.711 132.061 105.117 132.104 105.671 132.104H106.759C108.423 132.104 109.863 131.667 111.079 130.792C112.295 129.896 113.106 128.691 113.511 127.176C113.511 127.133 113.554 127.112 113.639 127.112C113.682 127.112 113.725 127.133 113.767 127.176C113.831 127.197 113.863 127.219 113.863 127.24C113.671 129.352 113.575 131.112 113.575 132.52C113.575 132.691 113.533 132.819 113.447 132.904C113.383 132.968 113.266 133 113.095 133H97.9913C97.9486 133 97.9273 132.936 97.9273 132.808C97.9273 132.68 97.9486 132.616 97.9913 132.616C98.6739 132.616 99.1646 132.563 99.4633 132.456C99.7833 132.349 99.9966 132.147 100.103 131.848C100.231 131.528 100.295 131.048 100.295 130.408V115.592C100.295 114.952 100.231 114.483 100.103 114.184C99.9966 113.885 99.7833 113.683 99.4633 113.576C99.1433 113.448 98.6526 113.384 97.9913 113.384C97.9486 113.384 97.9273 113.32 97.9273 113.192C97.9273 113.064 97.9486 113 97.9913 113L99.6233 113.032C100.605 113.075 101.415 113.096 102.055 113.096C102.695 113.096 103.506 113.075 104.487 113.032L106.119 113C106.183 113 106.215 113.064 106.215 113.192C106.215 113.32 106.183 113.384 106.119 113.384C105.458 113.384 104.967 113.448 104.647 113.576C104.327 113.683 104.114 113.896 104.007 114.216C103.901 114.515 103.847 114.984 103.847 115.624V130.28ZM126.181 133.384C124.197 133.384 122.426 132.925 120.869 132.008C119.333 131.069 118.138 129.811 117.285 128.232C116.453 126.632 116.037 124.893 116.037 123.016C116.037 120.819 116.591 118.941 117.701 117.384C118.81 115.805 120.229 114.621 121.957 113.832C123.706 113.043 125.487 112.648 127.301 112.648C129.327 112.648 131.109 113.128 132.645 114.088C134.181 115.027 135.354 116.275 136.165 117.832C136.997 119.389 137.413 121.043 137.413 122.792C137.413 124.733 136.901 126.515 135.877 128.136C134.853 129.757 133.477 131.037 131.749 131.976C130.042 132.915 128.186 133.384 126.181 133.384ZM127.237 132.584C128.431 132.584 129.498 132.243 130.437 131.56C131.397 130.856 132.143 129.843 132.677 128.52C133.21 127.176 133.477 125.576 133.477 123.72C133.477 121.757 133.178 120.008 132.581 118.472C131.983 116.915 131.119 115.699 129.989 114.824C128.858 113.949 127.535 113.512 126.021 113.512C124.079 113.512 122.586 114.248 121.541 115.72C120.495 117.171 119.973 119.208 119.973 121.832C119.973 123.901 120.282 125.757 120.901 127.4C121.541 129.021 122.405 130.291 123.493 131.208C124.602 132.125 125.85 132.584 127.237 132.584ZM149.675 132.968C149.653 133.053 149.536 133.096 149.323 133.096C149.109 133.096 148.992 133.053 148.971 132.968L140.811 115.656C140.491 114.973 140.224 114.483 140.011 114.184C139.819 113.885 139.595 113.683 139.339 113.576C139.104 113.448 138.784 113.384 138.379 113.384C138.315 113.384 138.283 113.32 138.283 113.192C138.283 113.064 138.315 113 138.379 113C138.699 113 138.923 113.011 139.051 113.032C139.477 113.075 140.032 113.096 140.715 113.096C142.144 113.096 143.349 113.075 144.331 113.032C144.608 113.011 144.949 113 145.355 113C145.419 113 145.451 113.064 145.451 113.192C145.451 113.32 145.419 113.384 145.355 113.384C144.821 113.384 144.437 113.437 144.203 113.544C143.989 113.651 143.883 113.843 143.883 114.12C143.883 114.483 144.128 115.187 144.619 116.232L150.667 129.064L149.323 131.272L153.003 121.512L153.611 122.408L149.675 132.968ZM167.563 113C167.605 113 167.627 113.064 167.627 113.192C167.627 113.32 167.605 113.384 167.563 113.384C166.773 113.384 166.027 113.725 165.323 114.408C164.64 115.069 164.075 115.987 163.627 117.16L157.707 132.968C157.685 133.053 157.568 133.096 157.355 133.096C157.141 133.096 157.024 133.053 157.003 132.968L148.843 115.656C148.48 114.888 148.139 114.323 147.819 113.96C147.499 113.576 147.157 113.384 146.795 113.384C146.731 113.384 146.699 113.32 146.699 113.192C146.699 113.064 146.731 113 146.795 113C147.008 113 147.253 113.021 147.531 113.064C147.829 113.085 148.245 113.096 148.779 113.096C149.995 113.096 151.008 113.075 151.819 113.032C152.032 113.011 152.309 113 152.651 113C152.715 113 152.747 113.064 152.747 113.192C152.747 113.32 152.715 113.384 152.651 113.384C152.352 113.384 152.128 113.427 151.979 113.512C151.851 113.576 151.787 113.704 151.787 113.896C151.787 114.259 152.075 115.037 152.651 116.232L158.763 129.064L157.387 131.272L162.571 117.384C162.827 116.701 162.955 116.083 162.955 115.528C162.955 114.867 162.784 114.344 162.443 113.96C162.123 113.576 161.685 113.384 161.131 113.384C161.067 113.384 161.035 113.32 161.035 113.192C161.035 113.064 161.067 113 161.131 113L162.603 113.032C163.371 113.075 164.075 113.096 164.715 113.096C165.141 113.096 165.632 113.075 166.187 113.032L167.563 113ZM154.859 117.064C155.328 115.848 155.563 114.931 155.563 114.312C155.563 113.693 155.296 113.384 154.763 113.384C154.699 113.384 154.667 113.32 154.667 113.192C154.667 113.064 154.699 113 154.763 113C154.933 113 155.115 113.021 155.307 113.064C155.52 113.085 156.032 113.096 156.843 113.096C157.205 113.096 157.643 113.075 158.155 113.032L159.339 113C159.381 113 159.403 113.064 159.403 113.192C159.403 113.32 159.381 113.384 159.339 113.384C157.909 113.384 156.725 114.643 155.787 117.16L153.803 122.408L153.195 121.512L154.859 117.064ZM168.687 133C168.623 133 168.591 132.936 168.591 132.808C168.591 132.68 168.623 132.616 168.687 132.616C169.37 132.616 169.86 132.563 170.159 132.456C170.479 132.349 170.692 132.147 170.799 131.848C170.906 131.528 170.959 131.048 170.959 130.408V115.592C170.959 114.952 170.906 114.483 170.799 114.184C170.692 113.885 170.479 113.683 170.159 113.576C169.839 113.448 169.348 113.384 168.687 113.384C168.623 113.384 168.591 113.32 168.591 113.192C168.591 113.064 168.623 113 168.687 113H182.255C182.468 113 182.575 113.096 182.575 113.288L182.639 117.544C182.639 117.587 182.575 117.619 182.447 117.64C182.34 117.661 182.276 117.64 182.255 117.576C181.914 116.339 181.338 115.421 180.527 114.824C179.716 114.227 178.65 113.928 177.327 113.928H176.367C175.727 113.928 175.258 114.067 174.959 114.344C174.66 114.621 174.511 115.048 174.511 115.624V130.28C174.511 130.899 174.628 131.357 174.863 131.656C175.098 131.955 175.471 132.104 175.983 132.104H177.039C178.703 132.104 180.036 131.763 181.039 131.08C182.042 130.397 182.778 129.341 183.247 127.912C183.247 127.869 183.29 127.848 183.375 127.848C183.439 127.848 183.492 127.869 183.535 127.912C183.599 127.933 183.631 127.955 183.631 127.976C183.418 129.64 183.311 131.155 183.311 132.52C183.311 132.691 183.279 132.819 183.215 132.904C183.151 132.968 183.023 133 182.831 133H168.687ZM181.039 125.864C181.039 124.989 180.698 124.307 180.015 123.816C179.354 123.304 178.394 123.048 177.135 123.048H172.815V122.152H177.167C178.404 122.152 179.354 121.939 180.015 121.512C180.676 121.085 181.007 120.488 181.007 119.72C181.007 119.656 181.06 119.624 181.167 119.624C181.295 119.624 181.359 119.656 181.359 119.72L181.327 122.6L181.359 124.136C181.402 124.861 181.423 125.437 181.423 125.864C181.423 125.907 181.359 125.928 181.231 125.928C181.103 125.928 181.039 125.907 181.039 125.864ZM201.991 133C201.501 133 200.594 132.115 199.271 130.344C197.949 128.552 196.349 126.067 194.471 122.888L197.415 121.992C199.186 124.68 200.658 126.781 201.831 128.296C203.026 129.811 204.082 130.909 204.999 131.592C205.917 132.275 206.813 132.616 207.687 132.616C207.73 132.616 207.751 132.68 207.751 132.808C207.751 132.936 207.73 133 207.687 133H201.991ZM195.111 112.904C197.053 112.904 198.557 113.267 199.623 113.992C200.69 114.696 201.223 115.688 201.223 116.968C201.223 118.184 200.871 119.283 200.167 120.264C199.485 121.245 198.589 122.013 197.479 122.568C196.37 123.101 195.207 123.368 193.991 123.368C193.159 123.368 192.573 123.357 192.231 123.336V130.408C192.231 131.069 192.285 131.549 192.391 131.848C192.498 132.147 192.701 132.349 192.999 132.456C193.319 132.563 193.821 132.616 194.503 132.616C194.546 132.616 194.567 132.68 194.567 132.808C194.567 132.936 194.546 133 194.503 133C193.799 133 193.245 132.989 192.839 132.968L190.407 132.936L188.071 132.968C187.645 132.989 187.069 133 186.343 133C186.279 133 186.247 132.936 186.247 132.808C186.247 132.68 186.279 132.616 186.343 132.616C187.026 132.616 187.517 132.563 187.815 132.456C188.135 132.349 188.349 132.147 188.455 131.848C188.583 131.528 188.647 131.048 188.647 130.408V115.592C188.647 114.952 188.594 114.483 188.487 114.184C188.381 113.885 188.167 113.683 187.847 113.576C187.527 113.448 187.037 113.384 186.375 113.384C186.333 113.384 186.311 113.32 186.311 113.192C186.311 113.064 186.333 113 186.375 113L188.071 113.032C189.053 113.075 189.831 113.096 190.407 113.096C191.133 113.096 191.89 113.064 192.679 113C192.957 112.979 193.298 112.957 193.703 112.936C194.13 112.915 194.599 112.904 195.111 112.904ZM197.575 118.184C197.575 116.435 197.319 115.229 196.807 114.568C196.295 113.907 195.559 113.576 194.599 113.576C193.746 113.576 193.138 113.736 192.775 114.056C192.413 114.376 192.231 114.909 192.231 115.656V122.44C192.743 122.525 193.362 122.568 194.087 122.568C195.325 122.568 196.21 122.227 196.743 121.544C197.298 120.84 197.575 119.72 197.575 118.184ZM220.443 116.232C220.443 117 220.635 117.683 221.019 118.28C221.424 118.877 221.915 119.4 222.491 119.848C223.067 120.296 223.846 120.84 224.827 121.48C225.894 122.163 226.747 122.76 227.387 123.272C228.027 123.784 228.571 124.413 229.019 125.16C229.467 125.885 229.691 126.728 229.691 127.688C229.691 128.797 229.392 129.789 228.795 130.664C228.198 131.517 227.366 132.189 226.299 132.68C225.254 133.149 224.08 133.384 222.779 133.384C221.84 133.384 220.838 133.256 219.771 133C218.726 132.723 218.022 132.424 217.659 132.104C217.552 132.019 217.467 131.944 217.403 131.88C217.36 131.795 217.339 131.667 217.339 131.496L217.243 126.408V126.376C217.243 126.291 217.296 126.248 217.403 126.248C217.51 126.227 217.574 126.259 217.595 126.344C218.235 127.645 218.79 128.701 219.259 129.512C219.75 130.323 220.358 131.037 221.083 131.656C221.83 132.275 222.672 132.584 223.611 132.584C224.464 132.584 225.168 132.36 225.723 131.912C226.278 131.443 226.555 130.653 226.555 129.544C226.555 128.605 226.342 127.784 225.915 127.08C225.51 126.376 225.008 125.779 224.411 125.288C223.814 124.797 222.992 124.211 221.947 123.528C220.923 122.867 220.123 122.301 219.547 121.832C218.992 121.363 218.512 120.797 218.107 120.136C217.702 119.475 217.499 118.696 217.499 117.8C217.499 116.669 217.819 115.72 218.459 114.952C219.12 114.163 219.963 113.587 220.987 113.224C222.011 112.84 223.088 112.648 224.219 112.648C224.966 112.648 225.723 112.723 226.491 112.872C227.259 113 227.878 113.16 228.347 113.352C228.539 113.437 228.667 113.533 228.731 113.64C228.795 113.725 228.827 113.843 228.827 113.992V118.696C228.827 118.76 228.774 118.813 228.667 118.856C228.56 118.877 228.496 118.856 228.475 118.792L228.219 118.184C227.686 116.84 227.056 115.699 226.331 114.76C225.627 113.821 224.635 113.352 223.355 113.352C222.502 113.352 221.798 113.597 221.243 114.088C220.71 114.579 220.443 115.293 220.443 116.232ZM238.448 113.736C235.909 113.736 234.085 115.389 232.976 118.696C232.954 118.76 232.89 118.792 232.784 118.792C232.677 118.771 232.624 118.728 232.624 118.664C232.709 117.811 232.805 116.712 232.912 115.368C233.018 114.003 233.072 112.979 233.072 112.296C233.072 112.189 233.125 112.136 233.232 112.136C233.36 112.136 233.424 112.189 233.424 112.296C233.424 112.765 234.032 113 235.248 113C237.082 113.064 239.226 113.096 241.68 113.096C242.938 113.096 244.272 113.075 245.68 113.032L247.856 113C248.666 113 249.253 112.947 249.616 112.84C250 112.733 250.245 112.52 250.352 112.2C250.373 112.115 250.437 112.072 250.544 112.072C250.672 112.072 250.736 112.115 250.736 112.2C250.672 112.84 250.597 113.864 250.512 115.272C250.448 116.68 250.416 117.811 250.416 118.664C250.416 118.728 250.362 118.76 250.256 118.76C250.149 118.76 250.085 118.728 250.064 118.664C249.744 117.021 249.146 115.795 248.272 114.984C247.397 114.152 246.32 113.736 245.04 113.736C244.421 113.736 244.005 113.875 243.792 114.152C243.6 114.408 243.504 114.909 243.504 115.656V130.408C243.504 131.069 243.568 131.549 243.696 131.848C243.824 132.147 244.069 132.349 244.432 132.456C244.794 132.563 245.37 132.616 246.16 132.616C246.224 132.616 246.256 132.68 246.256 132.808C246.256 132.936 246.224 133 246.16 133C245.392 133 244.784 132.989 244.336 132.968L241.68 132.936L239.088 132.968C238.64 132.989 238.021 133 237.232 133C237.168 133 237.136 132.936 237.136 132.808C237.136 132.68 237.168 132.616 237.232 132.616C238 132.616 238.565 132.563 238.928 132.456C239.312 132.349 239.568 132.147 239.696 131.848C239.845 131.528 239.92 131.048 239.92 130.408V115.592C239.92 114.867 239.824 114.376 239.632 114.12C239.44 113.864 239.045 113.736 238.448 113.736ZM263.056 133.384C261.072 133.384 259.301 132.925 257.744 132.008C256.208 131.069 255.013 129.811 254.16 128.232C253.328 126.632 252.912 124.893 252.912 123.016C252.912 120.819 253.466 118.941 254.576 117.384C255.685 115.805 257.104 114.621 258.832 113.832C260.581 113.043 262.362 112.648 264.176 112.648C266.202 112.648 267.984 113.128 269.52 114.088C271.056 115.027 272.229 116.275 273.04 117.832C273.872 119.389 274.288 121.043 274.288 122.792C274.288 124.733 273.776 126.515 272.752 128.136C271.728 129.757 270.352 131.037 268.624 131.976C266.917 132.915 265.061 133.384 263.056 133.384ZM264.112 132.584C265.306 132.584 266.373 132.243 267.312 131.56C268.272 130.856 269.018 129.843 269.552 128.52C270.085 127.176 270.352 125.576 270.352 123.72C270.352 121.757 270.053 120.008 269.456 118.472C268.858 116.915 267.994 115.699 266.864 114.824C265.733 113.949 264.41 113.512 262.896 113.512C260.954 113.512 259.461 114.248 258.416 115.72C257.37 117.171 256.848 119.208 256.848 121.832C256.848 123.901 257.157 125.757 257.776 127.4C258.416 129.021 259.28 130.291 260.368 131.208C261.477 132.125 262.725 132.584 264.112 132.584ZM292.804 133C292.313 133 291.406 132.115 290.084 130.344C288.761 128.552 287.161 126.067 285.284 122.888L288.228 121.992C289.998 124.68 291.47 126.781 292.644 128.296C293.838 129.811 294.894 130.909 295.812 131.592C296.729 132.275 297.625 132.616 298.5 132.616C298.542 132.616 298.564 132.68 298.564 132.808C298.564 132.936 298.542 133 298.5 133H292.804ZM285.924 112.904C287.865 112.904 289.369 113.267 290.436 113.992C291.502 114.696 292.036 115.688 292.036 116.968C292.036 118.184 291.684 119.283 290.98 120.264C290.297 121.245 289.401 122.013 288.292 122.568C287.182 123.101 286.02 123.368 284.804 123.368C283.972 123.368 283.385 123.357 283.044 123.336V130.408C283.044 131.069 283.097 131.549 283.204 131.848C283.31 132.147 283.513 132.349 283.812 132.456C284.132 132.563 284.633 132.616 285.316 132.616C285.358 132.616 285.38 132.68 285.38 132.808C285.38 132.936 285.358 133 285.316 133C284.612 133 284.057 132.989 283.652 132.968L281.22 132.936L278.884 132.968C278.457 132.989 277.881 133 277.156 133C277.092 133 277.06 132.936 277.06 132.808C277.06 132.68 277.092 132.616 277.156 132.616C277.838 132.616 278.329 132.563 278.628 132.456C278.948 132.349 279.161 132.147 279.268 131.848C279.396 131.528 279.46 131.048 279.46 130.408V115.592C279.46 114.952 279.406 114.483 279.3 114.184C279.193 113.885 278.98 113.683 278.66 113.576C278.34 113.448 277.849 113.384 277.188 113.384C277.145 113.384 277.124 113.32 277.124 113.192C277.124 113.064 277.145 113 277.188 113L278.884 113.032C279.865 113.075 280.644 113.096 281.22 113.096C281.945 113.096 282.702 113.064 283.492 113C283.769 112.979 284.11 112.957 284.516 112.936C284.942 112.915 285.412 112.904 285.924 112.904ZM288.388 118.184C288.388 116.435 288.132 115.229 287.62 114.568C287.108 113.907 286.372 113.576 285.412 113.576C284.558 113.576 283.95 113.736 283.588 114.056C283.225 114.376 283.044 114.909 283.044 115.656V122.44C283.556 122.525 284.174 122.568 284.9 122.568C286.137 122.568 287.022 122.227 287.556 121.544C288.11 120.84 288.388 119.72 288.388 118.184ZM299.5 133C299.436 133 299.404 132.936 299.404 132.808C299.404 132.68 299.436 132.616 299.5 132.616C300.182 132.616 300.673 132.563 300.972 132.456C301.292 132.349 301.505 132.147 301.612 131.848C301.718 131.528 301.772 131.048 301.772 130.408V115.592C301.772 114.952 301.718 114.483 301.612 114.184C301.505 113.885 301.292 113.683 300.972 113.576C300.652 113.448 300.161 113.384 299.5 113.384C299.436 113.384 299.404 113.32 299.404 113.192C299.404 113.064 299.436 113 299.5 113H313.068C313.281 113 313.388 113.096 313.388 113.288L313.452 117.544C313.452 117.587 313.388 117.619 313.26 117.64C313.153 117.661 313.089 117.64 313.068 117.576C312.726 116.339 312.15 115.421 311.34 114.824C310.529 114.227 309.462 113.928 308.14 113.928H307.18C306.54 113.928 306.07 114.067 305.772 114.344C305.473 114.621 305.324 115.048 305.324 115.624V130.28C305.324 130.899 305.441 131.357 305.676 131.656C305.91 131.955 306.284 132.104 306.796 132.104H307.852C309.516 132.104 310.849 131.763 311.852 131.08C312.854 130.397 313.59 129.341 314.06 127.912C314.06 127.869 314.102 127.848 314.188 127.848C314.252 127.848 314.305 127.869 314.347 127.912C314.412 127.933 314.444 127.955 314.444 127.976C314.23 129.64 314.124 131.155 314.124 132.52C314.124 132.691 314.092 132.819 314.028 132.904C313.964 132.968 313.836 133 313.644 133H299.5ZM311.852 125.864C311.852 124.989 311.51 124.307 310.828 123.816C310.166 123.304 309.206 123.048 307.948 123.048H303.628V122.152H307.98C309.217 122.152 310.166 121.939 310.828 121.512C311.489 121.085 311.82 120.488 311.82 119.72C311.82 119.656 311.873 119.624 311.98 119.624C312.108 119.624 312.172 119.656 312.172 119.72L312.14 122.6L312.172 124.136C312.214 124.861 312.236 125.437 312.236 125.864C312.236 125.907 312.172 125.928 312.044 125.928C311.916 125.928 311.852 125.907 311.852 125.864Z" fill="white"/>
</svg>
