<svg width="443" height="159" viewBox="0 0 443 159" fill="none" xmlns="http://www.w3.org/2000/svg">
<path d="M118.903 42.6562C122.559 44.5312 125.341 47.2188 127.247 50.7188C129.184 54.1875 130.153 57.9375 130.153 61.9688C130.153 64.9062 129.669 67.7188 128.7 70.4062C127.763 73.0938 126.403 75.4531 124.622 77.4844C122.872 79.4844 120.747 81.0781 118.247 82.2656C115.747 83.4531 112.934 84.0469 109.809 84.0469C107.122 84.0469 104.544 83.6562 102.075 82.875C99.6063 82.125 97.2469 81.1094 94.9969 79.8281C92.7782 78.5469 90.6532 77.0625 88.6219 75.375C86.6219 73.6562 84.6844 71.875 82.8094 70.0312L82.4344 69.6562C81.8719 69.0625 81.1844 68.4375 80.3719 67.7812C79.5907 67.0938 78.7626 66.4688 77.8876 65.9062C77.0126 65.3438 76.1063 64.875 75.1688 64.5C74.2626 64.0938 73.3563 63.8906 72.4501 63.8906C70.3563 63.8906 68.7157 64.5469 67.5282 65.8594C66.3407 67.1719 65.7469 68.8438 65.7469 70.875C65.7469 72.6875 66.2001 74.2188 67.1063 75.4688C68.0438 76.7188 69.5438 77.3438 71.6063 77.3438C71.3563 76.8125 71.2313 76.2344 71.2313 75.6094C71.2313 74.0781 71.7938 72.7656 72.9188 71.6719C74.0751 70.5781 75.4969 70.0312 77.1844 70.0312C78.8407 70.0312 80.2313 70.5781 81.3563 71.6719C82.5126 72.7656 83.0907 74.0781 83.0907 75.6094C83.0907 75.9219 83.0594 76.25 82.9969 76.5938C82.9344 76.9062 82.8407 77.2188 82.7157 77.5312L82.6219 77.7188C82.2469 78.75 81.6376 79.6875 80.7938 80.5312C79.9813 81.4062 79.0594 82.1562 78.0282 82.7812C76.9969 83.4375 75.9032 83.9375 74.7469 84.2812C73.5907 84.625 72.5126 84.7969 71.5126 84.7969C69.4501 84.7969 67.5594 84.4531 65.8407 83.7656C64.1219 83.1094 62.6376 82.1562 61.3876 80.9062C60.1376 79.6875 59.1532 78.2344 58.4344 76.5469C57.7469 74.8281 57.4032 72.9375 57.4032 70.875C57.4032 68.7188 57.7782 66.7656 58.5282 65.0156C59.3094 63.2344 60.3719 61.7188 61.7157 60.4688C63.0594 59.2188 64.6532 58.25 66.4969 57.5625C68.3719 56.8438 70.3563 56.4844 72.4501 56.4844C74.1063 56.4844 75.6376 56.7344 77.0438 57.2344C78.4813 57.7031 79.8094 58.3281 81.0282 59.1094C82.2782 59.8594 83.4813 60.75 84.6376 61.7812C85.7938 62.8125 86.9188 63.9062 88.0126 65.0625L88.3876 65.4375C88.7001 65.75 88.8407 65.8906 88.8094 65.8594C88.7782 65.8281 88.9657 65.9688 89.3719 66.2812V27.0469L87.7313 25.2188L97.7157 22.0312V38.7188H97.6219C99.2157 39.4375 101.2 39.7969 103.575 39.7969H105.684H105.872C108.247 39.6094 110.169 39.0625 111.638 38.1562C113.106 37.25 114.231 36.2344 115.013 35.1094C115.825 33.9531 116.372 32.7344 116.653 31.4531C116.934 30.1719 117.075 29.0156 117.075 27.9844C117.075 25.1094 116.45 22.8437 115.2 21.1875C113.981 19.5 112.528 18.2656 110.841 17.4844C109.184 16.6719 107.513 16.1563 105.825 15.9375C104.138 15.7187 102.841 15.6094 101.934 15.6094H99.6376C97.8251 15.6094 95.9657 15.875 94.0594 16.4062C92.1532 16.9063 90.3719 17.6875 88.7157 18.75C87.0907 19.7812 85.7157 21.0938 84.5907 22.6875C83.4657 24.25 82.7782 26.0469 82.5282 28.0781C83.9344 28.3281 85.0907 28.9375 85.9969 29.9062C86.9032 30.875 87.3563 32 87.3563 33.2812C87.3563 34.75 86.7626 36 85.5751 37.0312C84.3876 38.0312 82.9657 38.5312 81.3094 38.5312C79.6844 38.5312 78.2938 38.0625 77.1376 37.125C76.0126 36.1562 75.4188 34.9375 75.3563 33.4688C75.2938 32.9375 75.2313 32.4531 75.1688 32.0156C75.1376 31.5781 75.1219 31.0938 75.1219 30.5625C75.1219 27.1875 75.7782 24.125 77.0907 21.375C78.4032 18.625 80.1688 16.2812 82.3876 14.3438C84.6063 12.375 87.2001 10.8594 90.1688 9.79688C93.1376 8.73437 96.2938 8.20312 99.6376 8.20312H101.934C105.528 8.20312 108.778 8.67188 111.684 9.60938C114.591 10.5156 117.059 11.8438 119.091 13.5938C121.153 15.3125 122.747 17.3906 123.872 19.8281C124.997 22.2656 125.559 24.9844 125.559 27.9844C125.559 30.7969 125.013 33.5 123.919 36.0938C122.825 38.6875 121.153 40.875 118.903 42.6562ZM108.825 77.0625C110.95 77.0625 112.809 76.6406 114.403 75.7969C115.997 74.9531 117.341 73.8438 118.434 72.4688C119.528 71.0938 120.356 69.5 120.919 67.6875C121.513 65.8438 121.809 63.9375 121.809 61.9688C121.809 57.0312 120.341 53.3594 117.403 50.9531C114.497 48.5156 110.747 47.2656 106.153 47.2031C105.841 47.2031 105.513 47.2188 105.169 47.25C104.856 47.2812 104.544 47.2969 104.231 47.2969H103.763C101.7 47.4219 99.6844 47.6094 97.7157 47.8594V73.3125L97.4344 73.125C99.0907 74.25 100.888 75.1875 102.825 75.9375C104.794 76.6875 106.794 77.0625 108.825 77.0625ZM142.903 78H133.294L134.184 75.375V17.3906H134.231L132.544 15.4688L142.013 12.5156L141.966 75.375L142.903 78ZM168.403 30.75C171.841 30.75 174.934 31.375 177.684 32.625C180.434 33.8438 182.763 35.5312 184.669 37.6875C186.575 39.8438 188.028 42.375 189.028 45.2812C190.059 48.1875 190.575 51.3125 190.575 54.6562C190.575 57.9688 190.059 61.0781 189.028 63.9844C188.028 66.8594 186.575 69.375 184.669 71.5312C182.763 73.6875 180.434 75.3906 177.684 76.6406C174.934 77.8594 171.841 78.4688 168.403 78.4688C164.934 78.4688 161.825 77.8594 159.075 76.6406C156.325 75.3906 153.997 73.6875 152.091 71.5312C150.184 69.375 148.731 66.8594 147.731 63.9844C146.731 61.0781 146.231 57.9688 146.231 54.6562C146.231 51.3125 146.731 48.1875 147.731 45.2812C148.731 42.375 150.184 39.8438 152.091 37.6875C153.997 35.5312 156.325 33.8438 159.075 32.625C161.825 31.375 164.934 30.75 168.403 30.75ZM161.981 70.125C163.794 71.0312 165.934 71.4844 168.403 71.4844C170.872 71.4844 172.997 71.0312 174.778 70.125C176.591 69.2188 178.075 68 179.231 66.4688C180.419 64.9062 181.294 63.1094 181.856 61.0781C182.419 59.0469 182.7 56.9062 182.7 54.6562C182.7 52.4062 182.419 50.2656 181.856 48.2344C181.294 46.2031 180.419 44.4219 179.231 42.8906C178.075 41.3594 176.591 40.1406 174.778 39.2344C172.997 38.3281 170.872 37.875 168.403 37.875C165.934 37.875 163.794 38.3281 161.981 39.2344C160.2 40.1406 158.716 41.3594 157.528 42.8906C156.372 44.4219 155.497 46.2031 154.903 48.2344C154.341 50.2656 154.059 52.4062 154.059 54.6562C154.059 56.9062 154.341 59.0625 154.903 61.125C155.497 63.1562 156.372 64.9375 157.528 66.4688C158.716 68 160.2 69.2188 161.981 70.125ZM211.013 49.7344C212.731 50.4219 214.45 51.2188 216.169 52.125C217.919 53.0312 219.481 54.1094 220.856 55.3594C222.263 56.5781 223.403 58 224.278 59.625C225.153 61.25 225.591 63.125 225.591 65.25C225.591 67.3125 225.091 69.1562 224.091 70.7812C223.091 72.4062 221.794 73.7812 220.2 74.9062C218.638 76.0312 216.888 76.8906 214.95 77.4844C213.013 78.0781 211.106 78.375 209.231 78.375C207.294 78.375 205.356 78.0781 203.419 77.4844C201.481 76.8594 199.731 75.9844 198.169 74.8594C196.638 73.7031 195.388 72.2969 194.419 70.6406C193.481 68.9531 193.013 67.0469 193.013 64.9219C193.013 63.9844 193.138 63.0938 193.388 62.25C193.638 61.4062 194.013 60.6719 194.513 60.0469C195.044 59.4219 195.684 58.9219 196.434 58.5469C197.216 58.1719 198.138 57.9844 199.2 57.9844H199.388C200.138 58.0156 200.856 58.1875 201.544 58.5C202.231 58.7812 202.825 59.1719 203.325 59.6719C203.856 60.1719 204.263 60.7656 204.544 61.4531C204.856 62.1094 205.013 62.8281 205.013 63.6094C205.013 65.6406 204.106 67.1875 202.294 68.25C203.075 69.25 204.122 70 205.434 70.5C206.747 70.9688 208.013 71.2031 209.231 71.2031C210.075 71.2031 210.997 71.0781 211.997 70.8281C212.997 70.5469 213.919 70.1562 214.763 69.6562C215.606 69.1562 216.309 68.5469 216.872 67.8281C217.434 67.0781 217.716 66.2188 217.716 65.25C217.716 64.0312 217.372 62.9531 216.684 62.0156C216.028 61.0469 215.2 60.2188 214.2 59.5312C213.2 58.8125 212.122 58.2031 210.966 57.7031C209.841 57.2031 208.825 56.7812 207.919 56.4375C206.481 55.875 204.981 55.2188 203.419 54.4688C201.888 53.6875 200.466 52.7812 199.153 51.75C197.872 50.7188 196.809 49.5312 195.966 48.1875C195.122 46.8125 194.7 45.2344 194.7 43.4531C194.7 41.2656 195.138 39.375 196.013 37.7812C196.888 36.1875 198.028 34.875 199.434 33.8438C200.872 32.7812 202.513 32 204.356 31.5C206.2 31 208.106 30.75 210.075 30.75C211.731 30.75 213.388 31.0156 215.044 31.5469C216.7 32.0469 218.184 32.7812 219.497 33.75C220.809 34.7188 221.872 35.9219 222.684 37.3594C223.528 38.7656 223.95 40.3906 223.95 42.2344C223.95 43.0781 223.825 43.9688 223.575 44.9062C223.138 46 222.434 46.875 221.466 47.5312C220.497 48.1562 219.419 48.4688 218.231 48.4688H218.138C217.481 48.4688 216.825 48.3594 216.169 48.1406C215.513 47.8906 214.919 47.5469 214.388 47.1094C213.856 46.6719 213.419 46.1562 213.075 45.5625C212.763 44.9688 212.606 44.3281 212.606 43.6406C212.606 42.8906 212.825 42.0938 213.263 41.25C213.731 40.375 214.325 39.5781 215.044 38.8594C213.356 37.7656 211.45 37.2188 209.325 37.2188H209.231C207.075 37.2188 205.419 37.7031 204.263 38.6719C203.138 39.6094 202.575 41.2031 202.575 43.4531C202.575 44.1719 202.747 44.75 203.091 45.1875C203.434 45.625 203.763 45.9375 204.075 46.125C204.981 46.9062 206.013 47.5781 207.169 48.1406C208.356 48.7031 209.638 49.2344 211.013 49.7344ZM245.981 49.7344C247.7 50.4219 249.419 51.2188 251.138 52.125C252.888 53.0312 254.45 54.1094 255.825 55.3594C257.231 56.5781 258.372 58 259.247 59.625C260.122 61.25 260.559 63.125 260.559 65.25C260.559 67.3125 260.059 69.1562 259.059 70.7812C258.059 72.4062 256.763 73.7812 255.169 74.9062C253.606 76.0312 251.856 76.8906 249.919 77.4844C247.981 78.0781 246.075 78.375 244.2 78.375C242.263 78.375 240.325 78.0781 238.388 77.4844C236.45 76.8594 234.7 75.9844 233.138 74.8594C231.606 73.7031 230.356 72.2969 229.388 70.6406C228.45 68.9531 227.981 67.0469 227.981 64.9219C227.981 63.9844 228.106 63.0938 228.356 62.25C228.606 61.4062 228.981 60.6719 229.481 60.0469C230.013 59.4219 230.653 58.9219 231.403 58.5469C232.184 58.1719 233.106 57.9844 234.169 57.9844H234.356C235.106 58.0156 235.825 58.1875 236.513 58.5C237.2 58.7812 237.794 59.1719 238.294 59.6719C238.825 60.1719 239.231 60.7656 239.513 61.4531C239.825 62.1094 239.981 62.8281 239.981 63.6094C239.981 65.6406 239.075 67.1875 237.263 68.25C238.044 69.25 239.091 70 240.403 70.5C241.716 70.9688 242.981 71.2031 244.2 71.2031C245.044 71.2031 245.966 71.0781 246.966 70.8281C247.966 70.5469 248.888 70.1562 249.731 69.6562C250.575 69.1562 251.278 68.5469 251.841 67.8281C252.403 67.0781 252.684 66.2188 252.684 65.25C252.684 64.0312 252.341 62.9531 251.653 62.0156C250.997 61.0469 250.169 60.2188 249.169 59.5312C248.169 58.8125 247.091 58.2031 245.934 57.7031C244.809 57.2031 243.794 56.7812 242.888 56.4375C241.45 55.875 239.95 55.2188 238.388 54.4688C236.856 53.6875 235.434 52.7812 234.122 51.75C232.841 50.7188 231.778 49.5312 230.934 48.1875C230.091 46.8125 229.669 45.2344 229.669 43.4531C229.669 41.2656 230.106 39.375 230.981 37.7812C231.856 36.1875 232.997 34.875 234.403 33.8438C235.841 32.7812 237.481 32 239.325 31.5C241.169 31 243.075 30.75 245.044 30.75C246.7 30.75 248.356 31.0156 250.013 31.5469C251.669 32.0469 253.153 32.7812 254.466 33.75C255.778 34.7188 256.841 35.9219 257.653 37.3594C258.497 38.7656 258.919 40.3906 258.919 42.2344C258.919 43.0781 258.794 43.9688 258.544 44.9062C258.106 46 257.403 46.875 256.434 47.5312C255.466 48.1562 254.388 48.4688 253.2 48.4688H253.106C252.45 48.4688 251.794 48.3594 251.138 48.1406C250.481 47.8906 249.888 47.5469 249.356 47.1094C248.825 46.6719 248.388 46.1562 248.044 45.5625C247.731 44.9688 247.575 44.3281 247.575 43.6406C247.575 42.8906 247.794 42.0938 248.231 41.25C248.7 40.375 249.294 39.5781 250.013 38.8594C248.325 37.7656 246.419 37.2188 244.294 37.2188H244.2C242.044 37.2188 240.388 37.7031 239.231 38.6719C238.106 39.6094 237.544 41.2031 237.544 43.4531C237.544 44.1719 237.716 44.75 238.059 45.1875C238.403 45.625 238.731 45.9375 239.044 46.125C239.95 46.9062 240.981 47.5781 242.138 48.1406C243.325 48.7031 244.606 49.2344 245.981 49.7344ZM285.028 30.75C288.466 30.75 291.559 31.375 294.309 32.625C297.059 33.8438 299.388 35.5312 301.294 37.6875C303.2 39.8438 304.653 42.375 305.653 45.2812C306.684 48.1875 307.2 51.3125 307.2 54.6562C307.2 57.9688 306.684 61.0781 305.653 63.9844C304.653 66.8594 303.2 69.375 301.294 71.5312C299.388 73.6875 297.059 75.3906 294.309 76.6406C291.559 77.8594 288.466 78.4688 285.028 78.4688C281.559 78.4688 278.45 77.8594 275.7 76.6406C272.95 75.3906 270.622 73.6875 268.716 71.5312C266.809 69.375 265.356 66.8594 264.356 63.9844C263.356 61.0781 262.856 57.9688 262.856 54.6562C262.856 51.3125 263.356 48.1875 264.356 45.2812C265.356 42.375 266.809 39.8438 268.716 37.6875C270.622 35.5312 272.95 33.8438 275.7 32.625C278.45 31.375 281.559 30.75 285.028 30.75ZM278.606 70.125C280.419 71.0312 282.559 71.4844 285.028 71.4844C287.497 71.4844 289.622 71.0312 291.403 70.125C293.216 69.2188 294.7 68 295.856 66.4688C297.044 64.9062 297.919 63.1094 298.481 61.0781C299.044 59.0469 299.325 56.9062 299.325 54.6562C299.325 52.4062 299.044 50.2656 298.481 48.2344C297.919 46.2031 297.044 44.4219 295.856 42.8906C294.7 41.3594 293.216 40.1406 291.403 39.2344C289.622 38.3281 287.497 37.875 285.028 37.875C282.559 37.875 280.419 38.3281 278.606 39.2344C276.825 40.1406 275.341 41.3594 274.153 42.8906C272.997 44.4219 272.122 46.2031 271.528 48.2344C270.966 50.2656 270.684 52.4062 270.684 54.6562C270.684 56.9062 270.966 59.0625 271.528 61.125C272.122 63.1562 272.997 64.9375 274.153 66.4688C275.341 68 276.825 69.2188 278.606 70.125ZM377.934 78H368.231L369.075 75.375V46.0312C369.075 45 368.856 44.0156 368.419 43.0781C368.013 42.1094 367.45 41.2656 366.731 40.5469C366.044 39.7969 365.247 39.2031 364.341 38.7656C363.434 38.3281 362.481 38.0938 361.481 38.0625C359.544 38.1562 357.763 38.5312 356.138 39.1875C354.544 39.8438 353.169 40.8438 352.013 42.1875C350.888 43.5 349.997 45.1719 349.341 47.2031C348.716 49.2344 348.403 51.6875 348.403 54.5625V75.4688L349.294 78H339.591L340.575 75.375C340.544 70.4688 340.513 65.5938 340.481 60.75C340.481 55.875 340.481 50.9688 340.481 46.0312C340.45 44.9688 340.231 43.9688 339.825 43.0312C339.45 42.0938 338.919 41.2656 338.231 40.5469C337.544 39.7969 336.747 39.2031 335.841 38.7656C334.934 38.3281 333.934 38.0938 332.841 38.0625C330.872 38.125 329.075 38.5 327.45 39.1875C325.825 39.8438 324.419 40.7969 323.231 42.0469C320.794 44.5781 319.575 48.75 319.575 54.5625L319.528 75.375L320.466 78H310.856L311.747 75.375V35.4375L310.106 33.6094L319.575 30.6094V37.9688C321.075 35.5 322.934 33.6875 325.153 32.5312C327.403 31.3438 329.966 30.75 332.841 30.75C334.434 30.75 335.966 30.9688 337.434 31.4062C338.903 31.8438 340.247 32.4844 341.466 33.3281C342.716 34.1406 343.809 35.125 344.747 36.2812C345.716 37.4062 346.497 38.6719 347.091 40.0781C348.591 36.8594 350.544 34.5 352.95 33C355.388 31.5 358.231 30.75 361.481 30.75C363.606 30.75 365.606 31.1562 367.481 31.9688C369.356 32.7812 370.997 33.875 372.403 35.25C373.841 36.625 374.966 38.25 375.778 40.125C376.622 41.9688 377.044 43.9375 377.044 46.0312V75.375L377.934 78Z" fill="white"/>
<path d="M80.6893 113.736C78.1507 113.736 76.3267 115.389 75.2173 118.696C75.196 118.76 75.132 118.792 75.0253 118.792C74.9187 118.771 74.8653 118.728 74.8653 118.664C74.9507 117.811 75.0467 116.712 75.1533 115.368C75.26 114.003 75.3133 112.979 75.3133 112.296C75.3133 112.189 75.3667 112.136 75.4733 112.136C75.6013 112.136 75.6653 112.189 75.6653 112.296C75.6653 112.765 76.2733 113 77.4893 113C79.324 113.064 81.468 113.096 83.9213 113.096C85.18 113.096 86.5133 113.075 87.9213 113.032L90.0973 113C90.908 113 91.4947 112.947 91.8573 112.84C92.2413 112.733 92.4867 112.52 92.5933 112.2C92.6147 112.115 92.6787 112.072 92.7853 112.072C92.9133 112.072 92.9773 112.115 92.9773 112.2C92.9133 112.84 92.8387 113.864 92.7533 115.272C92.6893 116.68 92.6573 117.811 92.6573 118.664C92.6573 118.728 92.604 118.76 92.4973 118.76C92.3907 118.76 92.3267 118.728 92.3053 118.664C91.9853 117.021 91.388 115.795 90.5133 114.984C89.6387 114.152 88.5613 113.736 87.2813 113.736C86.6627 113.736 86.2467 113.875 86.0333 114.152C85.8413 114.408 85.7453 114.909 85.7453 115.656V130.408C85.7453 131.069 85.8093 131.549 85.9373 131.848C86.0653 132.147 86.3107 132.349 86.6733 132.456C87.036 132.563 87.612 132.616 88.4013 132.616C88.4653 132.616 88.4973 132.68 88.4973 132.808C88.4973 132.936 88.4653 133 88.4013 133C87.6333 133 87.0253 132.989 86.5773 132.968L83.9213 132.936L81.3293 132.968C80.8813 132.989 80.2627 133 79.4733 133C79.4093 133 79.3773 132.936 79.3773 132.808C79.3773 132.68 79.4093 132.616 79.4733 132.616C80.2413 132.616 80.8067 132.563 81.1693 132.456C81.5533 132.349 81.8093 132.147 81.9373 131.848C82.0867 131.528 82.1613 131.048 82.1613 130.408V115.592C82.1613 114.867 82.0653 114.376 81.8733 114.12C81.6813 113.864 81.2867 113.736 80.6893 113.736ZM111.524 115.656C111.524 115.016 111.46 114.547 111.332 114.248C111.204 113.928 110.959 113.704 110.596 113.576C110.233 113.448 109.657 113.384 108.868 113.384C108.804 113.384 108.772 113.32 108.772 113.192C108.772 113.064 108.804 113 108.868 113L110.436 113.032C111.503 113.075 112.463 113.096 113.316 113.096C113.892 113.096 114.713 113.075 115.78 113.032L117.572 113C117.636 113 117.668 113.064 117.668 113.192C117.668 113.32 117.636 113.384 117.572 113.384C116.847 113.384 116.303 113.448 115.94 113.576C115.599 113.683 115.364 113.885 115.236 114.184C115.129 114.483 115.076 114.952 115.076 115.592V130.408C115.076 131.048 115.129 131.528 115.236 131.848C115.364 132.147 115.599 132.349 115.94 132.456C116.281 132.563 116.825 132.616 117.572 132.616C117.636 132.616 117.668 132.68 117.668 132.808C117.668 132.936 117.636 133 117.572 133C116.825 133 116.228 132.989 115.78 132.968L113.316 132.936L110.436 132.968C110.052 132.989 109.529 133 108.868 133C108.804 133 108.772 132.936 108.772 132.808C108.772 132.68 108.804 132.616 108.868 132.616C109.657 132.616 110.233 132.563 110.596 132.456C110.959 132.349 111.204 132.147 111.332 131.848C111.46 131.549 111.524 131.069 111.524 130.408V115.656ZM99.2998 122.152H113.156V123.048H99.2998V122.152ZM97.6358 115.592C97.6358 114.952 97.5718 114.483 97.4438 114.184C97.3158 113.885 97.0812 113.683 96.7398 113.576C96.4198 113.448 95.8972 113.384 95.1718 113.384C95.1078 113.384 95.0758 113.32 95.0758 113.192C95.0758 113.064 95.1078 113 95.1718 113L96.8998 113.032C97.8812 113.075 98.6705 113.096 99.2678 113.096C100.079 113.096 101.017 113.075 102.084 113.032L103.844 113C103.887 113 103.908 113.064 103.908 113.192C103.908 113.32 103.887 113.384 103.844 113.384C103.076 113.384 102.511 113.448 102.148 113.576C101.785 113.704 101.529 113.928 101.38 114.248C101.252 114.547 101.188 115.016 101.188 115.656V130.408C101.188 131.048 101.252 131.528 101.38 131.848C101.508 132.147 101.753 132.349 102.116 132.456C102.479 132.563 103.055 132.616 103.844 132.616C103.887 132.616 103.908 132.68 103.908 132.808C103.908 132.936 103.887 133 103.844 133C103.097 133 102.5 132.989 102.052 132.968L99.2678 132.936L96.8678 132.968C96.4412 132.989 95.8545 133 95.1078 133C95.0652 133 95.0438 132.936 95.0438 132.808C95.0438 132.68 95.0652 132.616 95.1078 132.616C95.8545 132.616 96.3985 132.563 96.7398 132.456C97.0812 132.349 97.3158 132.147 97.4438 131.848C97.5718 131.528 97.6358 131.048 97.6358 130.408V115.592ZM119.897 133C119.833 133 119.801 132.936 119.801 132.808C119.801 132.68 119.833 132.616 119.897 132.616C120.58 132.616 121.071 132.563 121.369 132.456C121.689 132.349 121.903 132.147 122.009 131.848C122.116 131.528 122.169 131.048 122.169 130.408V115.592C122.169 114.952 122.116 114.483 122.009 114.184C121.903 113.885 121.689 113.683 121.369 113.576C121.049 113.448 120.559 113.384 119.897 113.384C119.833 113.384 119.801 113.32 119.801 113.192C119.801 113.064 119.833 113 119.897 113H133.465C133.679 113 133.785 113.096 133.785 113.288L133.849 117.544C133.849 117.587 133.785 117.619 133.657 117.64C133.551 117.661 133.487 117.64 133.465 117.576C133.124 116.339 132.548 115.421 131.737 114.824C130.927 114.227 129.86 113.928 128.537 113.928H127.577C126.937 113.928 126.468 114.067 126.169 114.344C125.871 114.621 125.721 115.048 125.721 115.624V130.28C125.721 130.899 125.839 131.357 126.073 131.656C126.308 131.955 126.681 132.104 127.193 132.104H128.249C129.913 132.104 131.247 131.763 132.249 131.08C133.252 130.397 133.988 129.341 134.457 127.912C134.457 127.869 134.5 127.848 134.585 127.848C134.649 127.848 134.703 127.869 134.745 127.912C134.809 127.933 134.841 127.955 134.841 127.976C134.628 129.64 134.521 131.155 134.521 132.52C134.521 132.691 134.489 132.819 134.425 132.904C134.361 132.968 134.233 133 134.041 133H119.897ZM132.249 125.864C132.249 124.989 131.908 124.307 131.225 123.816C130.564 123.304 129.604 123.048 128.345 123.048H124.025V122.152H128.377C129.615 122.152 130.564 121.939 131.225 121.512C131.887 121.085 132.217 120.488 132.217 119.72C132.217 119.656 132.271 119.624 132.377 119.624C132.505 119.624 132.569 119.656 132.569 119.72L132.537 122.6L132.569 124.136C132.612 124.861 132.633 125.437 132.633 125.864C132.633 125.907 132.569 125.928 132.441 125.928C132.313 125.928 132.249 125.907 132.249 125.864ZM144.83 133C144.766 133 144.734 132.936 144.734 132.808C144.734 132.68 144.766 132.616 144.83 132.616C145.576 132.616 146.12 132.563 146.462 132.456C146.803 132.349 147.027 132.147 147.134 131.848C147.262 131.528 147.326 131.048 147.326 130.408V115.592C147.326 114.952 147.272 114.483 147.166 114.184C147.059 113.885 146.846 113.683 146.526 113.576C146.206 113.448 145.715 113.384 145.054 113.384C144.99 113.384 144.958 113.32 144.958 113.192C144.958 113.064 144.99 113 145.054 113H158.622C158.835 113 158.942 113.096 158.942 113.288L159.006 117.544C159.006 117.587 158.942 117.619 158.814 117.64C158.707 117.661 158.643 117.64 158.622 117.576C158.28 116.339 157.704 115.421 156.894 114.824C156.083 114.227 155.016 113.928 153.694 113.928H152.734C152.094 113.928 151.624 114.067 151.326 114.344C151.027 114.621 150.878 115.048 150.878 115.624V130.28C150.878 130.941 150.963 131.432 151.134 131.752C151.304 132.072 151.624 132.296 152.094 132.424C152.563 132.552 153.299 132.616 154.302 132.616C154.344 132.616 154.366 132.68 154.366 132.808C154.366 132.936 154.344 133 154.302 133C153.427 133 152.744 132.989 152.254 132.968L148.99 132.936L146.59 132.968C146.163 132.989 145.576 133 144.83 133ZM157.022 126.216C157.022 125.363 156.68 124.691 155.998 124.2C155.336 123.688 154.387 123.432 153.15 123.432H149.182V122.536H153.182C154.419 122.536 155.358 122.323 155.998 121.896C156.659 121.448 156.99 120.84 156.99 120.072C156.99 120.029 157.054 120.008 157.182 120.008C157.31 120.008 157.374 120.029 157.374 120.072L157.342 122.984C157.342 123.667 157.352 124.179 157.374 124.52L157.406 126.216C157.406 126.28 157.342 126.312 157.214 126.312C157.086 126.312 157.022 126.28 157.022 126.216ZM167.276 130.28C167.276 130.835 167.319 131.24 167.404 131.496C167.49 131.731 167.65 131.891 167.884 131.976C168.14 132.061 168.546 132.104 169.1 132.104H170.188C171.852 132.104 173.292 131.667 174.508 130.792C175.724 129.896 176.535 128.691 176.94 127.176C176.94 127.133 176.983 127.112 177.068 127.112C177.111 127.112 177.154 127.133 177.196 127.176C177.26 127.197 177.292 127.219 177.292 127.24C177.1 129.352 177.004 131.112 177.004 132.52C177.004 132.691 176.962 132.819 176.876 132.904C176.812 132.968 176.695 133 176.524 133H161.42C161.378 133 161.356 132.936 161.356 132.808C161.356 132.68 161.378 132.616 161.42 132.616C162.103 132.616 162.594 132.563 162.892 132.456C163.212 132.349 163.426 132.147 163.532 131.848C163.66 131.528 163.724 131.048 163.724 130.408V115.592C163.724 114.952 163.66 114.483 163.532 114.184C163.426 113.885 163.212 113.683 162.892 113.576C162.572 113.448 162.082 113.384 161.42 113.384C161.378 113.384 161.356 113.32 161.356 113.192C161.356 113.064 161.378 113 161.42 113L163.052 113.032C164.034 113.075 164.844 113.096 165.484 113.096C166.124 113.096 166.935 113.075 167.916 113.032L169.548 113C169.612 113 169.644 113.064 169.644 113.192C169.644 113.32 169.612 113.384 169.548 113.384C168.887 113.384 168.396 113.448 168.076 113.576C167.756 113.683 167.543 113.896 167.436 114.216C167.33 114.515 167.276 114.984 167.276 115.624V130.28ZM189.61 133.384C187.626 133.384 185.855 132.925 184.298 132.008C182.762 131.069 181.567 129.811 180.714 128.232C179.882 126.632 179.466 124.893 179.466 123.016C179.466 120.819 180.021 118.941 181.13 117.384C182.239 115.805 183.658 114.621 185.386 113.832C187.135 113.043 188.917 112.648 190.73 112.648C192.757 112.648 194.538 113.128 196.074 114.088C197.61 115.027 198.783 116.275 199.594 117.832C200.426 119.389 200.842 121.043 200.842 122.792C200.842 124.733 200.33 126.515 199.306 128.136C198.282 129.757 196.906 131.037 195.178 131.976C193.471 132.915 191.615 133.384 189.61 133.384ZM190.666 132.584C191.861 132.584 192.927 132.243 193.866 131.56C194.826 130.856 195.573 129.843 196.106 128.52C196.639 127.176 196.906 125.576 196.906 123.72C196.906 121.757 196.607 120.008 196.01 118.472C195.413 116.915 194.549 115.699 193.418 114.824C192.287 113.949 190.965 113.512 189.45 113.512C187.509 113.512 186.015 114.248 184.97 115.72C183.925 117.171 183.402 119.208 183.402 121.832C183.402 123.901 183.711 125.757 184.33 127.4C184.97 129.021 185.834 130.291 186.922 131.208C188.031 132.125 189.279 132.584 190.666 132.584ZM213.104 132.968C213.083 133.053 212.965 133.096 212.752 133.096C212.539 133.096 212.421 133.053 212.4 132.968L204.24 115.656C203.92 114.973 203.653 114.483 203.44 114.184C203.248 113.885 203.024 113.683 202.768 113.576C202.533 113.448 202.213 113.384 201.808 113.384C201.744 113.384 201.712 113.32 201.712 113.192C201.712 113.064 201.744 113 201.808 113C202.128 113 202.352 113.011 202.48 113.032C202.907 113.075 203.461 113.096 204.144 113.096C205.573 113.096 206.779 113.075 207.76 113.032C208.037 113.011 208.379 113 208.784 113C208.848 113 208.88 113.064 208.88 113.192C208.88 113.32 208.848 113.384 208.784 113.384C208.251 113.384 207.867 113.437 207.632 113.544C207.419 113.651 207.312 113.843 207.312 114.12C207.312 114.483 207.557 115.187 208.048 116.232L214.096 129.064L212.752 131.272L216.432 121.512L217.04 122.408L213.104 132.968ZM230.992 113C231.035 113 231.056 113.064 231.056 113.192C231.056 113.32 231.035 113.384 230.992 113.384C230.203 113.384 229.456 113.725 228.752 114.408C228.069 115.069 227.504 115.987 227.056 117.16L221.136 132.968C221.115 133.053 220.997 133.096 220.784 133.096C220.571 133.096 220.453 133.053 220.432 132.968L212.272 115.656C211.909 114.888 211.568 114.323 211.248 113.96C210.928 113.576 210.587 113.384 210.224 113.384C210.16 113.384 210.128 113.32 210.128 113.192C210.128 113.064 210.16 113 210.224 113C210.437 113 210.683 113.021 210.96 113.064C211.259 113.085 211.675 113.096 212.208 113.096C213.424 113.096 214.437 113.075 215.248 113.032C215.461 113.011 215.739 113 216.08 113C216.144 113 216.176 113.064 216.176 113.192C216.176 113.32 216.144 113.384 216.08 113.384C215.781 113.384 215.557 113.427 215.408 113.512C215.28 113.576 215.216 113.704 215.216 113.896C215.216 114.259 215.504 115.037 216.08 116.232L222.192 129.064L220.816 131.272L226 117.384C226.256 116.701 226.384 116.083 226.384 115.528C226.384 114.867 226.213 114.344 225.872 113.96C225.552 113.576 225.115 113.384 224.56 113.384C224.496 113.384 224.464 113.32 224.464 113.192C224.464 113.064 224.496 113 224.56 113L226.032 113.032C226.8 113.075 227.504 113.096 228.144 113.096C228.571 113.096 229.061 113.075 229.616 113.032L230.992 113ZM218.288 117.064C218.757 115.848 218.992 114.931 218.992 114.312C218.992 113.693 218.725 113.384 218.192 113.384C218.128 113.384 218.096 113.32 218.096 113.192C218.096 113.064 218.128 113 218.192 113C218.363 113 218.544 113.021 218.736 113.064C218.949 113.085 219.461 113.096 220.272 113.096C220.635 113.096 221.072 113.075 221.584 113.032L222.768 113C222.811 113 222.832 113.064 222.832 113.192C222.832 113.32 222.811 113.384 222.768 113.384C221.339 113.384 220.155 114.643 219.216 117.16L217.232 122.408L216.624 121.512L218.288 117.064ZM232.116 133C232.052 133 232.02 132.936 232.02 132.808C232.02 132.68 232.052 132.616 232.116 132.616C232.799 132.616 233.289 132.563 233.588 132.456C233.908 132.349 234.121 132.147 234.228 131.848C234.335 131.528 234.388 131.048 234.388 130.408V115.592C234.388 114.952 234.335 114.483 234.228 114.184C234.121 113.885 233.908 113.683 233.588 113.576C233.268 113.448 232.777 113.384 232.116 113.384C232.052 113.384 232.02 113.32 232.02 113.192C232.02 113.064 232.052 113 232.116 113H245.684C245.897 113 246.004 113.096 246.004 113.288L246.068 117.544C246.068 117.587 246.004 117.619 245.876 117.64C245.769 117.661 245.705 117.64 245.684 117.576C245.343 116.339 244.767 115.421 243.956 114.824C243.145 114.227 242.079 113.928 240.756 113.928H239.796C239.156 113.928 238.687 114.067 238.388 114.344C238.089 114.621 237.94 115.048 237.94 115.624V130.28C237.94 130.899 238.057 131.357 238.292 131.656C238.527 131.955 238.9 132.104 239.412 132.104H240.468C242.132 132.104 243.465 131.763 244.468 131.08C245.471 130.397 246.207 129.341 246.676 127.912C246.676 127.869 246.719 127.848 246.804 127.848C246.868 127.848 246.921 127.869 246.964 127.912C247.028 127.933 247.06 127.955 247.06 127.976C246.847 129.64 246.74 131.155 246.74 132.52C246.74 132.691 246.708 132.819 246.644 132.904C246.58 132.968 246.452 133 246.26 133H232.116ZM244.468 125.864C244.468 124.989 244.127 124.307 243.444 123.816C242.783 123.304 241.823 123.048 240.564 123.048H236.244V122.152H240.596C241.833 122.152 242.783 121.939 243.444 121.512C244.105 121.085 244.436 120.488 244.436 119.72C244.436 119.656 244.489 119.624 244.596 119.624C244.724 119.624 244.788 119.656 244.788 119.72L244.756 122.6L244.788 124.136C244.831 124.861 244.852 125.437 244.852 125.864C244.852 125.907 244.788 125.928 244.66 125.928C244.532 125.928 244.468 125.907 244.468 125.864ZM265.42 133C264.93 133 264.023 132.115 262.7 130.344C261.378 128.552 259.778 126.067 257.9 122.888L260.844 121.992C262.615 124.68 264.087 126.781 265.26 128.296C266.455 129.811 267.511 130.909 268.428 131.592C269.346 132.275 270.242 132.616 271.116 132.616C271.159 132.616 271.18 132.68 271.18 132.808C271.18 132.936 271.159 133 271.116 133H265.42ZM258.54 112.904C260.482 112.904 261.986 113.267 263.052 113.992C264.119 114.696 264.652 115.688 264.652 116.968C264.652 118.184 264.3 119.283 263.596 120.264C262.914 121.245 262.018 122.013 260.908 122.568C259.799 123.101 258.636 123.368 257.42 123.368C256.588 123.368 256.002 123.357 255.66 123.336V130.408C255.66 131.069 255.714 131.549 255.82 131.848C255.927 132.147 256.13 132.349 256.428 132.456C256.748 132.563 257.25 132.616 257.932 132.616C257.975 132.616 257.996 132.68 257.996 132.808C257.996 132.936 257.975 133 257.932 133C257.228 133 256.674 132.989 256.268 132.968L253.836 132.936L251.5 132.968C251.074 132.989 250.498 133 249.772 133C249.708 133 249.676 132.936 249.676 132.808C249.676 132.68 249.708 132.616 249.772 132.616C250.455 132.616 250.946 132.563 251.244 132.456C251.564 132.349 251.778 132.147 251.884 131.848C252.012 131.528 252.076 131.048 252.076 130.408V115.592C252.076 114.952 252.023 114.483 251.916 114.184C251.81 113.885 251.596 113.683 251.276 113.576C250.956 113.448 250.466 113.384 249.804 113.384C249.762 113.384 249.74 113.32 249.74 113.192C249.74 113.064 249.762 113 249.804 113L251.5 113.032C252.482 113.075 253.26 113.096 253.836 113.096C254.562 113.096 255.319 113.064 256.108 113C256.386 112.979 256.727 112.957 257.132 112.936C257.559 112.915 258.028 112.904 258.54 112.904ZM261.004 118.184C261.004 116.435 260.748 115.229 260.236 114.568C259.724 113.907 258.988 113.576 258.028 113.576C257.175 113.576 256.567 113.736 256.204 114.056C255.842 114.376 255.66 114.909 255.66 115.656V122.44C256.172 122.525 256.791 122.568 257.516 122.568C258.754 122.568 259.639 122.227 260.172 121.544C260.727 120.84 261.004 119.72 261.004 118.184ZM283.872 116.232C283.872 117 284.064 117.683 284.448 118.28C284.853 118.877 285.344 119.4 285.92 119.848C286.496 120.296 287.275 120.84 288.256 121.48C289.323 122.163 290.176 122.76 290.816 123.272C291.456 123.784 292 124.413 292.448 125.16C292.896 125.885 293.12 126.728 293.12 127.688C293.12 128.797 292.821 129.789 292.224 130.664C291.627 131.517 290.795 132.189 289.728 132.68C288.683 133.149 287.509 133.384 286.208 133.384C285.269 133.384 284.267 133.256 283.2 133C282.155 132.723 281.451 132.424 281.088 132.104C280.981 132.019 280.896 131.944 280.832 131.88C280.789 131.795 280.768 131.667 280.768 131.496L280.672 126.408V126.376C280.672 126.291 280.725 126.248 280.832 126.248C280.939 126.227 281.003 126.259 281.024 126.344C281.664 127.645 282.219 128.701 282.688 129.512C283.179 130.323 283.787 131.037 284.512 131.656C285.259 132.275 286.101 132.584 287.04 132.584C287.893 132.584 288.597 132.36 289.152 131.912C289.707 131.443 289.984 130.653 289.984 129.544C289.984 128.605 289.771 127.784 289.344 127.08C288.939 126.376 288.437 125.779 287.84 125.288C287.243 124.797 286.421 124.211 285.376 123.528C284.352 122.867 283.552 122.301 282.976 121.832C282.421 121.363 281.941 120.797 281.536 120.136C281.131 119.475 280.928 118.696 280.928 117.8C280.928 116.669 281.248 115.72 281.888 114.952C282.549 114.163 283.392 113.587 284.416 113.224C285.44 112.84 286.517 112.648 287.648 112.648C288.395 112.648 289.152 112.723 289.92 112.872C290.688 113 291.307 113.16 291.776 113.352C291.968 113.437 292.096 113.533 292.16 113.64C292.224 113.725 292.256 113.843 292.256 113.992V118.696C292.256 118.76 292.203 118.813 292.096 118.856C291.989 118.877 291.925 118.856 291.904 118.792L291.648 118.184C291.115 116.84 290.485 115.699 289.76 114.76C289.056 113.821 288.064 113.352 286.784 113.352C285.931 113.352 285.227 113.597 284.672 114.088C284.139 114.579 283.872 115.293 283.872 116.232ZM301.877 113.736C299.338 113.736 297.514 115.389 296.405 118.696C296.383 118.76 296.319 118.792 296.213 118.792C296.106 118.771 296.053 118.728 296.053 118.664C296.138 117.811 296.234 116.712 296.341 115.368C296.447 114.003 296.501 112.979 296.501 112.296C296.501 112.189 296.554 112.136 296.661 112.136C296.789 112.136 296.853 112.189 296.853 112.296C296.853 112.765 297.461 113 298.677 113C300.511 113.064 302.655 113.096 305.109 113.096C306.367 113.096 307.701 113.075 309.109 113.032L311.285 113C312.095 113 312.682 112.947 313.045 112.84C313.429 112.733 313.674 112.52 313.781 112.2C313.802 112.115 313.866 112.072 313.973 112.072C314.101 112.072 314.165 112.115 314.165 112.2C314.101 112.84 314.026 113.864 313.941 115.272C313.877 116.68 313.845 117.811 313.845 118.664C313.845 118.728 313.791 118.76 313.685 118.76C313.578 118.76 313.514 118.728 313.493 118.664C313.173 117.021 312.575 115.795 311.701 114.984C310.826 114.152 309.749 113.736 308.469 113.736C307.85 113.736 307.434 113.875 307.221 114.152C307.029 114.408 306.933 114.909 306.933 115.656V130.408C306.933 131.069 306.997 131.549 307.125 131.848C307.253 132.147 307.498 132.349 307.861 132.456C308.223 132.563 308.799 132.616 309.589 132.616C309.653 132.616 309.685 132.68 309.685 132.808C309.685 132.936 309.653 133 309.589 133C308.821 133 308.213 132.989 307.765 132.968L305.109 132.936L302.517 132.968C302.069 132.989 301.45 133 300.661 133C300.597 133 300.565 132.936 300.565 132.808C300.565 132.68 300.597 132.616 300.661 132.616C301.429 132.616 301.994 132.563 302.357 132.456C302.741 132.349 302.997 132.147 303.125 131.848C303.274 131.528 303.349 131.048 303.349 130.408V115.592C303.349 114.867 303.253 114.376 303.061 114.12C302.869 113.864 302.474 113.736 301.877 113.736ZM326.485 133.384C324.501 133.384 322.73 132.925 321.173 132.008C319.637 131.069 318.442 129.811 317.589 128.232C316.757 126.632 316.341 124.893 316.341 123.016C316.341 120.819 316.895 118.941 318.005 117.384C319.114 115.805 320.533 114.621 322.261 113.832C324.01 113.043 325.791 112.648 327.605 112.648C329.631 112.648 331.413 113.128 332.949 114.088C334.485 115.027 335.658 116.275 336.469 117.832C337.301 119.389 337.717 121.043 337.717 122.792C337.717 124.733 337.205 126.515 336.181 128.136C335.157 129.757 333.781 131.037 332.053 131.976C330.346 132.915 328.49 133.384 326.485 133.384ZM327.541 132.584C328.735 132.584 329.802 132.243 330.741 131.56C331.701 130.856 332.447 129.843 332.981 128.52C333.514 127.176 333.781 125.576 333.781 123.72C333.781 121.757 333.482 120.008 332.885 118.472C332.287 116.915 331.423 115.699 330.293 114.824C329.162 113.949 327.839 113.512 326.325 113.512C324.383 113.512 322.89 114.248 321.845 115.72C320.799 117.171 320.277 119.208 320.277 121.832C320.277 123.901 320.586 125.757 321.205 127.4C321.845 129.021 322.709 130.291 323.797 131.208C324.906 132.125 326.154 132.584 327.541 132.584ZM356.233 133C355.742 133 354.835 132.115 353.513 130.344C352.19 128.552 350.59 126.067 348.713 122.888L351.657 121.992C353.427 124.68 354.899 126.781 356.073 128.296C357.267 129.811 358.323 130.909 359.241 131.592C360.158 132.275 361.054 132.616 361.929 132.616C361.971 132.616 361.993 132.68 361.993 132.808C361.993 132.936 361.971 133 361.929 133H356.233ZM349.353 112.904C351.294 112.904 352.798 113.267 353.865 113.992C354.931 114.696 355.465 115.688 355.465 116.968C355.465 118.184 355.113 119.283 354.409 120.264C353.726 121.245 352.83 122.013 351.721 122.568C350.611 123.101 349.449 123.368 348.233 123.368C347.401 123.368 346.814 123.357 346.473 123.336V130.408C346.473 131.069 346.526 131.549 346.633 131.848C346.739 132.147 346.942 132.349 347.241 132.456C347.561 132.563 348.062 132.616 348.745 132.616C348.787 132.616 348.809 132.68 348.809 132.808C348.809 132.936 348.787 133 348.745 133C348.041 133 347.486 132.989 347.081 132.968L344.649 132.936L342.313 132.968C341.886 132.989 341.31 133 340.585 133C340.521 133 340.489 132.936 340.489 132.808C340.489 132.68 340.521 132.616 340.585 132.616C341.267 132.616 341.758 132.563 342.057 132.456C342.377 132.349 342.59 132.147 342.697 131.848C342.825 131.528 342.889 131.048 342.889 130.408V115.592C342.889 114.952 342.835 114.483 342.729 114.184C342.622 113.885 342.409 113.683 342.089 113.576C341.769 113.448 341.278 113.384 340.617 113.384C340.574 113.384 340.553 113.32 340.553 113.192C340.553 113.064 340.574 113 340.617 113L342.313 113.032C343.294 113.075 344.073 113.096 344.649 113.096C345.374 113.096 346.131 113.064 346.921 113C347.198 112.979 347.539 112.957 347.945 112.936C348.371 112.915 348.841 112.904 349.353 112.904ZM351.817 118.184C351.817 116.435 351.561 115.229 351.049 114.568C350.537 113.907 349.801 113.576 348.841 113.576C347.987 113.576 347.379 113.736 347.017 114.056C346.654 114.376 346.473 114.909 346.473 115.656V122.44C346.985 122.525 347.603 122.568 348.329 122.568C349.566 122.568 350.451 122.227 350.985 121.544C351.539 120.84 351.817 119.72 351.817 118.184ZM362.929 133C362.865 133 362.833 132.936 362.833 132.808C362.833 132.68 362.865 132.616 362.929 132.616C363.611 132.616 364.102 132.563 364.401 132.456C364.721 132.349 364.934 132.147 365.041 131.848C365.147 131.528 365.201 131.048 365.201 130.408V115.592C365.201 114.952 365.147 114.483 365.041 114.184C364.934 113.885 364.721 113.683 364.401 113.576C364.081 113.448 363.59 113.384 362.929 113.384C362.865 113.384 362.833 113.32 362.833 113.192C362.833 113.064 362.865 113 362.929 113H376.497C376.71 113 376.817 113.096 376.817 113.288L376.881 117.544C376.881 117.587 376.817 117.619 376.689 117.64C376.582 117.661 376.518 117.64 376.497 117.576C376.155 116.339 375.579 115.421 374.769 114.824C373.958 114.227 372.891 113.928 371.569 113.928H370.609C369.969 113.928 369.499 114.067 369.201 114.344C368.902 114.621 368.753 115.048 368.753 115.624V130.28C368.753 130.899 368.87 131.357 369.105 131.656C369.339 131.955 369.713 132.104 370.225 132.104H371.281C372.945 132.104 374.278 131.763 375.281 131.08C376.283 130.397 377.019 129.341 377.489 127.912C377.489 127.869 377.531 127.848 377.617 127.848C377.681 127.848 377.734 127.869 377.777 127.912C377.841 127.933 377.873 127.955 377.873 127.976C377.659 129.64 377.553 131.155 377.553 132.52C377.553 132.691 377.521 132.819 377.457 132.904C377.393 132.968 377.265 133 377.073 133H362.929ZM375.281 125.864C375.281 124.989 374.939 124.307 374.257 123.816C373.595 123.304 372.635 123.048 371.377 123.048H367.057V122.152H371.409C372.646 122.152 373.595 121.939 374.257 121.512C374.918 121.085 375.249 120.488 375.249 119.72C375.249 119.656 375.302 119.624 375.409 119.624C375.537 119.624 375.601 119.656 375.601 119.72L375.569 122.6L375.601 124.136C375.643 124.861 375.665 125.437 375.665 125.864C375.665 125.907 375.601 125.928 375.473 125.928C375.345 125.928 375.281 125.907 375.281 125.864Z" fill="white"/>
</svg>
