<svg width="443" height="159" viewBox="0 0 443 159" fill="none" xmlns="http://www.w3.org/2000/svg">
<path d="M118.903 42.6562C122.559 44.5312 125.341 47.2188 127.247 50.7188C129.184 54.1875 130.153 57.9375 130.153 61.9688C130.153 64.9062 129.669 67.7188 128.7 70.4062C127.763 73.0938 126.403 75.4531 124.622 77.4844C122.872 79.4844 120.747 81.0781 118.247 82.2656C115.747 83.4531 112.934 84.0469 109.809 84.0469C107.122 84.0469 104.544 83.6562 102.075 82.875C99.6063 82.125 97.2469 81.1094 94.9969 79.8281C92.7782 78.5469 90.6532 77.0625 88.6219 75.375C86.6219 73.6562 84.6844 71.875 82.8094 70.0312L82.4344 69.6562C81.8719 69.0625 81.1844 68.4375 80.3719 67.7812C79.5907 67.0938 78.7626 66.4688 77.8876 65.9062C77.0126 65.3438 76.1063 64.875 75.1688 64.5C74.2626 64.0938 73.3563 63.8906 72.4501 63.8906C70.3563 63.8906 68.7157 64.5469 67.5282 65.8594C66.3407 67.1719 65.7469 68.8438 65.7469 70.875C65.7469 72.6875 66.2001 74.2188 67.1063 75.4688C68.0438 76.7188 69.5438 77.3438 71.6063 77.3438C71.3563 76.8125 71.2313 76.2344 71.2313 75.6094C71.2313 74.0781 71.7938 72.7656 72.9188 71.6719C74.0751 70.5781 75.4969 70.0312 77.1844 70.0312C78.8407 70.0312 80.2313 70.5781 81.3563 71.6719C82.5126 72.7656 83.0907 74.0781 83.0907 75.6094C83.0907 75.9219 83.0594 76.25 82.9969 76.5938C82.9344 76.9062 82.8407 77.2188 82.7157 77.5312L82.6219 77.7188C82.2469 78.75 81.6376 79.6875 80.7938 80.5312C79.9813 81.4062 79.0594 82.1562 78.0282 82.7812C76.9969 83.4375 75.9032 83.9375 74.7469 84.2812C73.5907 84.625 72.5126 84.7969 71.5126 84.7969C69.4501 84.7969 67.5594 84.4531 65.8407 83.7656C64.1219 83.1094 62.6376 82.1562 61.3876 80.9062C60.1376 79.6875 59.1532 78.2344 58.4344 76.5469C57.7469 74.8281 57.4032 72.9375 57.4032 70.875C57.4032 68.7188 57.7782 66.7656 58.5282 65.0156C59.3094 63.2344 60.3719 61.7188 61.7157 60.4688C63.0594 59.2188 64.6532 58.25 66.4969 57.5625C68.3719 56.8438 70.3563 56.4844 72.4501 56.4844C74.1063 56.4844 75.6376 56.7344 77.0438 57.2344C78.4813 57.7031 79.8094 58.3281 81.0282 59.1094C82.2782 59.8594 83.4813 60.75 84.6376 61.7812C85.7938 62.8125 86.9188 63.9062 88.0126 65.0625L88.3876 65.4375C88.7001 65.75 88.8407 65.8906 88.8094 65.8594C88.7782 65.8281 88.9657 65.9688 89.3719 66.2812V27.0469L87.7313 25.2188L97.7157 22.0312V38.7188H97.6219C99.2157 39.4375 101.2 39.7969 103.575 39.7969H105.684H105.872C108.247 39.6094 110.169 39.0625 111.638 38.1562C113.106 37.25 114.231 36.2344 115.013 35.1094C115.825 33.9531 116.372 32.7344 116.653 31.4531C116.934 30.1719 117.075 29.0156 117.075 27.9844C117.075 25.1094 116.45 22.8437 115.2 21.1875C113.981 19.5 112.528 18.2656 110.841 17.4844C109.184 16.6719 107.513 16.1563 105.825 15.9375C104.138 15.7187 102.841 15.6094 101.934 15.6094H99.6376C97.8251 15.6094 95.9657 15.875 94.0594 16.4062C92.1532 16.9063 90.3719 17.6875 88.7157 18.75C87.0907 19.7812 85.7157 21.0938 84.5907 22.6875C83.4657 24.25 82.7782 26.0469 82.5282 28.0781C83.9344 28.3281 85.0907 28.9375 85.9969 29.9062C86.9032 30.875 87.3563 32 87.3563 33.2812C87.3563 34.75 86.7626 36 85.5751 37.0312C84.3876 38.0312 82.9657 38.5312 81.3094 38.5312C79.6844 38.5312 78.2938 38.0625 77.1376 37.125C76.0126 36.1562 75.4188 34.9375 75.3563 33.4688C75.2938 32.9375 75.2313 32.4531 75.1688 32.0156C75.1376 31.5781 75.1219 31.0938 75.1219 30.5625C75.1219 27.1875 75.7782 24.125 77.0907 21.375C78.4032 18.625 80.1688 16.2812 82.3876 14.3438C84.6063 12.375 87.2001 10.8594 90.1688 9.79688C93.1376 8.73437 96.2938 8.20312 99.6376 8.20312H101.934C105.528 8.20312 108.778 8.67188 111.684 9.60938C114.591 10.5156 117.059 11.8438 119.091 13.5938C121.153 15.3125 122.747 17.3906 123.872 19.8281C124.997 22.2656 125.559 24.9844 125.559 27.9844C125.559 30.7969 125.013 33.5 123.919 36.0938C122.825 38.6875 121.153 40.875 118.903 42.6562ZM108.825 77.0625C110.95 77.0625 112.809 76.6406 114.403 75.7969C115.997 74.9531 117.341 73.8438 118.434 72.4688C119.528 71.0938 120.356 69.5 120.919 67.6875C121.513 65.8438 121.809 63.9375 121.809 61.9688C121.809 57.0312 120.341 53.3594 117.403 50.9531C114.497 48.5156 110.747 47.2656 106.153 47.2031C105.841 47.2031 105.513 47.2188 105.169 47.25C104.856 47.2812 104.544 47.2969 104.231 47.2969H103.763C101.7 47.4219 99.6844 47.6094 97.7157 47.8594V73.3125L97.4344 73.125C99.0907 74.25 100.888 75.1875 102.825 75.9375C104.794 76.6875 106.794 77.0625 108.825 77.0625ZM142.903 78H133.294L134.184 75.375V17.3906H134.231L132.544 15.4688L142.013 12.5156L141.966 75.375L142.903 78ZM168.403 30.75C171.841 30.75 174.934 31.375 177.684 32.625C180.434 33.8438 182.763 35.5312 184.669 37.6875C186.575 39.8438 188.028 42.375 189.028 45.2812C190.059 48.1875 190.575 51.3125 190.575 54.6562C190.575 57.9688 190.059 61.0781 189.028 63.9844C188.028 66.8594 186.575 69.375 184.669 71.5312C182.763 73.6875 180.434 75.3906 177.684 76.6406C174.934 77.8594 171.841 78.4688 168.403 78.4688C164.934 78.4688 161.825 77.8594 159.075 76.6406C156.325 75.3906 153.997 73.6875 152.091 71.5312C150.184 69.375 148.731 66.8594 147.731 63.9844C146.731 61.0781 146.231 57.9688 146.231 54.6562C146.231 51.3125 146.731 48.1875 147.731 45.2812C148.731 42.375 150.184 39.8438 152.091 37.6875C153.997 35.5312 156.325 33.8438 159.075 32.625C161.825 31.375 164.934 30.75 168.403 30.75ZM161.981 70.125C163.794 71.0312 165.934 71.4844 168.403 71.4844C170.872 71.4844 172.997 71.0312 174.778 70.125C176.591 69.2188 178.075 68 179.231 66.4688C180.419 64.9062 181.294 63.1094 181.856 61.0781C182.419 59.0469 182.7 56.9062 182.7 54.6562C182.7 52.4062 182.419 50.2656 181.856 48.2344C181.294 46.2031 180.419 44.4219 179.231 42.8906C178.075 41.3594 176.591 40.1406 174.778 39.2344C172.997 38.3281 170.872 37.875 168.403 37.875C165.934 37.875 163.794 38.3281 161.981 39.2344C160.2 40.1406 158.716 41.3594 157.528 42.8906C156.372 44.4219 155.497 46.2031 154.903 48.2344C154.341 50.2656 154.059 52.4062 154.059 54.6562C154.059 56.9062 154.341 59.0625 154.903 61.125C155.497 63.1562 156.372 64.9375 157.528 66.4688C158.716 68 160.2 69.2188 161.981 70.125ZM211.013 49.7344C212.731 50.4219 214.45 51.2188 216.169 52.125C217.919 53.0312 219.481 54.1094 220.856 55.3594C222.263 56.5781 223.403 58 224.278 59.625C225.153 61.25 225.591 63.125 225.591 65.25C225.591 67.3125 225.091 69.1562 224.091 70.7812C223.091 72.4062 221.794 73.7812 220.2 74.9062C218.638 76.0312 216.888 76.8906 214.95 77.4844C213.013 78.0781 211.106 78.375 209.231 78.375C207.294 78.375 205.356 78.0781 203.419 77.4844C201.481 76.8594 199.731 75.9844 198.169 74.8594C196.638 73.7031 195.388 72.2969 194.419 70.6406C193.481 68.9531 193.013 67.0469 193.013 64.9219C193.013 63.9844 193.138 63.0938 193.388 62.25C193.638 61.4062 194.013 60.6719 194.513 60.0469C195.044 59.4219 195.684 58.9219 196.434 58.5469C197.216 58.1719 198.138 57.9844 199.2 57.9844H199.388C200.138 58.0156 200.856 58.1875 201.544 58.5C202.231 58.7812 202.825 59.1719 203.325 59.6719C203.856 60.1719 204.263 60.7656 204.544 61.4531C204.856 62.1094 205.013 62.8281 205.013 63.6094C205.013 65.6406 204.106 67.1875 202.294 68.25C203.075 69.25 204.122 70 205.434 70.5C206.747 70.9688 208.013 71.2031 209.231 71.2031C210.075 71.2031 210.997 71.0781 211.997 70.8281C212.997 70.5469 213.919 70.1562 214.763 69.6562C215.606 69.1562 216.309 68.5469 216.872 67.8281C217.434 67.0781 217.716 66.2188 217.716 65.25C217.716 64.0312 217.372 62.9531 216.684 62.0156C216.028 61.0469 215.2 60.2188 214.2 59.5312C213.2 58.8125 212.122 58.2031 210.966 57.7031C209.841 57.2031 208.825 56.7812 207.919 56.4375C206.481 55.875 204.981 55.2188 203.419 54.4688C201.888 53.6875 200.466 52.7812 199.153 51.75C197.872 50.7188 196.809 49.5312 195.966 48.1875C195.122 46.8125 194.7 45.2344 194.7 43.4531C194.7 41.2656 195.138 39.375 196.013 37.7812C196.888 36.1875 198.028 34.875 199.434 33.8438C200.872 32.7812 202.513 32 204.356 31.5C206.2 31 208.106 30.75 210.075 30.75C211.731 30.75 213.388 31.0156 215.044 31.5469C216.7 32.0469 218.184 32.7812 219.497 33.75C220.809 34.7188 221.872 35.9219 222.684 37.3594C223.528 38.7656 223.95 40.3906 223.95 42.2344C223.95 43.0781 223.825 43.9688 223.575 44.9062C223.138 46 222.434 46.875 221.466 47.5312C220.497 48.1562 219.419 48.4688 218.231 48.4688H218.138C217.481 48.4688 216.825 48.3594 216.169 48.1406C215.513 47.8906 214.919 47.5469 214.388 47.1094C213.856 46.6719 213.419 46.1562 213.075 45.5625C212.763 44.9688 212.606 44.3281 212.606 43.6406C212.606 42.8906 212.825 42.0938 213.263 41.25C213.731 40.375 214.325 39.5781 215.044 38.8594C213.356 37.7656 211.45 37.2188 209.325 37.2188H209.231C207.075 37.2188 205.419 37.7031 204.263 38.6719C203.138 39.6094 202.575 41.2031 202.575 43.4531C202.575 44.1719 202.747 44.75 203.091 45.1875C203.434 45.625 203.763 45.9375 204.075 46.125C204.981 46.9062 206.013 47.5781 207.169 48.1406C208.356 48.7031 209.638 49.2344 211.013 49.7344ZM245.981 49.7344C247.7 50.4219 249.419 51.2188 251.138 52.125C252.888 53.0312 254.45 54.1094 255.825 55.3594C257.231 56.5781 258.372 58 259.247 59.625C260.122 61.25 260.559 63.125 260.559 65.25C260.559 67.3125 260.059 69.1562 259.059 70.7812C258.059 72.4062 256.763 73.7812 255.169 74.9062C253.606 76.0312 251.856 76.8906 249.919 77.4844C247.981 78.0781 246.075 78.375 244.2 78.375C242.263 78.375 240.325 78.0781 238.388 77.4844C236.45 76.8594 234.7 75.9844 233.138 74.8594C231.606 73.7031 230.356 72.2969 229.388 70.6406C228.45 68.9531 227.981 67.0469 227.981 64.9219C227.981 63.9844 228.106 63.0938 228.356 62.25C228.606 61.4062 228.981 60.6719 229.481 60.0469C230.013 59.4219 230.653 58.9219 231.403 58.5469C232.184 58.1719 233.106 57.9844 234.169 57.9844H234.356C235.106 58.0156 235.825 58.1875 236.513 58.5C237.2 58.7812 237.794 59.1719 238.294 59.6719C238.825 60.1719 239.231 60.7656 239.513 61.4531C239.825 62.1094 239.981 62.8281 239.981 63.6094C239.981 65.6406 239.075 67.1875 237.263 68.25C238.044 69.25 239.091 70 240.403 70.5C241.716 70.9688 242.981 71.2031 244.2 71.2031C245.044 71.2031 245.966 71.0781 246.966 70.8281C247.966 70.5469 248.888 70.1562 249.731 69.6562C250.575 69.1562 251.278 68.5469 251.841 67.8281C252.403 67.0781 252.684 66.2188 252.684 65.25C252.684 64.0312 252.341 62.9531 251.653 62.0156C250.997 61.0469 250.169 60.2188 249.169 59.5312C248.169 58.8125 247.091 58.2031 245.934 57.7031C244.809 57.2031 243.794 56.7812 242.888 56.4375C241.45 55.875 239.95 55.2188 238.388 54.4688C236.856 53.6875 235.434 52.7812 234.122 51.75C232.841 50.7188 231.778 49.5312 230.934 48.1875C230.091 46.8125 229.669 45.2344 229.669 43.4531C229.669 41.2656 230.106 39.375 230.981 37.7812C231.856 36.1875 232.997 34.875 234.403 33.8438C235.841 32.7812 237.481 32 239.325 31.5C241.169 31 243.075 30.75 245.044 30.75C246.7 30.75 248.356 31.0156 250.013 31.5469C251.669 32.0469 253.153 32.7812 254.466 33.75C255.778 34.7188 256.841 35.9219 257.653 37.3594C258.497 38.7656 258.919 40.3906 258.919 42.2344C258.919 43.0781 258.794 43.9688 258.544 44.9062C258.106 46 257.403 46.875 256.434 47.5312C255.466 48.1562 254.388 48.4688 253.2 48.4688H253.106C252.45 48.4688 251.794 48.3594 251.138 48.1406C250.481 47.8906 249.888 47.5469 249.356 47.1094C248.825 46.6719 248.388 46.1562 248.044 45.5625C247.731 44.9688 247.575 44.3281 247.575 43.6406C247.575 42.8906 247.794 42.0938 248.231 41.25C248.7 40.375 249.294 39.5781 250.013 38.8594C248.325 37.7656 246.419 37.2188 244.294 37.2188H244.2C242.044 37.2188 240.388 37.7031 239.231 38.6719C238.106 39.6094 237.544 41.2031 237.544 43.4531C237.544 44.1719 237.716 44.75 238.059 45.1875C238.403 45.625 238.731 45.9375 239.044 46.125C239.95 46.9062 240.981 47.5781 242.138 48.1406C243.325 48.7031 244.606 49.2344 245.981 49.7344ZM285.028 30.75C288.466 30.75 291.559 31.375 294.309 32.625C297.059 33.8438 299.388 35.5312 301.294 37.6875C303.2 39.8438 304.653 42.375 305.653 45.2812C306.684 48.1875 307.2 51.3125 307.2 54.6562C307.2 57.9688 306.684 61.0781 305.653 63.9844C304.653 66.8594 303.2 69.375 301.294 71.5312C299.388 73.6875 297.059 75.3906 294.309 76.6406C291.559 77.8594 288.466 78.4688 285.028 78.4688C281.559 78.4688 278.45 77.8594 275.7 76.6406C272.95 75.3906 270.622 73.6875 268.716 71.5312C266.809 69.375 265.356 66.8594 264.356 63.9844C263.356 61.0781 262.856 57.9688 262.856 54.6562C262.856 51.3125 263.356 48.1875 264.356 45.2812C265.356 42.375 266.809 39.8438 268.716 37.6875C270.622 35.5312 272.95 33.8438 275.7 32.625C278.45 31.375 281.559 30.75 285.028 30.75ZM278.606 70.125C280.419 71.0312 282.559 71.4844 285.028 71.4844C287.497 71.4844 289.622 71.0312 291.403 70.125C293.216 69.2188 294.7 68 295.856 66.4688C297.044 64.9062 297.919 63.1094 298.481 61.0781C299.044 59.0469 299.325 56.9062 299.325 54.6562C299.325 52.4062 299.044 50.2656 298.481 48.2344C297.919 46.2031 297.044 44.4219 295.856 42.8906C294.7 41.3594 293.216 40.1406 291.403 39.2344C289.622 38.3281 287.497 37.875 285.028 37.875C282.559 37.875 280.419 38.3281 278.606 39.2344C276.825 40.1406 275.341 41.3594 274.153 42.8906C272.997 44.4219 272.122 46.2031 271.528 48.2344C270.966 50.2656 270.684 52.4062 270.684 54.6562C270.684 56.9062 270.966 59.0625 271.528 61.125C272.122 63.1562 272.997 64.9375 274.153 66.4688C275.341 68 276.825 69.2188 278.606 70.125ZM377.934 78H368.231L369.075 75.375V46.0312C369.075 45 368.856 44.0156 368.419 43.0781C368.013 42.1094 367.45 41.2656 366.731 40.5469C366.044 39.7969 365.247 39.2031 364.341 38.7656C363.434 38.3281 362.481 38.0938 361.481 38.0625C359.544 38.1562 357.763 38.5312 356.138 39.1875C354.544 39.8438 353.169 40.8438 352.013 42.1875C350.888 43.5 349.997 45.1719 349.341 47.2031C348.716 49.2344 348.403 51.6875 348.403 54.5625V75.4688L349.294 78H339.591L340.575 75.375C340.544 70.4688 340.513 65.5938 340.481 60.75C340.481 55.875 340.481 50.9688 340.481 46.0312C340.45 44.9688 340.231 43.9688 339.825 43.0312C339.45 42.0938 338.919 41.2656 338.231 40.5469C337.544 39.7969 336.747 39.2031 335.841 38.7656C334.934 38.3281 333.934 38.0938 332.841 38.0625C330.872 38.125 329.075 38.5 327.45 39.1875C325.825 39.8438 324.419 40.7969 323.231 42.0469C320.794 44.5781 319.575 48.75 319.575 54.5625L319.528 75.375L320.466 78H310.856L311.747 75.375V35.4375L310.106 33.6094L319.575 30.6094V37.9688C321.075 35.5 322.934 33.6875 325.153 32.5312C327.403 31.3438 329.966 30.75 332.841 30.75C334.434 30.75 335.966 30.9688 337.434 31.4062C338.903 31.8438 340.247 32.4844 341.466 33.3281C342.716 34.1406 343.809 35.125 344.747 36.2812C345.716 37.4062 346.497 38.6719 347.091 40.0781C348.591 36.8594 350.544 34.5 352.95 33C355.388 31.5 358.231 30.75 361.481 30.75C363.606 30.75 365.606 31.1562 367.481 31.9688C369.356 32.7812 370.997 33.875 372.403 35.25C373.841 36.625 374.966 38.25 375.778 40.125C376.622 41.9688 377.044 43.9375 377.044 46.0312V75.375L377.934 78Z" fill="#DC329C"/>
<path d="M81.867 113.576C80.5443 113.576 79.5416 113.917 78.859 114.6C78.1976 115.283 77.7176 116.445 77.419 118.088C77.419 118.131 77.355 118.152 77.227 118.152C77.1203 118.152 77.067 118.131 77.067 118.088C77.1523 117.32 77.2483 116.317 77.355 115.08C77.4616 113.843 77.515 112.915 77.515 112.296C77.515 112.189 77.5683 112.136 77.675 112.136C77.803 112.136 77.867 112.189 77.867 112.296C77.867 112.765 78.443 113 79.595 113C81.4296 113.064 83.5736 113.096 86.027 113.096C87.2856 113.096 88.619 113.075 90.027 113.032L92.203 113C92.971 113 93.5363 112.947 93.899 112.84C94.283 112.733 94.5283 112.52 94.635 112.2C94.6563 112.115 94.7203 112.072 94.827 112.072C94.9336 112.072 94.987 112.115 94.987 112.2C94.923 112.819 94.859 113.757 94.795 115.016C94.731 116.275 94.699 117.299 94.699 118.088C94.699 118.131 94.635 118.152 94.507 118.152C94.379 118.152 94.315 118.131 94.315 118.088C94.251 116.424 93.9096 115.261 93.291 114.6C92.6723 113.917 91.6483 113.576 90.219 113.576C89.259 113.576 88.5763 113.619 88.171 113.704C87.7656 113.789 87.4883 113.971 87.339 114.248C87.1896 114.525 87.115 114.995 87.115 115.656V130.408C87.115 131.069 87.1896 131.549 87.339 131.848C87.4883 132.147 87.7763 132.349 88.203 132.456C88.6296 132.563 89.3016 132.616 90.219 132.616C90.283 132.616 90.315 132.68 90.315 132.808C90.315 132.936 90.283 133 90.219 133C89.515 133 88.9496 132.989 88.523 132.968L86.027 132.936L83.627 132.968C83.2003 132.989 82.6136 133 81.867 133C81.8243 133 81.803 132.936 81.803 132.808C81.803 132.68 81.8243 132.616 81.867 132.616C82.7843 132.616 83.4563 132.563 83.883 132.456C84.3096 132.349 84.5976 132.147 84.747 131.848C84.9176 131.528 85.003 131.048 85.003 130.408V115.592C85.003 114.931 84.9283 114.472 84.779 114.216C84.6296 113.939 84.3523 113.768 83.947 113.704C83.5416 113.619 82.8483 113.576 81.867 113.576ZM114.404 115.656C114.404 115.016 114.33 114.547 114.18 114.248C114.052 113.928 113.796 113.704 113.412 113.576C113.028 113.448 112.42 113.384 111.588 113.384C111.524 113.384 111.492 113.32 111.492 113.192C111.492 113.064 111.524 113 111.588 113L113.124 113.032C114.063 113.075 114.842 113.096 115.46 113.096C116.036 113.096 116.772 113.075 117.668 113.032L119.236 113C119.3 113 119.332 113.064 119.332 113.192C119.332 113.32 119.3 113.384 119.236 113.384C118.426 113.384 117.828 113.448 117.444 113.576C117.06 113.683 116.794 113.885 116.644 114.184C116.516 114.483 116.452 114.952 116.452 115.592V130.408C116.452 131.048 116.516 131.528 116.644 131.848C116.794 132.147 117.06 132.349 117.444 132.456C117.828 132.563 118.426 132.616 119.236 132.616C119.3 132.616 119.332 132.68 119.332 132.808C119.332 132.936 119.3 133 119.236 133C118.575 133 118.052 132.989 117.668 132.968L115.46 132.936L113.124 132.968C112.74 132.989 112.228 133 111.588 133C111.524 133 111.492 132.936 111.492 132.808C111.492 132.68 111.524 132.616 111.588 132.616C112.42 132.616 113.028 132.563 113.412 132.456C113.796 132.349 114.052 132.147 114.18 131.848C114.33 131.528 114.404 131.048 114.404 130.408V115.656ZM100.996 122.248H115.3V122.92H100.996V122.248ZM100.068 115.592C100.068 114.952 99.9936 114.483 99.8442 114.184C99.7162 113.885 99.4602 113.683 99.0762 113.576C98.6922 113.448 98.0949 113.384 97.2842 113.384C97.2416 113.384 97.2202 113.32 97.2202 113.192C97.2202 113.064 97.2416 113 97.2842 113L98.9162 113.032C99.8122 113.075 100.527 113.096 101.06 113.096C101.679 113.096 102.458 113.075 103.396 113.032L104.932 113C104.975 113 104.996 113.064 104.996 113.192C104.996 113.32 104.975 113.384 104.932 113.384C104.122 113.384 103.514 113.448 103.108 113.576C102.724 113.704 102.458 113.928 102.308 114.248C102.18 114.547 102.116 115.016 102.116 115.656V130.408C102.116 131.048 102.18 131.528 102.308 131.848C102.458 132.147 102.724 132.349 103.108 132.456C103.492 132.563 104.1 132.616 104.932 132.616C104.975 132.616 104.996 132.68 104.996 132.808C104.996 132.936 104.975 133 104.932 133C104.271 133 103.748 132.989 103.364 132.968L101.06 132.936L98.8522 132.968C98.4682 132.989 97.9349 133 97.2522 133C97.2096 133 97.1882 132.936 97.1882 132.808C97.1882 132.68 97.2096 132.616 97.2522 132.616C98.0629 132.616 98.6602 132.563 99.0442 132.456C99.4496 132.349 99.7162 132.147 99.8442 131.848C99.9936 131.528 100.068 131.048 100.068 130.408V115.592ZM121.789 133C121.747 133 121.725 132.936 121.725 132.808C121.725 132.68 121.747 132.616 121.789 132.616C122.6 132.616 123.187 132.563 123.549 132.456C123.933 132.349 124.189 132.147 124.317 131.848C124.467 131.528 124.541 131.048 124.541 130.408V115.592C124.541 114.952 124.467 114.483 124.317 114.184C124.189 113.885 123.933 113.683 123.549 113.576C123.187 113.448 122.6 113.384 121.789 113.384C121.747 113.384 121.725 113.32 121.725 113.192C121.725 113.064 121.747 113 121.789 113H134.653C134.845 113 134.941 113.096 134.941 113.288L135.005 117.224C135.005 117.288 134.941 117.331 134.813 117.352C134.707 117.352 134.653 117.32 134.653 117.256C134.589 116.125 134.248 115.251 133.629 114.632C133.011 113.992 132.189 113.672 131.165 113.672H129.213C128.467 113.672 127.912 113.736 127.549 113.864C127.187 113.971 126.931 114.163 126.781 114.44C126.653 114.717 126.589 115.155 126.589 115.752V130.28C126.589 130.856 126.653 131.293 126.781 131.592C126.931 131.869 127.176 132.061 127.517 132.168C127.859 132.275 128.392 132.328 129.117 132.328H131.677C132.701 132.328 133.555 131.965 134.237 131.24C134.92 130.515 135.379 129.512 135.613 128.232C135.613 128.189 135.656 128.168 135.741 128.168C135.805 128.168 135.859 128.189 135.901 128.232C135.965 128.253 135.997 128.275 135.997 128.296C135.805 129.64 135.709 131.048 135.709 132.52C135.709 132.691 135.667 132.819 135.581 132.904C135.517 132.968 135.389 133 135.197 133H121.789ZM133.405 125.544C133.405 124.605 133.171 123.933 132.701 123.528C132.253 123.123 131.496 122.92 130.429 122.92H125.629V122.248H130.525C131.549 122.248 132.275 122.077 132.701 121.736C133.149 121.395 133.373 120.819 133.373 120.008C133.373 119.965 133.437 119.944 133.565 119.944C133.693 119.944 133.757 119.965 133.757 120.008L133.725 122.6C133.725 123.219 133.736 123.688 133.757 124.008L133.789 125.544C133.789 125.587 133.725 125.608 133.597 125.608C133.469 125.608 133.405 125.587 133.405 125.544ZM146.445 133C146.402 133 146.381 132.936 146.381 132.808C146.381 132.68 146.402 132.616 146.445 132.616C147.256 132.616 147.853 132.563 148.237 132.456C148.621 132.349 148.877 132.147 149.005 131.848C149.154 131.528 149.229 131.048 149.229 130.408V115.592C149.229 114.952 149.154 114.483 149.005 114.184C148.877 113.885 148.621 113.683 148.237 113.576C147.874 113.448 147.288 113.384 146.477 113.384C146.434 113.384 146.413 113.32 146.413 113.192C146.413 113.064 146.434 113 146.477 113H159.341C159.533 113 159.629 113.096 159.629 113.288L159.693 117.224C159.693 117.288 159.629 117.331 159.501 117.352C159.394 117.352 159.341 117.32 159.341 117.256C159.277 116.125 158.936 115.251 158.317 114.632C157.698 113.992 156.877 113.672 155.853 113.672H153.901C153.176 113.672 152.632 113.725 152.269 113.832C151.906 113.939 151.65 114.131 151.501 114.408C151.352 114.685 151.277 115.091 151.277 115.624V130.28C151.277 130.963 151.362 131.464 151.533 131.784C151.725 132.083 152.088 132.296 152.621 132.424C153.176 132.552 154.029 132.616 155.181 132.616C155.245 132.616 155.277 132.68 155.277 132.808C155.277 132.936 155.245 133 155.181 133C154.306 133 153.624 132.989 153.133 132.968L150.253 132.936L148.077 132.968C147.693 132.989 147.149 133 146.445 133ZM157.709 125.928C157.709 124.989 157.453 124.317 156.941 123.912C156.45 123.507 155.618 123.304 154.445 123.304H150.317V122.632H154.541C155.672 122.632 156.472 122.461 156.941 122.12C157.432 121.757 157.677 121.181 157.677 120.392C157.677 120.349 157.741 120.328 157.869 120.328C157.997 120.328 158.061 120.349 158.061 120.392L158.029 122.984C158.029 123.603 158.04 124.072 158.061 124.392L158.093 125.928C158.093 125.971 158.029 125.992 157.901 125.992C157.773 125.992 157.709 125.971 157.709 125.928ZM167.302 130.28C167.302 130.899 167.366 131.347 167.494 131.624C167.622 131.901 167.857 132.093 168.198 132.2C168.54 132.285 169.094 132.328 169.862 132.328H173.35C174.566 132.328 175.537 131.955 176.262 131.208C176.988 130.461 177.468 129.427 177.702 128.104C177.702 128.04 177.756 128.019 177.862 128.04C177.99 128.04 178.054 128.072 178.054 128.136C177.862 129.907 177.766 131.368 177.766 132.52C177.766 132.691 177.734 132.819 177.67 132.904C177.606 132.968 177.478 133 177.286 133H162.502C162.46 133 162.438 132.936 162.438 132.808C162.438 132.68 162.46 132.616 162.502 132.616C163.313 132.616 163.9 132.563 164.262 132.456C164.646 132.349 164.902 132.147 165.03 131.848C165.158 131.528 165.222 131.048 165.222 130.408V115.592C165.222 114.952 165.158 114.483 165.03 114.184C164.902 113.885 164.646 113.683 164.262 113.576C163.9 113.448 163.313 113.384 162.502 113.384C162.46 113.384 162.438 113.32 162.438 113.192C162.438 113.064 162.46 113 162.502 113L164.07 113.032C164.966 113.075 165.692 113.096 166.246 113.096C166.844 113.096 167.59 113.075 168.486 113.032L170.022 113C170.086 113 170.118 113.064 170.118 113.192C170.118 113.32 170.086 113.384 170.022 113.384C169.233 113.384 168.646 113.448 168.262 113.576C167.878 113.683 167.622 113.896 167.494 114.216C167.366 114.515 167.302 114.984 167.302 115.624V130.28ZM190.157 133.384C188.173 133.384 186.402 132.925 184.845 132.008C183.309 131.069 182.114 129.811 181.261 128.232C180.429 126.632 180.013 124.893 180.013 123.016C180.013 120.819 180.567 118.941 181.677 117.384C182.786 115.805 184.205 114.621 185.933 113.832C187.682 113.043 189.463 112.648 191.277 112.648C193.303 112.648 195.085 113.128 196.621 114.088C198.157 115.027 199.33 116.275 200.141 117.832C200.973 119.389 201.389 121.043 201.389 122.792C201.389 124.733 200.877 126.515 199.853 128.136C198.829 129.757 197.453 131.037 195.725 131.976C194.018 132.915 192.162 133.384 190.157 133.384ZM191.277 132.712C192.727 132.712 194.029 132.36 195.181 131.656C196.354 130.952 197.271 129.928 197.933 128.584C198.615 127.219 198.957 125.587 198.957 123.688C198.957 121.683 198.583 119.901 197.837 118.344C197.09 116.787 196.034 115.571 194.669 114.696C193.325 113.821 191.746 113.384 189.933 113.384C187.586 113.384 185.751 114.141 184.429 115.656C183.106 117.171 182.445 119.251 182.445 121.896C182.445 123.901 182.818 125.736 183.565 127.4C184.311 129.043 185.357 130.344 186.701 131.304C188.045 132.243 189.57 132.712 191.277 132.712ZM213.555 132.968C213.533 133.053 213.416 133.096 213.203 133.096C213.032 133.096 212.915 133.053 212.851 132.968L204.883 115.656C204.499 114.803 204.115 114.216 203.731 113.896C203.347 113.555 202.824 113.384 202.163 113.384C202.099 113.384 202.067 113.32 202.067 113.192C202.067 113.064 202.099 113 202.163 113L203.379 113.032C203.976 113.075 204.456 113.096 204.819 113.096C205.587 113.096 206.419 113.075 207.315 113.032L208.627 113C208.691 113 208.723 113.064 208.723 113.192C208.723 113.32 208.691 113.384 208.627 113.384C207.987 113.384 207.507 113.459 207.187 113.608C206.888 113.757 206.739 114.013 206.739 114.376C206.739 114.696 206.845 115.08 207.059 115.528L214.163 130.792L213.011 132.328L217.203 121.864L217.683 122.568L213.555 132.968ZM232.115 113C232.157 113 232.179 113.064 232.179 113.192C232.179 113.32 232.157 113.384 232.115 113.384C231.389 113.384 230.76 113.576 230.227 113.96C229.693 114.344 229.235 114.995 228.851 115.912L222.035 132.968C222.013 133.053 221.896 133.096 221.683 133.096C221.512 133.096 221.395 133.053 221.331 132.968L213.395 115.656C213.011 114.824 212.627 114.237 212.243 113.896C211.859 113.555 211.357 113.384 210.739 113.384C210.675 113.384 210.643 113.32 210.643 113.192C210.643 113.064 210.675 113 210.739 113L211.955 113.032C212.509 113.075 212.968 113.096 213.331 113.096C213.928 113.096 214.547 113.075 215.187 113.032L216.051 113C216.115 113 216.147 113.064 216.147 113.192C216.147 113.32 216.115 113.384 216.051 113.384C215.667 113.384 215.389 113.427 215.219 113.512C215.048 113.576 214.963 113.704 214.963 113.896C214.963 114.152 215.155 114.696 215.539 115.528L222.675 130.792L221.523 132.328L228.147 115.784C228.317 115.336 228.403 114.984 228.403 114.728C228.403 114.259 228.2 113.917 227.795 113.704C227.411 113.491 226.803 113.384 225.971 113.384C225.907 113.384 225.875 113.32 225.875 113.192C225.875 113.064 225.907 113 225.971 113L227.315 113.032C228.04 113.075 228.691 113.096 229.267 113.096C229.693 113.096 230.184 113.075 230.739 113.032L232.115 113ZM219.795 115.72C220.051 115.144 220.179 114.675 220.179 114.312C220.179 113.693 219.72 113.384 218.803 113.384C218.739 113.384 218.707 113.32 218.707 113.192C218.707 113.064 218.739 113 218.803 113L219.539 113.032C219.965 113.075 220.413 113.096 220.883 113.096C221.309 113.096 221.8 113.075 222.355 113.032L223.667 113C223.709 113 223.731 113.064 223.731 113.192C223.731 113.32 223.709 113.384 223.667 113.384C222.941 113.384 222.323 113.576 221.811 113.96C221.32 114.323 220.883 114.973 220.499 115.912L217.843 122.568L217.363 121.864L219.795 115.72ZM233.352 133C233.309 133 233.288 132.936 233.288 132.808C233.288 132.68 233.309 132.616 233.352 132.616C234.163 132.616 234.749 132.563 235.112 132.456C235.496 132.349 235.752 132.147 235.88 131.848C236.029 131.528 236.104 131.048 236.104 130.408V115.592C236.104 114.952 236.029 114.483 235.88 114.184C235.752 113.885 235.496 113.683 235.112 113.576C234.749 113.448 234.163 113.384 233.352 113.384C233.309 113.384 233.288 113.32 233.288 113.192C233.288 113.064 233.309 113 233.352 113H246.216C246.408 113 246.504 113.096 246.504 113.288L246.568 117.224C246.568 117.288 246.504 117.331 246.376 117.352C246.269 117.352 246.216 117.32 246.216 117.256C246.152 116.125 245.811 115.251 245.192 114.632C244.573 113.992 243.752 113.672 242.728 113.672H240.776C240.029 113.672 239.475 113.736 239.112 113.864C238.749 113.971 238.493 114.163 238.344 114.44C238.216 114.717 238.152 115.155 238.152 115.752V130.28C238.152 130.856 238.216 131.293 238.344 131.592C238.493 131.869 238.739 132.061 239.08 132.168C239.421 132.275 239.955 132.328 240.68 132.328H243.24C244.264 132.328 245.117 131.965 245.8 131.24C246.483 130.515 246.941 129.512 247.176 128.232C247.176 128.189 247.219 128.168 247.304 128.168C247.368 128.168 247.421 128.189 247.464 128.232C247.528 128.253 247.56 128.275 247.56 128.296C247.368 129.64 247.272 131.048 247.272 132.52C247.272 132.691 247.229 132.819 247.144 132.904C247.08 132.968 246.952 133 246.76 133H233.352ZM244.968 125.544C244.968 124.605 244.733 123.933 244.264 123.528C243.816 123.123 243.059 122.92 241.992 122.92H237.192V122.248H242.088C243.112 122.248 243.837 122.077 244.264 121.736C244.712 121.395 244.936 120.819 244.936 120.008C244.936 119.965 245 119.944 245.128 119.944C245.256 119.944 245.32 119.965 245.32 120.008L245.288 122.6C245.288 123.219 245.299 123.688 245.32 124.008L245.352 125.544C245.352 125.587 245.288 125.608 245.16 125.608C245.032 125.608 244.968 125.587 244.968 125.544ZM266.891 133C266.358 133 265.334 132.093 263.819 130.28C262.326 128.445 260.523 125.928 258.411 122.728L260.203 122.184C262.059 124.851 263.606 126.931 264.843 128.424C266.102 129.896 267.211 130.963 268.171 131.624C269.131 132.285 270.07 132.616 270.987 132.616C271.051 132.616 271.083 132.68 271.083 132.808C271.083 132.936 271.051 133 270.987 133H266.891ZM258.827 112.904C260.513 112.904 261.814 113.288 262.731 114.056C263.649 114.824 264.107 115.848 264.107 117.128C264.107 118.259 263.777 119.293 263.115 120.232C262.454 121.149 261.558 121.885 260.427 122.44C259.318 122.973 258.123 123.24 256.843 123.24C256.715 123.24 256.235 123.208 255.403 123.144V130.408C255.403 131.069 255.467 131.549 255.595 131.848C255.723 132.147 255.969 132.349 256.331 132.456C256.715 132.563 257.313 132.616 258.123 132.616C258.187 132.616 258.219 132.68 258.219 132.808C258.219 132.936 258.187 133 258.123 133C257.462 133 256.939 132.989 256.555 132.968L254.347 132.936L252.171 132.968C251.787 132.989 251.243 133 250.539 133C250.497 133 250.475 132.936 250.475 132.808C250.475 132.68 250.497 132.616 250.539 132.616C251.35 132.616 251.947 132.563 252.331 132.456C252.715 132.328 252.982 132.115 253.131 131.816C253.281 131.517 253.355 131.048 253.355 130.408V115.592C253.355 114.952 253.281 114.483 253.131 114.184C253.003 113.885 252.747 113.683 252.363 113.576C252.001 113.448 251.414 113.384 250.603 113.384C250.539 113.384 250.507 113.32 250.507 113.192C250.507 113.064 250.539 113 250.603 113L252.171 113.032C253.067 113.075 253.793 113.096 254.347 113.096C254.817 113.096 255.254 113.085 255.659 113.064C256.065 113.043 256.406 113.021 256.683 113C257.494 112.936 258.209 112.904 258.827 112.904ZM261.931 118.056C261.931 116.392 261.558 115.197 260.811 114.472C260.086 113.747 259.019 113.384 257.611 113.384C256.779 113.384 256.203 113.533 255.883 113.832C255.563 114.131 255.403 114.739 255.403 115.656V122.376C255.915 122.461 256.545 122.504 257.291 122.504C258.955 122.504 260.139 122.141 260.843 121.416C261.569 120.691 261.931 119.571 261.931 118.056ZM282.835 116.744C282.835 117.576 283.037 118.301 283.443 118.92C283.848 119.539 284.339 120.061 284.915 120.488C285.491 120.893 286.301 121.416 287.347 122.056C288.456 122.717 289.32 123.272 289.939 123.72C290.557 124.168 291.08 124.744 291.507 125.448C291.955 126.131 292.179 126.952 292.179 127.912C292.179 128.936 291.923 129.864 291.411 130.696C290.899 131.528 290.141 132.189 289.139 132.68C288.157 133.149 286.973 133.384 285.587 133.384C283.944 133.384 282.44 133.011 281.075 132.264C280.968 132.2 280.893 132.125 280.851 132.04C280.829 131.955 280.808 131.827 280.787 131.656L280.371 127.304C280.349 127.219 280.392 127.165 280.499 127.144C280.627 127.123 280.701 127.155 280.723 127.24C281.043 128.755 281.672 130.077 282.611 131.208C283.549 132.317 284.787 132.872 286.323 132.872C287.389 132.872 288.285 132.584 289.011 132.008C289.757 131.411 290.131 130.472 290.131 129.192C290.131 128.232 289.917 127.4 289.491 126.696C289.064 125.992 288.541 125.416 287.923 124.968C287.325 124.499 286.504 123.955 285.459 123.336C284.435 122.717 283.624 122.184 283.027 121.736C282.451 121.288 281.96 120.723 281.555 120.04C281.149 119.357 280.947 118.557 280.947 117.64C280.947 116.573 281.224 115.667 281.779 114.92C282.355 114.152 283.091 113.587 283.987 113.224C284.904 112.84 285.875 112.648 286.899 112.648C288.157 112.648 289.405 112.904 290.643 113.416C290.963 113.523 291.123 113.704 291.123 113.96L291.347 117.608C291.347 117.715 291.283 117.768 291.155 117.768C291.048 117.768 290.984 117.725 290.963 117.64C290.813 116.531 290.365 115.507 289.619 114.568C288.872 113.608 287.795 113.128 286.387 113.128C285.192 113.128 284.296 113.48 283.699 114.184C283.123 114.867 282.835 115.72 282.835 116.744ZM299.929 113.576C298.607 113.576 297.604 113.917 296.921 114.6C296.26 115.283 295.78 116.445 295.481 118.088C295.481 118.131 295.417 118.152 295.289 118.152C295.183 118.152 295.129 118.131 295.129 118.088C295.215 117.32 295.311 116.317 295.417 115.08C295.524 113.843 295.577 112.915 295.577 112.296C295.577 112.189 295.631 112.136 295.737 112.136C295.865 112.136 295.929 112.189 295.929 112.296C295.929 112.765 296.505 113 297.657 113C299.492 113.064 301.636 113.096 304.089 113.096C305.348 113.096 306.681 113.075 308.089 113.032L310.265 113C311.033 113 311.599 112.947 311.961 112.84C312.345 112.733 312.591 112.52 312.697 112.2C312.719 112.115 312.783 112.072 312.889 112.072C312.996 112.072 313.049 112.115 313.049 112.2C312.985 112.819 312.921 113.757 312.857 115.016C312.793 116.275 312.761 117.299 312.761 118.088C312.761 118.131 312.697 118.152 312.569 118.152C312.441 118.152 312.377 118.131 312.377 118.088C312.313 116.424 311.972 115.261 311.353 114.6C310.735 113.917 309.711 113.576 308.281 113.576C307.321 113.576 306.639 113.619 306.233 113.704C305.828 113.789 305.551 113.971 305.401 114.248C305.252 114.525 305.177 114.995 305.177 115.656V130.408C305.177 131.069 305.252 131.549 305.401 131.848C305.551 132.147 305.839 132.349 306.265 132.456C306.692 132.563 307.364 132.616 308.281 132.616C308.345 132.616 308.377 132.68 308.377 132.808C308.377 132.936 308.345 133 308.281 133C307.577 133 307.012 132.989 306.585 132.968L304.089 132.936L301.689 132.968C301.263 132.989 300.676 133 299.929 133C299.887 133 299.865 132.936 299.865 132.808C299.865 132.68 299.887 132.616 299.929 132.616C300.847 132.616 301.519 132.563 301.945 132.456C302.372 132.349 302.66 132.147 302.809 131.848C302.98 131.528 303.065 131.048 303.065 130.408V115.592C303.065 114.931 302.991 114.472 302.841 114.216C302.692 113.939 302.415 113.768 302.009 113.704C301.604 113.619 300.911 113.576 299.929 113.576ZM325.5 133.384C323.516 133.384 321.746 132.925 320.188 132.008C318.652 131.069 317.458 129.811 316.604 128.232C315.772 126.632 315.356 124.893 315.356 123.016C315.356 120.819 315.911 118.941 317.02 117.384C318.13 115.805 319.548 114.621 321.276 113.832C323.026 113.043 324.807 112.648 326.62 112.648C328.647 112.648 330.428 113.128 331.964 114.088C333.5 115.027 334.674 116.275 335.484 117.832C336.316 119.389 336.732 121.043 336.732 122.792C336.732 124.733 336.22 126.515 335.196 128.136C334.172 129.757 332.796 131.037 331.068 131.976C329.362 132.915 327.506 133.384 325.5 133.384ZM326.62 132.712C328.071 132.712 329.372 132.36 330.524 131.656C331.698 130.952 332.615 129.928 333.276 128.584C333.959 127.219 334.3 125.587 334.3 123.688C334.3 121.683 333.927 119.901 333.18 118.344C332.434 116.787 331.378 115.571 330.012 114.696C328.668 113.821 327.09 113.384 325.276 113.384C322.93 113.384 321.095 114.141 319.772 115.656C318.45 117.171 317.788 119.251 317.788 121.896C317.788 123.901 318.162 125.736 318.908 127.4C319.655 129.043 320.7 130.344 322.044 131.304C323.388 132.243 324.914 132.712 326.62 132.712ZM356.016 133C355.483 133 354.459 132.093 352.944 130.28C351.451 128.445 349.648 125.928 347.536 122.728L349.328 122.184C351.184 124.851 352.731 126.931 353.968 128.424C355.227 129.896 356.336 130.963 357.296 131.624C358.256 132.285 359.195 132.616 360.112 132.616C360.176 132.616 360.208 132.68 360.208 132.808C360.208 132.936 360.176 133 360.112 133H356.016ZM347.952 112.904C349.638 112.904 350.939 113.288 351.856 114.056C352.774 114.824 353.232 115.848 353.232 117.128C353.232 118.259 352.902 119.293 352.24 120.232C351.579 121.149 350.683 121.885 349.552 122.44C348.443 122.973 347.248 123.24 345.968 123.24C345.84 123.24 345.36 123.208 344.528 123.144V130.408C344.528 131.069 344.592 131.549 344.72 131.848C344.848 132.147 345.094 132.349 345.456 132.456C345.84 132.563 346.438 132.616 347.248 132.616C347.312 132.616 347.344 132.68 347.344 132.808C347.344 132.936 347.312 133 347.248 133C346.587 133 346.064 132.989 345.68 132.968L343.472 132.936L341.296 132.968C340.912 132.989 340.368 133 339.664 133C339.622 133 339.6 132.936 339.6 132.808C339.6 132.68 339.622 132.616 339.664 132.616C340.475 132.616 341.072 132.563 341.456 132.456C341.84 132.328 342.107 132.115 342.256 131.816C342.406 131.517 342.48 131.048 342.48 130.408V115.592C342.48 114.952 342.406 114.483 342.256 114.184C342.128 113.885 341.872 113.683 341.488 113.576C341.126 113.448 340.539 113.384 339.728 113.384C339.664 113.384 339.632 113.32 339.632 113.192C339.632 113.064 339.664 113 339.728 113L341.296 113.032C342.192 113.075 342.918 113.096 343.472 113.096C343.942 113.096 344.379 113.085 344.784 113.064C345.19 113.043 345.531 113.021 345.808 113C346.619 112.936 347.334 112.904 347.952 112.904ZM351.056 118.056C351.056 116.392 350.683 115.197 349.936 114.472C349.211 113.747 348.144 113.384 346.736 113.384C345.904 113.384 345.328 113.533 345.008 113.832C344.688 114.131 344.528 114.739 344.528 115.656V122.376C345.04 122.461 345.67 122.504 346.416 122.504C348.08 122.504 349.264 122.141 349.968 121.416C350.694 120.691 351.056 119.571 351.056 118.056ZM361.196 133C361.153 133 361.132 132.936 361.132 132.808C361.132 132.68 361.153 132.616 361.196 132.616C362.006 132.616 362.593 132.563 362.956 132.456C363.34 132.349 363.596 132.147 363.724 131.848C363.873 131.528 363.948 131.048 363.948 130.408V115.592C363.948 114.952 363.873 114.483 363.724 114.184C363.596 113.885 363.34 113.683 362.956 113.576C362.593 113.448 362.006 113.384 361.196 113.384C361.153 113.384 361.132 113.32 361.132 113.192C361.132 113.064 361.153 113 361.196 113H374.06C374.252 113 374.348 113.096 374.348 113.288L374.412 117.224C374.412 117.288 374.348 117.331 374.22 117.352C374.113 117.352 374.06 117.32 374.06 117.256C373.996 116.125 373.654 115.251 373.036 114.632C372.417 113.992 371.596 113.672 370.572 113.672H368.62C367.873 113.672 367.318 113.736 366.956 113.864C366.593 113.971 366.337 114.163 366.188 114.44C366.06 114.717 365.996 115.155 365.996 115.752V130.28C365.996 130.856 366.06 131.293 366.188 131.592C366.337 131.869 366.582 132.061 366.924 132.168C367.265 132.275 367.798 132.328 368.524 132.328H371.084C372.108 132.328 372.961 131.965 373.644 131.24C374.326 130.515 374.785 129.512 375.02 128.232C375.02 128.189 375.062 128.168 375.148 128.168C375.212 128.168 375.265 128.189 375.308 128.232C375.372 128.253 375.404 128.275 375.404 128.296C375.212 129.64 375.116 131.048 375.116 132.52C375.116 132.691 375.073 132.819 374.988 132.904C374.924 132.968 374.796 133 374.604 133H361.196ZM372.812 125.544C372.812 124.605 372.577 123.933 372.108 123.528C371.66 123.123 370.902 122.92 369.836 122.92H365.036V122.248H369.932C370.956 122.248 371.681 122.077 372.108 121.736C372.556 121.395 372.78 120.819 372.78 120.008C372.78 119.965 372.844 119.944 372.972 119.944C373.1 119.944 373.164 119.965 373.164 120.008L373.132 122.6C373.132 123.219 373.142 123.688 373.164 124.008L373.196 125.544C373.196 125.587 373.132 125.608 373.004 125.608C372.876 125.608 372.812 125.587 372.812 125.544Z" fill="black"/>
</svg>
